<svg width="20" height="20" viewBox="0 0 20 20" fill="none" xmlns="http://www.w3.org/2000/svg">
<g clip-path="url(#clip0_722_3905)">
<path d="M10 20C15.5228 20 20 15.5228 20 10C20 4.47715 15.5228 0 10 0C4.47715 0 0 4.47715 0 10C0 15.5228 4.47715 20 10 20Z" fill="#00EF8B"/>
<path d="M14.3801 8.44H11.5601V11.26H14.3801V8.44Z" fill="white"/>
<path d="M8.7398 12.32C8.7398 12.9 8.25981 13.38 7.67981 13.38C7.09981 13.38 6.6198 12.9 6.6198 12.32C6.6198 11.74 7.09981 11.26 7.67981 11.26H8.7398V8.44H7.67981C5.53981 8.44 3.7998 10.18 3.7998 12.32C3.7998 14.46 5.53981 16.2 7.67981 16.2C9.81981 16.2 11.5598 14.46 11.5598 12.32V11.26H8.7398V12.32Z" fill="white"/>
<path d="M12.6202 7.02001H15.8002V4.20001H12.6202C10.4802 4.20001 8.74023 5.94001 8.74023 8.08001V8.44001H11.5602V8.08001C11.5602 7.50001 12.0402 7.02001 12.6202 7.02001Z" fill="white"/>
<path d="M11.5602 8.44H8.74023V11.26H11.5602V8.44Z" fill="#16FF99"/>
</g>
<defs>
<clipPath id="clip0_722_3905">
<rect width="20" height="20" fill="white"/>
</clipPath>
</defs>
</svg>
