<svg width="22" height="22" viewBox="0 0 22 22" fill="none" xmlns="http://www.w3.org/2000/svg">
<g id="SearchOutline">
<path id="Vector" d="M19.25 19.25L13.75 13.75M15.5833 9.16667C15.5833 10.0093 15.4174 10.8437 15.0949 11.6222C14.7724 12.4007 14.2998 13.1081 13.7039 13.7039C13.1081 14.2998 12.4007 14.7724 11.6222 15.0949C10.8437 15.4174 10.0093 15.5833 9.16667 15.5833C8.32402 15.5833 7.48962 15.4174 6.71111 15.0949C5.93261 14.7724 5.22524 14.2998 4.6294 13.7039C4.03356 13.1081 3.56091 12.4007 3.23844 11.6222C2.91597 10.8437 2.75 10.0093 2.75 9.16667C2.75 7.46486 3.42604 5.83276 4.6294 4.6294C5.83276 3.42604 7.46486 2.75 9.16667 2.75C10.8685 2.75 12.5006 3.42604 13.7039 4.6294C14.9073 5.83276 15.5833 7.46486 15.5833 9.16667Z" stroke="#313D58" stroke-width="2" stroke-linecap="round" stroke-linejoin="round"/>
</g>
</svg>
