<svg width="225" height="265" viewBox="0 0 225 265" fill="none" xmlns="http://www.w3.org/2000/svg">
<rect width="225" height="265" fill="url(#paint0_radial_1229_4666)"/>
<path d="M75.5398 107.372H79.8648V122.97C79.8648 124.68 79.4607 126.184 78.6524 127.482C77.8519 128.78 76.725 129.794 75.2717 130.524C73.8183 131.247 72.1202 131.608 70.1772 131.608C68.2265 131.608 66.5245 131.247 65.0711 130.524C63.6178 129.794 62.4909 128.78 61.6904 127.482C60.8899 126.184 60.4896 124.68 60.4896 122.97V107.372H64.8147V122.609C64.8147 123.603 65.0323 124.489 65.4675 125.267C65.9105 126.044 66.5322 126.654 67.3327 127.097C68.1332 127.532 69.0814 127.75 70.1772 127.75C71.273 127.75 72.2212 127.532 73.0217 127.097C73.83 126.654 74.4517 126.044 74.887 125.267C75.3222 124.489 75.5398 123.603 75.5398 122.609V107.372ZM83.3944 137.962V113.341H87.5446V116.302H87.7894C88.007 115.867 88.314 115.404 88.7104 114.915C89.1067 114.417 89.643 113.994 90.3191 113.644C90.9953 113.286 91.858 113.108 92.9072 113.108C94.2905 113.108 95.5379 113.461 96.6493 114.168C97.7684 114.868 98.6544 115.905 99.3073 117.281C99.9679 118.649 100.298 120.328 100.298 122.317C100.298 124.284 99.9756 125.954 99.3306 127.33C98.6855 128.706 97.8073 129.755 96.6959 130.478C95.5846 131.2 94.3255 131.562 92.9188 131.562C91.8929 131.562 91.0419 131.391 90.3658 131.049C89.6896 130.707 89.1456 130.295 88.7337 129.813C88.3295 129.324 88.0148 128.861 87.7894 128.426H87.6145V137.962H83.3944ZM87.5329 122.294C87.5329 123.452 87.6961 124.466 88.0226 125.337C88.3568 126.207 88.8347 126.887 89.4565 127.377C90.086 127.859 90.8476 128.099 91.7414 128.099C92.674 128.099 93.4551 127.851 94.0846 127.353C94.7141 126.848 95.1882 126.16 95.5068 125.29C95.8333 124.412 95.9965 123.413 95.9965 122.294C95.9965 121.183 95.8371 120.196 95.5185 119.333C95.1999 118.47 94.7258 117.794 94.0963 117.304C93.4667 116.815 92.6818 116.57 91.7414 116.57C90.8399 116.57 90.0743 116.807 89.4448 117.281C88.8153 117.755 88.3373 118.42 88.0109 119.275C87.6923 120.129 87.5329 121.136 87.5329 122.294ZM107.147 107.372V131.247H102.927V107.372H107.147ZM118.313 131.597C116.564 131.597 115.049 131.212 113.766 130.443C112.484 129.673 111.489 128.597 110.782 127.213C110.082 125.83 109.733 124.214 109.733 122.364C109.733 120.514 110.082 118.894 110.782 117.503C111.489 116.111 112.484 115.031 113.766 114.262C115.049 113.492 116.564 113.108 118.313 113.108C120.061 113.108 121.577 113.492 122.859 114.262C124.142 115.031 125.133 116.111 125.832 117.503C126.539 118.894 126.893 120.514 126.893 122.364C126.893 124.214 126.539 125.83 125.832 127.213C125.133 128.597 124.142 129.673 122.859 130.443C121.577 131.212 120.061 131.597 118.313 131.597ZM118.336 128.216C119.284 128.216 120.077 127.956 120.714 127.435C121.352 126.906 121.826 126.199 122.137 125.313C122.455 124.427 122.615 123.44 122.615 122.352C122.615 121.256 122.455 120.265 122.137 119.379C121.826 118.486 121.352 117.775 120.714 117.246C120.077 116.718 119.284 116.453 118.336 116.453C117.365 116.453 116.556 116.718 115.911 117.246C115.274 117.775 114.796 118.486 114.477 119.379C114.167 120.265 114.011 121.256 114.011 122.352C114.011 123.44 114.167 124.427 114.477 125.313C114.796 126.199 115.274 126.906 115.911 127.435C116.556 127.956 117.365 128.216 118.336 128.216ZM134.643 131.608C133.508 131.608 132.486 131.406 131.577 131.002C130.675 130.59 129.96 129.984 129.432 129.184C128.911 128.383 128.651 127.396 128.651 126.223C128.651 125.212 128.837 124.377 129.21 123.716C129.583 123.056 130.092 122.527 130.737 122.131C131.382 121.734 132.109 121.435 132.917 121.233C133.733 121.023 134.577 120.872 135.447 120.778C136.496 120.67 137.347 120.572 138 120.487C138.653 120.394 139.127 120.254 139.422 120.067C139.725 119.873 139.877 119.574 139.877 119.17V119.1C139.877 118.221 139.617 117.541 139.096 117.06C138.575 116.578 137.825 116.337 136.846 116.337C135.812 116.337 134.992 116.562 134.386 117.013C133.788 117.464 133.384 117.996 133.174 118.61L129.233 118.05C129.544 116.962 130.057 116.053 130.772 115.323C131.487 114.584 132.362 114.032 133.395 113.667C134.429 113.294 135.571 113.108 136.823 113.108C137.685 113.108 138.544 113.209 139.399 113.411C140.254 113.613 141.035 113.947 141.742 114.413C142.449 114.872 143.017 115.497 143.444 116.29C143.879 117.083 144.097 118.074 144.097 119.263V131.247H140.04V128.787H139.9C139.644 129.285 139.282 129.751 138.816 130.186C138.358 130.614 137.779 130.96 137.079 131.224C136.387 131.48 135.575 131.608 134.643 131.608ZM135.738 128.507C136.586 128.507 137.32 128.34 137.942 128.006C138.564 127.664 139.041 127.213 139.376 126.654C139.718 126.094 139.889 125.484 139.889 124.824V122.714C139.756 122.822 139.531 122.923 139.212 123.017C138.902 123.11 138.552 123.192 138.163 123.262C137.775 123.331 137.39 123.394 137.009 123.448C136.628 123.502 136.298 123.549 136.018 123.588C135.389 123.673 134.825 123.813 134.328 124.008C133.83 124.202 133.438 124.474 133.15 124.824C132.863 125.166 132.719 125.609 132.719 126.153C132.719 126.93 133.003 127.517 133.57 127.913C134.137 128.309 134.86 128.507 135.738 128.507ZM154.001 131.562C152.594 131.562 151.335 131.2 150.223 130.478C149.112 129.755 148.234 128.706 147.589 127.33C146.944 125.954 146.621 124.284 146.621 122.317C146.621 120.328 146.948 118.649 147.6 117.281C148.261 115.905 149.151 114.868 150.27 114.168C151.389 113.461 152.637 113.108 154.012 113.108C155.061 113.108 155.924 113.286 156.6 113.644C157.276 113.994 157.813 114.417 158.209 114.915C158.605 115.404 158.912 115.867 159.13 116.302H159.305V107.372H163.537V131.247H159.386V128.426H159.13C158.912 128.861 158.598 129.324 158.186 129.813C157.774 130.295 157.23 130.707 156.554 131.049C155.877 131.391 155.026 131.562 154.001 131.562ZM155.178 128.099C156.072 128.099 156.833 127.859 157.463 127.377C158.092 126.887 158.57 126.207 158.897 125.337C159.223 124.466 159.386 123.452 159.386 122.294C159.386 121.136 159.223 120.129 158.897 119.275C158.578 118.42 158.104 117.755 157.475 117.281C156.853 116.807 156.087 116.57 155.178 116.57C154.238 116.57 153.453 116.815 152.823 117.304C152.194 117.794 151.72 118.47 151.401 119.333C151.082 120.196 150.923 121.183 150.923 122.294C150.923 123.413 151.082 124.412 151.401 125.29C151.727 126.16 152.205 126.848 152.835 127.353C153.472 127.851 154.253 128.099 155.178 128.099ZM102.34 147.372V171.247H98.4928L87.2431 154.985H87.0449V171.247H82.7199V147.372H86.5902L97.8283 163.646H98.0381V147.372H102.34ZM106.068 171.247V147.372H121.363V150.998H110.393V157.479H120.313V161.105H110.393V171.247H106.068ZM123.269 150.998V147.372H142.318V150.998H134.938V171.247H130.648V150.998H123.269Z" fill="url(#paint1_linear_1229_4666)"/>
<defs>
<radialGradient id="paint0_radial_1229_4666" cx="0" cy="0" r="1" gradientUnits="userSpaceOnUse" gradientTransform="translate(112.5 132.5) rotate(45.5457) scale(185.624 181.311)">
<stop offset="0.316162" stop-color="white"/>
<stop offset="1" stop-color="#EAF5FF"/>
</radialGradient>
<linearGradient id="paint1_linear_1229_4666" x1="112" y1="99.2471" x2="112" y2="192.15" gradientUnits="userSpaceOnUse">
<stop stop-color="#7ABFFF"/>
<stop offset="1" stop-color="#00519C"/>
</linearGradient>
</defs>
</svg>
