<svg width="225" height="265" viewBox="0 0 225 265" fill="none" xmlns="http://www.w3.org/2000/svg">
<rect width="225" height="265" fill="url(#paint0_radial_1229_4666)"/>
<path d="M76.2872 107.372H79.9011V123.075C79.9011 124.746 79.5086 126.226 78.7237 127.517C77.9387 128.799 76.8351 129.809 75.4129 130.548C73.9906 131.278 72.3236 131.643 70.4117 131.643C68.5076 131.643 66.8444 131.278 65.4222 130.548C63.9999 129.809 62.8963 128.799 62.1114 127.517C61.3264 126.226 60.934 124.746 60.934 123.075V107.372H64.5362V122.784C64.5362 123.864 64.7732 124.824 65.2473 125.663C65.7292 126.502 66.4092 127.163 67.2874 127.645C68.1657 128.119 69.2071 128.356 70.4117 128.356C71.6241 128.356 72.6694 128.119 73.5476 127.645C74.4336 127.163 75.1098 126.502 75.5761 125.663C76.0502 124.824 76.2872 123.864 76.2872 122.784V107.372ZM84.202 137.962V113.341H87.6061V116.244H87.8975C88.0996 115.87 88.391 115.439 88.7719 114.95C89.1527 114.46 89.6812 114.032 90.3573 113.667C91.0335 113.294 91.9272 113.108 93.0386 113.108C94.4842 113.108 95.7743 113.473 96.909 114.203C98.0437 114.934 98.9335 115.987 99.5786 117.363C100.231 118.738 100.558 120.394 100.558 122.329C100.558 124.264 100.235 125.923 99.5903 127.307C98.9452 128.682 98.0592 129.743 96.9323 130.489C95.8054 131.228 94.5191 131.597 93.0736 131.597C91.9855 131.597 91.0956 131.414 90.4039 131.049C89.72 130.684 89.1838 130.256 88.7952 129.767C88.4066 129.277 88.1074 128.842 87.8975 128.461H87.6877V137.962H84.202ZM87.6177 122.294C87.6177 123.553 87.8004 124.657 88.1657 125.605C88.5309 126.553 89.0594 127.295 89.7511 127.831C90.4428 128.36 91.2899 128.624 92.2925 128.624C93.3339 128.624 94.2044 128.348 94.9038 127.796C95.6033 127.237 96.1318 126.479 96.4893 125.523C96.8546 124.567 97.0372 123.491 97.0372 122.294C97.0372 121.113 96.8585 120.052 96.501 119.111C96.1512 118.171 95.6227 117.429 94.9155 116.885C94.216 116.341 93.3417 116.069 92.2925 116.069C91.2822 116.069 90.4273 116.329 89.7278 116.85C89.0361 117.37 88.5115 118.097 88.154 119.03C87.7965 119.962 87.6177 121.05 87.6177 122.294ZM107.292 107.372V131.247H103.807V107.372H107.292ZM118.868 131.608C117.189 131.608 115.724 131.224 114.473 130.454C113.221 129.685 112.25 128.609 111.558 127.225C110.867 125.842 110.521 124.225 110.521 122.376C110.521 120.518 110.867 118.894 111.558 117.503C112.25 116.111 113.221 115.031 114.473 114.262C115.724 113.492 117.189 113.108 118.868 113.108C120.546 113.108 122.011 113.492 123.263 114.262C124.514 115.031 125.485 116.111 126.177 117.503C126.869 118.894 127.215 120.518 127.215 122.376C127.215 124.225 126.869 125.842 126.177 127.225C125.485 128.609 124.514 129.685 123.263 130.454C122.011 131.224 120.546 131.608 118.868 131.608ZM118.879 128.682C119.967 128.682 120.869 128.395 121.584 127.82C122.299 127.245 122.827 126.479 123.169 125.523C123.519 124.567 123.694 123.514 123.694 122.364C123.694 121.221 123.519 120.172 123.169 119.216C122.827 118.253 122.299 117.479 121.584 116.896C120.869 116.313 119.967 116.022 118.879 116.022C117.783 116.022 116.874 116.313 116.151 116.896C115.436 117.479 114.904 118.253 114.554 119.216C114.212 120.172 114.041 121.221 114.041 122.364C114.041 123.514 114.212 124.567 114.554 125.523C114.904 126.479 115.436 127.245 116.151 127.82C116.874 128.395 117.783 128.682 118.879 128.682ZM135.66 131.643C134.525 131.643 133.499 131.434 132.582 131.014C131.665 130.586 130.938 129.969 130.402 129.16C129.874 128.352 129.609 127.361 129.609 126.188C129.609 125.177 129.804 124.346 130.192 123.693C130.581 123.04 131.106 122.523 131.766 122.142C132.427 121.762 133.165 121.474 133.981 121.28C134.797 121.085 135.629 120.938 136.476 120.837C137.548 120.712 138.419 120.611 139.087 120.534C139.756 120.448 140.241 120.312 140.544 120.126C140.848 119.939 140.999 119.636 140.999 119.216V119.135C140.999 118.117 140.712 117.328 140.136 116.768C139.569 116.209 138.722 115.929 137.595 115.929C136.421 115.929 135.497 116.189 134.82 116.71C134.152 117.223 133.69 117.794 133.433 118.424L130.157 117.677C130.546 116.589 131.113 115.711 131.859 115.043C132.613 114.367 133.48 113.877 134.459 113.574C135.438 113.263 136.468 113.108 137.548 113.108C138.263 113.108 139.021 113.193 139.822 113.364C140.63 113.527 141.384 113.83 142.083 114.273C142.79 114.716 143.369 115.35 143.82 116.174C144.271 116.99 144.496 118.05 144.496 119.356V131.247H141.092V128.799H140.952C140.727 129.25 140.389 129.693 139.938 130.128C139.487 130.563 138.908 130.925 138.201 131.212C137.494 131.5 136.647 131.643 135.66 131.643ZM136.418 128.846C137.381 128.846 138.205 128.655 138.889 128.274C139.581 127.894 140.105 127.396 140.463 126.782C140.828 126.16 141.011 125.496 141.011 124.789V122.48C140.886 122.605 140.645 122.721 140.288 122.83C139.938 122.931 139.538 123.021 139.087 123.098C138.636 123.168 138.197 123.234 137.77 123.296C137.342 123.351 136.985 123.398 136.697 123.436C136.021 123.522 135.403 123.666 134.844 123.868C134.292 124.07 133.849 124.361 133.515 124.742C133.188 125.115 133.025 125.612 133.025 126.234C133.025 127.097 133.344 127.75 133.981 128.193C134.618 128.628 135.431 128.846 136.418 128.846ZM155.186 131.597C153.74 131.597 152.45 131.228 151.315 130.489C150.188 129.743 149.302 128.682 148.657 127.307C148.02 125.923 147.701 124.264 147.701 122.329C147.701 120.394 148.024 118.738 148.669 117.363C149.322 115.987 150.216 114.934 151.35 114.203C152.485 113.473 153.771 113.108 155.209 113.108C156.32 113.108 157.214 113.294 157.89 113.667C158.574 114.032 159.103 114.46 159.476 114.95C159.857 115.439 160.152 115.87 160.362 116.244H160.572V107.372H164.057V131.247H160.653V128.461H160.362C160.152 128.842 159.849 129.277 159.452 129.767C159.064 130.256 158.528 130.684 157.844 131.049C157.16 131.414 156.274 131.597 155.186 131.597ZM155.955 128.624C156.958 128.624 157.805 128.36 158.497 127.831C159.196 127.295 159.724 126.553 160.082 125.605C160.447 124.657 160.63 123.553 160.63 122.294C160.63 121.05 160.451 119.962 160.094 119.03C159.736 118.097 159.212 117.37 158.52 116.85C157.828 116.329 156.973 116.069 155.955 116.069C154.906 116.069 154.032 116.341 153.332 116.885C152.633 117.429 152.104 118.171 151.747 119.111C151.397 120.052 151.222 121.113 151.222 122.294C151.222 123.491 151.401 124.567 151.758 125.523C152.116 126.479 152.644 127.237 153.344 127.796C154.051 128.348 154.922 128.624 155.955 128.624ZM102.478 147.372V171.247H99.1673L87.0315 153.737H86.81V171.247H83.2078V147.372H86.5419L98.6893 164.905H98.9108V147.372H102.478ZM107.076 171.247V147.372H121.882V150.473H110.678V157.747H120.821V160.837H110.678V171.247H107.076ZM124.478 150.473V147.372H142.955V150.473H135.506V171.247H131.915V150.473H124.478Z" fill="url(#paint1_linear_1229_4666)"/>
<defs>
<radialGradient id="paint0_radial_1229_4666" cx="0" cy="0" r="1" gradientUnits="userSpaceOnUse" gradientTransform="translate(112.5 132.5) rotate(45.5457) scale(185.624 181.311)">
<stop offset="0.316162" stop-color="white"/>
<stop offset="1" stop-color="#EAF5FF"/>
</radialGradient>
<linearGradient id="paint1_linear_1229_4666" x1="112.5" y1="99.2471" x2="112.5" y2="192.15" gradientUnits="userSpaceOnUse">
<stop stop-color="#7ABFFF"/>
<stop offset="1" stop-color="#00519C"/>
</linearGradient>
</defs>
</svg>
