<svg width="225" height="265" viewBox="0 0 225 265" fill="none" xmlns="http://www.w3.org/2000/svg">
<rect width="225" height="265" fill="url(#paint0_radial_1229_4666)"/>
<path d="M69.9795 134.739C68.1411 134.739 66.5051 134.362 65.0716 133.607C63.6491 132.841 62.5384 131.763 61.7396 130.373C60.9517 128.984 60.5578 127.375 60.5578 125.548V110.627L64.0376 110.611V125.367C64.0376 126.647 64.3166 127.753 64.8747 128.683C65.4437 129.613 66.1823 130.319 67.0906 130.8C67.9988 131.271 68.9618 131.506 69.9795 131.506C70.9971 131.506 71.9601 131.265 72.8684 130.784C73.7766 130.302 74.5098 129.596 75.0678 128.666C75.6369 127.736 75.9214 126.636 75.9214 125.367V110.611H79.4012V125.548C79.4012 127.375 79.0018 128.984 78.2029 130.373C77.4151 131.763 76.3044 132.841 74.8709 133.607C73.4483 134.362 71.8178 134.739 69.9795 134.739ZM91.5925 116.027C93.223 116.027 94.6455 116.432 95.8602 117.242C97.0858 118.041 98.0268 119.152 98.6834 120.574C99.3509 121.986 99.6847 123.583 99.6847 125.367C99.6847 127.14 99.3564 128.737 98.6998 130.16C98.0433 131.583 97.1076 132.704 95.893 133.525C94.6784 134.335 93.2667 134.739 91.6582 134.739C89.7104 134.739 88.0799 134.16 86.7668 133V142.126H83.3198V116.52H86.3728V118.112C87.0184 117.444 87.779 116.93 88.6544 116.569C89.5298 116.208 90.5092 116.027 91.5925 116.027ZM91.1821 131.637C92.2436 131.637 93.1354 131.364 93.8577 130.817C94.5908 130.269 95.138 129.525 95.4991 128.584C95.8602 127.643 96.0407 126.571 96.0407 125.367C96.0407 124.174 95.8602 123.107 95.4991 122.166C95.138 121.225 94.5853 120.487 93.8412 119.95C93.0971 119.403 92.1725 119.13 91.0673 119.13C89.5024 119.13 88.3261 119.693 87.5382 120.82C86.7613 121.936 86.3728 123.452 86.3728 125.367C86.3728 127.304 86.7668 128.836 87.5546 129.963C88.3534 131.079 89.5626 131.637 91.1821 131.637ZM106.411 134.247H102.981V110.118H106.411V134.247ZM118.382 134.739C116.642 134.739 115.115 134.346 113.802 133.558C112.489 132.759 111.477 131.654 110.766 130.242C110.054 128.819 109.699 127.194 109.699 125.367C109.699 123.529 110.06 121.904 110.782 120.492C111.504 119.08 112.522 117.986 113.835 117.209C115.148 116.421 116.664 116.027 118.382 116.027C120.122 116.027 121.648 116.421 122.961 117.209C124.285 117.997 125.303 119.102 126.014 120.525C126.726 121.936 127.081 123.551 127.081 125.367C127.081 127.205 126.72 128.836 125.998 130.258C125.287 131.67 124.275 132.77 122.961 133.558C121.648 134.346 120.122 134.739 118.382 134.739ZM118.382 131.506C120.023 131.506 121.276 130.953 122.141 129.848C123.005 128.732 123.437 127.238 123.437 125.367C123.437 123.474 123.005 121.986 122.141 120.902C121.276 119.808 120.023 119.261 118.382 119.261C116.719 119.261 115.46 119.808 114.607 120.902C113.764 121.997 113.343 123.485 113.343 125.367C113.343 127.271 113.775 128.77 114.639 129.865C115.504 130.959 116.751 131.506 118.382 131.506ZM143.836 119.409C144.088 119.945 144.252 120.519 144.329 121.132C144.416 121.734 144.46 122.467 144.46 123.332V134.247H141.423V131.67C140.69 132.71 139.798 133.481 138.748 133.984C137.708 134.488 136.472 134.739 135.038 134.739C133.769 134.739 132.685 134.504 131.788 134.034C130.891 133.552 130.207 132.912 129.736 132.113C129.277 131.303 129.047 130.406 129.047 129.421C129.047 126.806 130.442 125.055 133.233 124.169C134.075 123.917 135.027 123.704 136.089 123.529C137.161 123.343 138.644 123.118 140.537 122.856L141.079 122.79C141.024 121.543 140.685 120.634 140.061 120.065C139.437 119.485 138.441 119.195 137.073 119.195C136.078 119.195 135.202 119.425 134.447 119.885C133.692 120.344 133.172 121.045 132.888 121.986L129.687 121.001C130.125 119.436 130.967 118.216 132.215 117.341C133.473 116.465 135.104 116.027 137.106 116.027C138.737 116.027 140.132 116.306 141.292 116.865C142.452 117.423 143.3 118.271 143.836 119.409ZM135.645 131.933C136.576 131.933 137.396 131.769 138.108 131.44C138.819 131.101 139.388 130.663 139.815 130.127C140.252 129.591 140.542 129.022 140.685 128.42C140.903 127.785 141.024 126.861 141.046 125.646L140.619 125.712C139.021 125.942 137.823 126.128 137.024 126.27C136.236 126.412 135.525 126.576 134.89 126.762C134.124 127.025 133.523 127.364 133.085 127.78C132.658 128.196 132.445 128.732 132.445 129.388C132.445 130.122 132.713 130.729 133.249 131.21C133.796 131.692 134.595 131.933 135.645 131.933ZM159.999 110.611H163.446V134.247H160.393V132.622C159.736 133.301 158.965 133.826 158.078 134.198C157.192 134.559 156.201 134.739 155.107 134.739C153.499 134.739 152.087 134.335 150.872 133.525C149.658 132.704 148.722 131.583 148.066 130.16C147.409 128.737 147.081 127.14 147.081 125.367C147.081 123.583 147.409 121.986 148.066 120.574C148.733 119.152 149.674 118.041 150.889 117.242C152.114 116.432 153.542 116.027 155.173 116.027C157.099 116.027 158.707 116.596 159.999 117.734V110.611ZM155.583 131.637C157.203 131.637 158.406 131.079 159.194 129.963C159.993 128.836 160.393 127.304 160.393 125.367C160.393 123.452 159.999 121.936 159.211 120.82C158.434 119.693 157.263 119.13 155.698 119.13C154.593 119.13 153.668 119.403 152.924 119.95C152.18 120.487 151.627 121.225 151.266 122.166C150.905 123.107 150.725 124.174 150.725 125.367C150.725 126.571 150.905 127.643 151.266 128.584C151.627 129.525 152.169 130.269 152.891 130.817C153.624 131.364 154.522 131.637 155.583 131.637ZM88.4593 179.247H84.9795V155.611H88.4593L100.097 173.174V155.611H103.577V179.247H100.097L88.4593 161.668V179.247ZM110.932 179.247H107.502V155.611H121.503V159.041H110.932V165.705H119.533V169.152H110.932V179.247ZM133.127 179.247H129.697V158.844H121.834V155.611H140.99V158.844H133.127V179.247Z" fill="url(#paint1_linear_1229_4666)"/>
<defs>
<radialGradient id="paint0_radial_1229_4666" cx="0" cy="0" r="1" gradientUnits="userSpaceOnUse" gradientTransform="translate(112.5 132.5) rotate(45.5457) scale(185.624 181.311)">
<stop offset="0.316162" stop-color="white"/>
<stop offset="1" stop-color="#EAF5FF"/>
</radialGradient>
<linearGradient id="paint1_linear_1229_4666" x1="112" y1="99.2471" x2="112" y2="203.763" gradientUnits="userSpaceOnUse">
<stop stop-color="#7ABFFF"/>
<stop offset="1" stop-color="#00519C"/>
</linearGradient>
</defs>
</svg>
