<svg width="554" height="208" viewBox="0 0 554 208" fill="none" xmlns="http://www.w3.org/2000/svg">
<rect width="554" height="208" fill="white"/>
<rect width="554" height="208" fill="url(#paint0_radial_1230_4667)"/>
<path d="M153.469 116H148.852L157.257 92.1249H162.597L171.014 116H166.397L160.02 97.0212H159.834L153.469 116ZM153.62 106.639H166.211V110.113H153.62V106.639ZM179.087 116.315C177.68 116.315 176.421 115.953 175.31 115.231C174.198 114.508 173.32 113.459 172.675 112.083C172.03 110.707 171.707 109.036 171.707 107.07C171.707 105.081 172.034 103.402 172.687 102.034C173.347 100.658 174.237 99.6209 175.356 98.9214C176.475 98.2142 177.723 97.8605 179.098 97.8605C180.148 97.8605 181.01 98.0393 181.686 98.3968C182.363 98.7465 182.899 99.1701 183.295 99.6675C183.692 100.157 183.999 100.62 184.216 101.055H184.391V92.1249H188.623V116H184.473V113.179H184.216C183.999 113.614 183.684 114.076 183.272 114.566C182.86 115.048 182.316 115.46 181.64 115.802C180.964 116.144 180.113 116.315 179.087 116.315ZM180.264 112.852C181.158 112.852 181.92 112.611 182.549 112.13C183.179 111.64 183.657 110.96 183.983 110.09C184.309 109.219 184.473 108.205 184.473 107.047C184.473 105.889 184.309 104.882 183.983 104.027C183.664 103.173 183.19 102.508 182.561 102.034C181.939 101.56 181.173 101.323 180.264 101.323C179.324 101.323 178.539 101.568 177.909 102.057C177.28 102.547 176.806 103.223 176.487 104.086C176.168 104.948 176.009 105.935 176.009 107.047C176.009 108.166 176.168 109.165 176.487 110.043C176.813 110.913 177.291 111.601 177.921 112.106C178.558 112.604 179.339 112.852 180.264 112.852ZM198.78 116.315C197.373 116.315 196.114 115.953 195.003 115.231C193.891 114.508 193.013 113.459 192.368 112.083C191.723 110.707 191.4 109.036 191.4 107.07C191.4 105.081 191.727 103.402 192.38 102.034C193.04 100.658 193.93 99.6209 195.049 98.9214C196.168 98.2142 197.416 97.8605 198.791 97.8605C199.841 97.8605 200.703 98.0393 201.38 98.3968C202.056 98.7465 202.592 99.1701 202.988 99.6675C203.385 100.157 203.692 100.62 203.909 101.055H204.084V92.1249H208.316V116H204.166V113.179H203.909C203.692 113.614 203.377 114.076 202.965 114.566C202.553 115.048 202.009 115.46 201.333 115.802C200.657 116.144 199.806 116.315 198.78 116.315ZM199.957 112.852C200.851 112.852 201.613 112.611 202.242 112.13C202.872 111.64 203.35 110.96 203.676 110.09C204.003 109.219 204.166 108.205 204.166 107.047C204.166 105.889 204.003 104.882 203.676 104.027C203.357 103.173 202.883 102.508 202.254 102.034C201.632 101.56 200.867 101.323 199.957 101.323C199.017 101.323 198.232 101.568 197.602 102.057C196.973 102.547 196.499 103.223 196.18 104.086C195.862 104.948 195.702 105.935 195.702 107.047C195.702 108.166 195.862 109.165 196.18 110.043C196.507 110.913 196.985 111.601 197.614 112.106C198.251 112.604 199.032 112.852 199.957 112.852ZM239.609 100.18H235.249C235.124 99.4654 234.895 98.832 234.561 98.2802C234.227 97.7206 233.811 97.2466 233.313 96.858C232.816 96.4694 232.249 96.1779 231.611 95.9836C230.982 95.7816 230.302 95.6805 229.571 95.6805C228.273 95.6805 227.123 96.0069 226.121 96.6598C225.118 97.3048 224.333 98.253 223.766 99.5043C223.198 100.748 222.915 102.267 222.915 104.062C222.915 105.889 223.198 107.428 223.766 108.679C224.341 109.922 225.126 110.863 226.121 111.5C227.123 112.13 228.27 112.444 229.56 112.444C230.275 112.444 230.943 112.351 231.565 112.165C232.194 111.97 232.758 111.687 233.255 111.314C233.76 110.941 234.184 110.482 234.526 109.938C234.876 109.394 235.117 108.772 235.249 108.073L239.609 108.096C239.445 109.231 239.092 110.295 238.548 111.29C238.012 112.285 237.308 113.163 236.438 113.925C235.567 114.679 234.549 115.269 233.383 115.697C232.218 116.117 230.924 116.326 229.501 116.326C227.403 116.326 225.53 115.841 223.882 114.869C222.235 113.898 220.937 112.495 219.989 110.661C219.041 108.827 218.566 106.627 218.566 104.062C218.566 101.49 219.044 99.2905 220 97.4642C220.956 95.63 222.258 94.2272 223.906 93.2557C225.553 92.2842 227.419 91.7985 229.501 91.7985C230.83 91.7985 232.066 91.985 233.209 92.3581C234.351 92.7311 235.369 93.279 236.263 94.0018C237.157 94.7168 237.891 95.595 238.466 96.6365C239.049 97.6701 239.43 98.8514 239.609 100.18ZM250.209 116.35C248.46 116.35 246.945 115.965 245.662 115.196C244.38 114.426 243.385 113.35 242.678 111.966C241.978 110.583 241.629 108.966 241.629 107.117C241.629 105.267 241.978 103.647 242.678 102.256C243.385 100.864 244.38 99.7841 245.662 99.0147C246.945 98.2452 248.46 97.8605 250.209 97.8605C251.957 97.8605 253.473 98.2452 254.755 99.0147C256.038 99.7841 257.029 100.864 257.728 102.256C258.435 103.647 258.789 105.267 258.789 107.117C258.789 108.966 258.435 110.583 257.728 111.966C257.029 113.35 256.038 114.426 254.755 115.196C253.473 115.965 251.957 116.35 250.209 116.35ZM250.232 112.969C251.18 112.969 251.973 112.709 252.61 112.188C253.248 111.659 253.722 110.952 254.032 110.066C254.351 109.18 254.51 108.193 254.51 107.105C254.51 106.009 254.351 105.018 254.032 104.132C253.722 103.239 253.248 102.528 252.61 101.999C251.973 101.471 251.18 101.206 250.232 101.206C249.261 101.206 248.452 101.471 247.807 101.999C247.17 102.528 246.692 103.239 246.373 104.132C246.062 105.018 245.907 106.009 245.907 107.105C245.907 108.193 246.062 109.18 246.373 110.066C246.692 110.952 247.17 111.659 247.807 112.188C248.452 112.709 249.261 112.969 250.232 112.969ZM276.771 98.0937L270.394 116H265.731L259.354 98.0937H263.854L267.97 111.395H268.156L272.283 98.0937H276.771ZM286.025 116.35C284.229 116.35 282.679 115.977 281.373 115.231C280.075 114.477 279.077 113.412 278.377 112.036C277.678 110.653 277.328 109.025 277.328 107.152C277.328 105.31 277.678 103.693 278.377 102.302C279.084 100.903 280.071 99.8151 281.338 99.038C282.605 98.253 284.093 97.8605 285.803 97.8605C286.907 97.8605 287.948 98.0393 288.928 98.3968C289.915 98.7465 290.785 99.2905 291.539 100.029C292.3 100.767 292.899 101.708 293.334 102.85C293.769 103.985 293.987 105.337 293.987 106.907V108.201H279.31V105.356H289.942C289.934 104.548 289.759 103.829 289.417 103.2C289.075 102.562 288.597 102.061 287.983 101.696C287.377 101.331 286.67 101.148 285.862 101.148C284.999 101.148 284.241 101.358 283.588 101.778C282.935 102.189 282.426 102.733 282.061 103.41C281.704 104.078 281.521 104.812 281.513 105.613V108.096C281.513 109.137 281.704 110.031 282.084 110.777C282.465 111.516 282.998 112.083 283.682 112.479C284.365 112.868 285.166 113.062 286.083 113.062C286.697 113.062 287.253 112.977 287.75 112.806C288.247 112.627 288.679 112.367 289.044 112.025C289.409 111.683 289.685 111.259 289.872 110.754L293.812 111.197C293.563 112.238 293.089 113.148 292.39 113.925C291.698 114.694 290.812 115.293 289.732 115.72C288.652 116.14 287.416 116.35 286.025 116.35ZM296.572 116V98.0937H300.664V101.078H300.851C301.177 100.044 301.737 99.2478 302.529 98.6882C303.33 98.1209 304.243 97.8372 305.269 97.8372C305.502 97.8372 305.763 97.8489 306.05 97.8722C306.345 97.8877 306.59 97.9149 306.785 97.9538V101.836C306.606 101.774 306.322 101.719 305.933 101.673C305.553 101.618 305.184 101.591 304.826 101.591C304.057 101.591 303.365 101.758 302.751 102.092C302.145 102.419 301.667 102.873 301.317 103.456C300.967 104.039 300.792 104.711 300.792 105.473V116H296.572ZM320.273 92.1249V116H315.948V92.1249H320.273ZM323.785 116V98.0937H327.819V101.136H328.029C328.402 100.11 329.019 99.31 329.882 98.7349C330.745 98.152 331.775 97.8605 332.971 97.8605C334.184 97.8605 335.206 98.1559 336.037 98.7465C336.877 99.3294 337.467 100.126 337.809 101.136H337.996C338.392 100.142 339.061 99.3488 340.001 98.7582C340.949 98.1597 342.072 97.8605 343.37 97.8605C345.018 97.8605 346.362 98.3812 347.404 99.4227C348.445 100.464 348.966 101.983 348.966 103.981V116H344.734V104.634C344.734 103.522 344.439 102.71 343.848 102.197C343.257 101.677 342.535 101.416 341.68 101.416C340.662 101.416 339.865 101.735 339.29 102.372C338.723 103.002 338.439 103.822 338.439 104.832V116H334.3V104.459C334.3 103.534 334.021 102.796 333.461 102.244C332.909 101.692 332.186 101.416 331.293 101.416C330.687 101.416 330.135 101.572 329.637 101.882C329.14 102.186 328.744 102.617 328.448 103.176C328.153 103.728 328.005 104.373 328.005 105.112V116H323.785ZM357.415 116.361C356.28 116.361 355.258 116.159 354.349 115.755C353.448 115.343 352.733 114.737 352.204 113.937C351.683 113.136 351.423 112.149 351.423 110.976C351.423 109.965 351.61 109.13 351.983 108.469C352.356 107.808 352.865 107.28 353.51 106.884C354.155 106.487 354.881 106.188 355.69 105.986C356.506 105.776 357.349 105.625 358.219 105.531C359.269 105.423 360.12 105.325 360.773 105.24C361.425 105.147 361.899 105.007 362.195 104.82C362.498 104.626 362.649 104.327 362.649 103.923V103.853C362.649 102.974 362.389 102.294 361.868 101.813C361.348 101.331 360.598 101.09 359.618 101.09C358.585 101.09 357.765 101.315 357.159 101.766C356.56 102.217 356.156 102.749 355.946 103.363L352.006 102.803C352.317 101.715 352.83 100.806 353.545 100.076C354.26 99.3372 355.134 98.7854 356.168 98.4201C357.201 98.0471 358.344 97.8605 359.595 97.8605C360.458 97.8605 361.317 97.9616 362.171 98.1636C363.026 98.3657 363.807 98.6999 364.515 99.1662C365.222 99.6247 365.789 100.25 366.217 101.043C366.652 101.836 366.87 102.827 366.87 104.016V116H362.813V113.54H362.673C362.416 114.038 362.055 114.504 361.589 114.939C361.13 115.367 360.551 115.712 359.852 115.977C359.16 116.233 358.348 116.361 357.415 116.361ZM358.511 113.26C359.358 113.26 360.092 113.093 360.714 112.759C361.336 112.417 361.814 111.966 362.148 111.407C362.49 110.847 362.661 110.237 362.661 109.577V107.467C362.529 107.575 362.304 107.676 361.985 107.77C361.674 107.863 361.324 107.944 360.936 108.014C360.547 108.084 360.162 108.147 359.782 108.201C359.401 108.255 359.07 108.302 358.791 108.341C358.161 108.426 357.598 108.566 357.1 108.761C356.603 108.955 356.21 109.227 355.923 109.577C355.635 109.919 355.492 110.362 355.492 110.906C355.492 111.683 355.775 112.27 356.343 112.666C356.91 113.062 357.633 113.26 358.511 113.26ZM377.915 123.088C376.4 123.088 375.098 122.882 374.01 122.47C372.922 122.066 372.048 121.522 371.387 120.838C370.727 120.154 370.268 119.396 370.012 118.565L373.812 117.644C373.983 117.993 374.232 118.339 374.558 118.681C374.884 119.031 375.324 119.319 375.875 119.544C376.435 119.777 377.138 119.894 377.985 119.894C379.182 119.894 380.173 119.602 380.958 119.019C381.743 118.444 382.136 117.496 382.136 116.175V112.782H381.926C381.708 113.218 381.389 113.665 380.97 114.123C380.558 114.582 380.01 114.966 379.326 115.277C378.65 115.588 377.799 115.744 376.773 115.744C375.397 115.744 374.15 115.421 373.031 114.776C371.919 114.123 371.034 113.152 370.373 111.861C369.72 110.564 369.394 108.939 369.394 106.989C369.394 105.022 369.72 103.363 370.373 102.011C371.034 100.651 371.923 99.6209 373.043 98.9214C374.162 98.2142 375.409 97.8605 376.785 97.8605C377.834 97.8605 378.697 98.0393 379.373 98.3968C380.057 98.7465 380.601 99.1701 381.005 99.6675C381.409 100.157 381.716 100.62 381.926 101.055H382.159V98.0937H386.321V116.291C386.321 117.822 385.955 119.089 385.225 120.092C384.494 121.094 383.496 121.844 382.229 122.342C380.962 122.839 379.524 123.088 377.915 123.088ZM377.95 112.433C378.844 112.433 379.606 112.215 380.235 111.78C380.865 111.345 381.343 110.719 381.669 109.903C381.996 109.087 382.159 108.108 382.159 106.965C382.159 105.838 381.996 104.851 381.669 104.004C381.351 103.157 380.877 102.5 380.247 102.034C379.625 101.56 378.86 101.323 377.95 101.323C377.01 101.323 376.225 101.568 375.596 102.057C374.966 102.547 374.492 103.219 374.173 104.074C373.855 104.921 373.695 105.885 373.695 106.965C373.695 108.061 373.855 109.021 374.173 109.845C374.5 110.661 374.978 111.298 375.607 111.757C376.245 112.207 377.026 112.433 377.95 112.433ZM397.588 116.35C395.793 116.35 394.242 115.977 392.937 115.231C391.639 114.477 390.64 113.412 389.941 112.036C389.241 110.653 388.891 109.025 388.891 107.152C388.891 105.31 389.241 103.693 389.941 102.302C390.648 100.903 391.635 99.8151 392.902 99.038C394.169 98.253 395.657 97.8605 397.367 97.8605C398.47 97.8605 399.512 98.0393 400.491 98.3968C401.478 98.7465 402.348 99.2905 403.102 100.029C403.864 100.767 404.462 101.708 404.898 102.85C405.333 103.985 405.55 105.337 405.55 106.907V108.201H390.873V105.356H401.505C401.497 104.548 401.323 103.829 400.981 103.2C400.639 102.562 400.161 102.061 399.547 101.696C398.94 101.331 398.233 101.148 397.425 101.148C396.562 101.148 395.805 101.358 395.152 101.778C394.499 102.189 393.99 102.733 393.625 103.41C393.267 104.078 393.084 104.812 393.077 105.613V108.096C393.077 109.137 393.267 110.031 393.648 110.777C394.029 111.516 394.561 112.083 395.245 112.479C395.929 112.868 396.729 113.062 397.646 113.062C398.26 113.062 398.816 112.977 399.314 112.806C399.811 112.627 400.242 112.367 400.608 112.025C400.973 111.683 401.249 111.259 401.435 110.754L405.376 111.197C405.127 112.238 404.653 113.148 403.953 113.925C403.262 114.694 402.376 115.293 401.295 115.72C400.215 116.14 398.979 116.35 397.588 116.35Z" fill="url(#paint1_linear_1230_4667)"/>
<defs>
<radialGradient id="paint0_radial_1230_4667" cx="0" cy="0" r="1" gradientUnits="userSpaceOnUse" gradientTransform="translate(277 104) rotate(17.9995) scale(336.56 193.259)">
<stop offset="0.316162" stop-color="white"/>
<stop offset="1" stop-color="#EAF5FF"/>
</radialGradient>
<linearGradient id="paint1_linear_1230_4667" x1="277.5" y1="84" x2="277.5" y2="130.452" gradientUnits="userSpaceOnUse">
<stop stop-color="#7ABFFF"/>
<stop offset="1" stop-color="#00519C"/>
</linearGradient>
</defs>
</svg>
