<svg width="554" height="208" viewBox="0 0 554 208" fill="none" xmlns="http://www.w3.org/2000/svg">
<rect width="554" height="208" fill="white"/>
<rect width="554" height="208" fill="url(#paint0_radial_1230_4667)"/>
<path d="M171.439 119H167.877L166.121 113.665H156.42L154.697 119H151.135L158.817 95.3637H163.757L171.439 119ZM161.246 98.7942L157.471 110.448H165.071L161.246 98.7942ZM185.661 95.3637H189.108V119H186.055V117.375C185.398 118.053 184.626 118.579 183.74 118.951C182.854 119.312 181.863 119.492 180.769 119.492C179.161 119.492 177.749 119.088 176.534 118.278C175.32 117.457 174.384 116.335 173.728 114.913C173.071 113.49 172.743 111.893 172.743 110.12C172.743 108.336 173.071 106.739 173.728 105.327C174.395 103.904 175.336 102.794 176.551 101.995C177.776 101.185 179.204 100.78 180.835 100.78C182.761 100.78 184.369 101.349 185.661 102.487V95.3637ZM181.245 116.39C182.865 116.39 184.068 115.832 184.856 114.716C185.655 113.589 186.055 112.057 186.055 110.12C186.055 108.205 185.661 106.689 184.873 105.573C184.096 104.446 182.925 103.883 181.36 103.883C180.255 103.883 179.33 104.156 178.586 104.703C177.842 105.239 177.289 105.978 176.928 106.919C176.567 107.86 176.387 108.927 176.387 110.12C176.387 111.324 176.567 112.396 176.928 113.337C177.289 114.278 177.831 115.022 178.553 115.569C179.286 116.117 180.184 116.39 181.245 116.39ZM204.977 95.3637H208.424V119H205.371V117.375C204.714 118.053 203.943 118.579 203.056 118.951C202.17 119.312 201.18 119.492 200.085 119.492C198.477 119.492 197.065 119.088 195.85 118.278C194.636 117.457 193.7 116.335 193.044 114.913C192.387 113.49 192.059 111.893 192.059 110.12C192.059 108.336 192.387 106.739 193.044 105.327C193.711 103.904 194.652 102.794 195.867 101.995C197.092 101.185 198.52 100.78 200.151 100.78C202.077 100.78 203.685 101.349 204.977 102.487V95.3637ZM200.561 116.39C202.181 116.39 203.384 115.832 204.172 114.716C204.971 113.589 205.371 112.057 205.371 110.12C205.371 108.205 204.977 106.689 204.189 105.573C203.412 104.446 202.241 103.883 200.676 103.883C199.571 103.883 198.646 104.156 197.902 104.703C197.158 105.239 196.605 105.978 196.244 106.919C195.883 107.86 195.703 108.927 195.703 110.12C195.703 111.324 195.883 112.396 196.244 113.337C196.605 114.278 197.147 115.022 197.869 115.569C198.603 116.117 199.5 116.39 200.561 116.39ZM228.14 119.492C225.82 119.492 223.818 118.978 222.132 117.949C220.447 116.921 219.162 115.482 218.275 113.633C217.4 111.772 216.962 109.622 216.962 107.182C216.962 104.742 217.4 102.597 218.275 100.747C219.162 98.8872 220.447 97.4428 222.132 96.4142C223.818 95.3856 225.82 94.8712 228.14 94.8712C229.924 94.8712 231.521 95.1831 232.933 95.8068C234.356 96.4196 235.543 97.3005 236.495 98.4495C237.458 99.5876 238.175 100.939 238.645 102.504L235.165 103.439C234.684 101.754 233.852 100.452 232.67 99.5329C231.489 98.6027 229.978 98.1377 228.14 98.1377C226.488 98.1377 225.098 98.5152 223.971 99.2702C222.844 100.025 221.996 101.087 221.427 102.455C220.869 103.822 220.59 105.431 220.59 107.28C220.59 109.086 220.874 110.662 221.443 112.008C222.012 113.343 222.86 114.382 223.987 115.126C225.125 115.859 226.51 116.226 228.14 116.226C229.978 116.226 231.489 115.766 232.67 114.847C233.852 113.917 234.684 112.609 235.165 110.924L238.645 111.86C238.175 113.425 237.458 114.782 236.495 115.931C235.543 117.069 234.356 117.949 232.933 118.573C231.521 119.186 229.924 119.492 228.14 119.492ZM249.297 119.492C247.557 119.492 246.03 119.098 244.717 118.311C243.404 117.512 242.392 116.407 241.681 114.995C240.969 113.572 240.614 111.947 240.614 110.12C240.614 108.282 240.975 106.657 241.697 105.245C242.419 103.833 243.437 102.739 244.75 101.962C246.063 101.174 247.579 100.78 249.297 100.78C251.037 100.78 252.563 101.174 253.876 101.962C255.2 102.75 256.218 103.855 256.929 105.278C257.641 106.689 257.996 108.303 257.996 110.12C257.996 111.958 257.635 113.589 256.913 115.011C256.202 116.423 255.189 117.523 253.876 118.311C252.563 119.098 251.037 119.492 249.297 119.492ZM249.297 116.259C250.938 116.259 252.191 115.706 253.056 114.601C253.92 113.485 254.352 111.991 254.352 110.12C254.352 108.227 253.92 106.739 253.056 105.655C252.191 104.561 250.938 104.014 249.297 104.014C247.634 104.014 246.375 104.561 245.522 105.655C244.679 106.75 244.258 108.238 244.258 110.12C244.258 112.024 244.69 113.523 245.554 114.617C246.419 115.712 247.666 116.259 249.297 116.259ZM268.578 119H265.098L258.664 101.273H262.128L266.838 114.7L271.549 101.273H275.013L268.578 119ZM279.364 111.105C279.506 112.757 280.004 114.032 280.858 114.929C281.711 115.816 282.882 116.259 284.37 116.259C285.432 116.259 286.357 116.018 287.144 115.537C287.932 115.055 288.545 114.355 288.983 113.436L292.348 114.503C291.669 116.067 290.63 117.293 289.229 118.179C287.828 119.055 286.264 119.492 284.535 119.492C282.784 119.492 281.241 119.109 279.906 118.343C278.571 117.567 277.531 116.483 276.787 115.093C276.054 113.693 275.687 112.09 275.687 110.284C275.687 108.369 276.049 106.695 276.771 105.261C277.493 103.828 278.511 102.723 279.824 101.946C281.137 101.169 282.652 100.78 284.37 100.78C286.067 100.78 287.533 101.158 288.769 101.913C290.006 102.668 290.953 103.751 291.609 105.163C292.277 106.564 292.61 108.221 292.61 110.136C292.61 110.344 292.599 110.667 292.578 111.105H279.364ZM284.502 103.817C283.046 103.817 281.892 104.211 281.038 104.999C280.196 105.776 279.665 106.919 279.446 108.429H289.065C288.879 106.864 288.408 105.705 287.653 104.95C286.909 104.194 285.859 103.817 284.502 103.817ZM300.298 102.274C300.79 101.902 301.36 101.623 302.005 101.437C302.651 101.251 303.307 101.158 303.975 101.158C304.336 101.158 304.735 101.196 305.173 101.273V104.49C304.801 104.38 304.369 104.326 303.876 104.326C303.417 104.326 302.963 104.386 302.514 104.506C302.076 104.616 301.671 104.791 301.299 105.032C299.811 105.984 299.067 107.658 299.067 110.054V119H295.604V101.273H298.657V104.096C299.094 103.319 299.641 102.712 300.298 102.274ZM317.317 119H313.886V95.3637H317.317V119ZM340.252 100.83C341.5 100.83 342.577 101.092 343.486 101.617C344.394 102.132 345.083 102.865 345.554 103.817C346.035 104.758 346.276 105.863 346.276 107.133L346.26 119H342.829L342.846 107.953C342.846 107.122 342.698 106.399 342.402 105.787C342.107 105.174 341.686 104.703 341.138 104.375C340.602 104.047 339.979 103.883 339.267 103.883C338.6 103.883 337.992 104.036 337.445 104.342C336.898 104.649 336.46 105.108 336.132 105.721C335.815 106.323 335.656 107.056 335.656 107.92L335.64 119H332.209L332.226 108.019C332.226 107.176 332.078 106.443 331.782 105.819C331.487 105.196 331.066 104.72 330.519 104.391C329.982 104.052 329.353 103.883 328.631 103.883C327.92 103.883 327.29 104.052 326.743 104.391C326.196 104.731 325.769 105.207 325.463 105.819C325.167 106.421 325.02 107.122 325.02 107.92V119H321.573V101.273H324.626V103.177C325.206 102.444 325.933 101.869 326.809 101.453C327.695 101.037 328.664 100.83 329.714 100.83C330.918 100.83 331.957 101.081 332.833 101.585C333.708 102.088 334.387 102.794 334.868 103.702C335.415 102.805 336.159 102.104 337.101 101.601C338.053 101.087 339.103 100.83 340.252 100.83ZM363.686 104.162C363.938 104.698 364.102 105.272 364.178 105.885C364.266 106.487 364.31 107.22 364.31 108.085V119H361.273V116.423C360.54 117.463 359.648 118.234 358.598 118.737C357.558 119.241 356.322 119.492 354.888 119.492C353.619 119.492 352.535 119.257 351.638 118.787C350.741 118.305 350.057 117.665 349.586 116.866C349.127 116.056 348.897 115.159 348.897 114.174C348.897 111.559 350.292 109.808 353.083 108.922C353.925 108.67 354.877 108.457 355.939 108.282C357.011 108.096 358.494 107.871 360.387 107.609L360.928 107.543C360.874 106.295 360.535 105.387 359.911 104.818C359.287 104.238 358.291 103.948 356.923 103.948C355.928 103.948 355.052 104.178 354.297 104.638C353.542 105.097 353.022 105.798 352.738 106.739L349.537 105.754C349.975 104.189 350.817 102.969 352.065 102.093C353.323 101.218 354.954 100.78 356.956 100.78C358.587 100.78 359.982 101.059 361.142 101.617C362.302 102.176 363.15 103.024 363.686 104.162ZM355.495 116.686C356.426 116.686 357.246 116.521 357.958 116.193C358.669 115.854 359.238 115.416 359.665 114.88C360.102 114.344 360.392 113.775 360.535 113.173C360.753 112.538 360.874 111.614 360.896 110.399L360.469 110.465C358.871 110.694 357.673 110.88 356.874 111.023C356.086 111.165 355.375 111.329 354.74 111.515C353.974 111.778 353.373 112.117 352.935 112.533C352.508 112.949 352.295 113.485 352.295 114.141C352.295 114.875 352.563 115.482 353.099 115.963C353.646 116.445 354.445 116.686 355.495 116.686ZM380.243 101.273H383.279V119.476C383.279 120.516 383.203 121.391 383.049 122.102C382.688 123.853 381.824 125.166 380.456 126.042C379.088 126.928 377.343 127.371 375.22 127.371C373.753 127.371 372.391 127.032 371.133 126.354C369.885 125.686 368.906 124.734 368.195 123.497L371.362 121.889C371.735 122.611 372.265 123.153 372.955 123.514C373.655 123.886 374.421 124.072 375.253 124.072C376.73 124.072 377.868 123.678 378.667 122.89C379.466 122.102 379.854 120.953 379.832 119.443V117.769C378.53 118.918 376.905 119.492 374.957 119.492C373.349 119.492 371.937 119.088 370.722 118.278C369.508 117.457 368.572 116.335 367.916 114.913C367.259 113.49 366.931 111.893 366.931 110.12C366.931 108.336 367.259 106.739 367.916 105.327C368.583 103.904 369.524 102.794 370.739 101.995C371.964 101.185 373.392 100.78 375.023 100.78C376.106 100.78 377.086 100.961 377.961 101.322C378.836 101.683 379.597 102.197 380.243 102.865V101.273ZM375.433 116.39C377.053 116.39 378.256 115.832 379.044 114.716C379.843 113.589 380.243 112.057 380.243 110.12C380.243 108.205 379.849 106.689 379.061 105.573C378.284 104.446 377.113 103.883 375.548 103.883C374.443 103.883 373.518 104.156 372.774 104.703C372.03 105.239 371.477 105.978 371.116 106.919C370.755 107.86 370.575 108.927 370.575 110.12C370.575 111.324 370.755 112.396 371.116 113.337C371.477 114.278 372.019 115.022 372.741 115.569C373.474 116.117 374.372 116.39 375.433 116.39ZM389.924 111.105C390.066 112.757 390.564 114.032 391.417 114.929C392.271 115.816 393.442 116.259 394.93 116.259C395.991 116.259 396.916 116.018 397.704 115.537C398.492 115.055 399.104 114.355 399.542 113.436L402.907 114.503C402.229 116.067 401.189 117.293 399.788 118.179C398.388 119.055 396.823 119.492 395.094 119.492C393.343 119.492 391.8 119.109 390.465 118.343C389.13 117.567 388.091 116.483 387.346 115.093C386.613 113.693 386.247 112.09 386.247 110.284C386.247 108.369 386.608 106.695 387.33 105.261C388.052 103.828 389.07 102.723 390.383 101.946C391.696 101.169 393.212 100.78 394.93 100.78C396.626 100.78 398.092 101.158 399.329 101.913C400.565 102.668 401.512 103.751 402.168 105.163C402.836 106.564 403.17 108.221 403.17 110.136C403.17 110.344 403.159 110.667 403.137 111.105H389.924ZM395.061 103.817C393.606 103.817 392.451 104.211 391.598 104.999C390.755 105.776 390.224 106.919 390.006 108.429H399.624C399.438 106.864 398.968 105.705 398.213 104.95C397.469 104.194 396.418 103.817 395.061 103.817Z" fill="url(#paint1_linear_1230_4667)"/>
<defs>
<radialGradient id="paint0_radial_1230_4667" cx="0" cy="0" r="1" gradientUnits="userSpaceOnUse" gradientTransform="translate(277 104) rotate(17.9995) scale(336.56 193.259)">
<stop offset="0.316162" stop-color="white"/>
<stop offset="1" stop-color="#EAF5FF"/>
</radialGradient>
<linearGradient id="paint1_linear_1230_4667" x1="277.5" y1="84" x2="277.5" y2="136.258" gradientUnits="userSpaceOnUse">
<stop stop-color="#7ABFFF"/>
<stop offset="1" stop-color="#00519C"/>
</linearGradient>
</defs>
</svg>
