<svg width="554" height="208" viewBox="0 0 554 208" fill="none" xmlns="http://www.w3.org/2000/svg">
<rect width="554" height="208" fill="white"/>
<rect width="554" height="208" fill="url(#paint0_radial_1230_4667)"/>
<path d="M151.028 116H147.204L155.796 92.1249H159.957L168.549 116H164.725L157.976 96.4616H157.789L151.028 116ZM151.669 106.65H164.073V109.681H151.669V106.65ZM177.475 116.35C176.03 116.35 174.74 115.981 173.605 115.242C172.478 114.496 171.592 113.435 170.947 112.06C170.31 110.676 169.991 109.017 169.991 107.082C169.991 105.147 170.314 103.491 170.959 102.116C171.611 100.74 172.505 99.6869 173.64 98.9564C174.775 98.2258 176.061 97.8605 177.499 97.8605C178.61 97.8605 179.504 98.0471 180.18 98.4201C180.864 98.7854 181.392 99.2128 181.765 99.7025C182.146 100.192 182.442 100.623 182.651 100.996H182.861V92.1249H186.347V116H182.943V113.214H182.651C182.442 113.595 182.138 114.03 181.742 114.519C181.353 115.009 180.817 115.437 180.133 115.802C179.449 116.167 178.563 116.35 177.475 116.35ZM178.245 113.377C179.247 113.377 180.094 113.113 180.786 112.584C181.486 112.048 182.014 111.306 182.372 110.358C182.737 109.409 182.92 108.306 182.92 107.047C182.92 105.803 182.741 104.715 182.383 103.783C182.026 102.85 181.501 102.123 180.809 101.603C180.118 101.082 179.263 100.822 178.245 100.822C177.196 100.822 176.321 101.094 175.622 101.638C174.922 102.182 174.394 102.924 174.036 103.864C173.687 104.805 173.512 105.866 173.512 107.047C173.512 108.244 173.69 109.32 174.048 110.276C174.405 111.232 174.934 111.99 175.633 112.549C176.341 113.101 177.211 113.377 178.245 113.377ZM197.368 116.35C195.923 116.35 194.633 115.981 193.498 115.242C192.371 114.496 191.485 113.435 190.84 112.06C190.203 110.676 189.884 109.017 189.884 107.082C189.884 105.147 190.207 103.491 190.852 102.116C191.505 100.74 192.398 99.6869 193.533 98.9564C194.668 98.2258 195.954 97.8605 197.392 97.8605C198.503 97.8605 199.397 98.0471 200.073 98.4201C200.757 98.7854 201.285 99.2128 201.659 99.7025C202.039 100.192 202.335 100.623 202.545 100.996H202.754V92.1249H206.24V116H202.836V113.214H202.545C202.335 113.595 202.032 114.03 201.635 114.519C201.247 115.009 200.71 115.437 200.026 115.802C199.343 116.167 198.457 116.35 197.368 116.35ZM198.138 113.377C199.14 113.377 199.988 113.113 200.679 112.584C201.379 112.048 201.907 111.306 202.265 110.358C202.63 109.409 202.813 108.306 202.813 107.047C202.813 105.803 202.634 104.715 202.276 103.783C201.919 102.85 201.394 102.123 200.703 101.603C200.011 101.082 199.156 100.822 198.138 100.822C197.089 100.822 196.214 101.094 195.515 101.638C194.815 102.182 194.287 102.924 193.929 103.864C193.58 104.805 193.405 105.866 193.405 107.047C193.405 108.244 193.584 109.32 193.941 110.276C194.299 111.232 194.827 111.99 195.527 112.549C196.234 113.101 197.104 113.377 198.138 113.377ZM238.699 99.889H235.062C234.922 99.1118 234.662 98.4279 234.281 97.8372C233.9 97.2466 233.434 96.7453 232.882 96.3334C232.33 95.9215 231.713 95.6106 231.029 95.4007C230.352 95.1909 229.634 95.086 228.872 95.086C227.496 95.086 226.264 95.4318 225.176 96.1235C224.096 96.8152 223.241 97.8294 222.612 99.1662C221.99 100.503 221.679 102.135 221.679 104.062C221.679 106.005 221.99 107.645 222.612 108.982C223.241 110.319 224.1 111.329 225.188 112.013C226.276 112.697 227.5 113.039 228.86 113.039C229.614 113.039 230.329 112.938 231.005 112.736C231.689 112.526 232.307 112.219 232.859 111.815C233.411 111.411 233.877 110.917 234.258 110.334C234.646 109.744 234.915 109.068 235.062 108.306L238.699 108.318C238.505 109.491 238.128 110.571 237.569 111.558C237.017 112.538 236.306 113.385 235.435 114.1C234.573 114.807 233.586 115.355 232.474 115.744C231.363 116.132 230.15 116.326 228.837 116.326C226.77 116.326 224.928 115.837 223.311 114.858C221.695 113.871 220.42 112.46 219.487 110.626C218.563 108.792 218.1 106.604 218.1 104.062C218.1 101.513 218.566 99.3255 219.499 97.4991C220.432 95.665 221.706 94.2583 223.323 93.279C224.939 92.292 226.777 91.7985 228.837 91.7985C230.104 91.7985 231.285 91.9811 232.381 92.3464C233.485 92.7039 234.475 93.2324 235.354 93.9319C236.232 94.6236 236.959 95.4707 237.534 96.4733C238.109 97.4681 238.497 98.6066 238.699 99.889ZM249.616 116.361C247.937 116.361 246.472 115.977 245.221 115.207C243.97 114.438 242.998 113.361 242.307 111.978C241.615 110.595 241.269 108.978 241.269 107.128C241.269 105.271 241.615 103.647 242.307 102.256C242.998 100.864 243.97 99.7841 245.221 99.0147C246.472 98.2452 247.937 97.8605 249.616 97.8605C251.295 97.8605 252.76 98.2452 254.011 99.0147C255.262 99.7841 256.234 100.864 256.926 102.256C257.617 103.647 257.963 105.271 257.963 107.128C257.963 108.978 257.617 110.595 256.926 111.978C256.234 113.361 255.262 114.438 254.011 115.207C252.76 115.977 251.295 116.361 249.616 116.361ZM249.628 113.435C250.716 113.435 251.617 113.148 252.332 112.573C253.047 111.998 253.576 111.232 253.918 110.276C254.268 109.32 254.442 108.267 254.442 107.117C254.442 105.974 254.268 104.925 253.918 103.969C253.576 103.005 253.047 102.232 252.332 101.649C251.617 101.066 250.716 100.775 249.628 100.775C248.532 100.775 247.623 101.066 246.9 101.649C246.185 102.232 245.652 103.005 245.303 103.969C244.961 104.925 244.79 105.974 244.79 107.117C244.79 108.267 244.961 109.32 245.303 110.276C245.652 111.232 246.185 111.998 246.9 112.573C247.623 113.148 248.532 113.435 249.628 113.435ZM275.906 98.0937L269.413 116H265.683L259.178 98.0937H262.92L267.455 111.873H267.641L272.164 98.0937H275.906ZM285.634 116.361C283.87 116.361 282.35 115.984 281.076 115.231C279.809 114.469 278.83 113.4 278.138 112.025C277.454 110.641 277.112 109.021 277.112 107.163C277.112 105.329 277.454 103.713 278.138 102.314C278.83 100.915 279.793 99.8229 281.029 99.038C282.273 98.253 283.726 97.8605 285.389 97.8605C286.4 97.8605 287.379 98.0276 288.327 98.3618C289.275 98.696 290.126 99.2206 290.88 99.9356C291.634 100.651 292.228 101.579 292.664 102.722C293.099 103.857 293.316 105.236 293.316 106.86V108.096H279.082V105.485H289.901C289.901 104.568 289.714 103.755 289.341 103.048C288.968 102.333 288.444 101.77 287.767 101.358C287.099 100.946 286.314 100.74 285.413 100.74C284.433 100.74 283.578 100.981 282.848 101.463C282.125 101.937 281.565 102.559 281.169 103.328C280.781 104.09 280.586 104.917 280.586 105.811V107.851C280.586 109.048 280.796 110.066 281.216 110.906C281.643 111.745 282.238 112.386 282.999 112.829C283.761 113.264 284.651 113.482 285.669 113.482C286.33 113.482 286.932 113.389 287.476 113.202C288.02 113.008 288.49 112.72 288.887 112.339C289.283 111.959 289.586 111.488 289.796 110.929L293.095 111.523C292.831 112.495 292.357 113.346 291.673 114.076C290.997 114.799 290.146 115.363 289.12 115.767C288.102 116.163 286.94 116.361 285.634 116.361ZM296.527 116V98.0937H299.896V100.938H300.083C300.409 99.9745 300.985 99.2167 301.808 98.6649C302.64 98.1053 303.58 97.8256 304.63 97.8256C304.847 97.8256 305.104 97.8333 305.399 97.8489C305.702 97.8644 305.939 97.8838 306.11 97.9072V101.241C305.97 101.202 305.721 101.16 305.364 101.113C305.006 101.059 304.649 101.031 304.291 101.031C303.468 101.031 302.733 101.206 302.088 101.556C301.451 101.898 300.946 102.376 300.573 102.99C300.2 103.596 300.013 104.288 300.013 105.065V116H296.527ZM320.383 92.1249V116H316.781V92.1249H320.383ZM324.693 116V98.0937H328.039V101.008H328.26C328.633 100.021 329.243 99.2517 330.091 98.6999C330.938 98.1403 331.952 97.8605 333.133 97.8605C334.33 97.8605 335.333 98.1403 336.141 98.6999C336.957 99.2595 337.559 100.029 337.948 101.008H338.134C338.562 100.052 339.242 99.2905 340.174 98.7232C341.107 98.1481 342.218 97.8605 343.509 97.8605C345.133 97.8605 346.458 98.3696 347.484 99.3877C348.518 100.406 349.034 101.941 349.034 103.993V116H345.549V104.319C345.549 103.107 345.218 102.228 344.558 101.684C343.897 101.14 343.108 100.868 342.191 100.868C341.057 100.868 340.174 101.218 339.545 101.917C338.915 102.609 338.601 103.499 338.601 104.587V116H335.127V104.097C335.127 103.126 334.824 102.345 334.217 101.754C333.611 101.164 332.822 100.868 331.851 100.868C331.19 100.868 330.58 101.043 330.021 101.393C329.469 101.735 329.022 102.213 328.68 102.827C328.346 103.441 328.179 104.152 328.179 104.96V116H324.693ZM358.261 116.396C357.126 116.396 356.1 116.187 355.183 115.767C354.266 115.339 353.539 114.722 353.003 113.913C352.475 113.105 352.21 112.114 352.21 110.941C352.21 109.93 352.405 109.099 352.793 108.446C353.182 107.793 353.706 107.276 354.367 106.895C355.028 106.514 355.766 106.227 356.582 106.033C357.398 105.838 358.23 105.691 359.077 105.59C360.149 105.465 361.02 105.364 361.688 105.287C362.356 105.201 362.842 105.065 363.145 104.879C363.448 104.692 363.6 104.389 363.6 103.969V103.888C363.6 102.869 363.312 102.081 362.737 101.521C362.17 100.961 361.323 100.682 360.196 100.682C359.022 100.682 358.097 100.942 357.421 101.463C356.753 101.976 356.291 102.547 356.034 103.176L352.758 102.43C353.147 101.342 353.714 100.464 354.46 99.7957C355.214 99.1196 356.081 98.6299 357.06 98.3268C358.039 98.016 359.069 97.8605 360.149 97.8605C360.864 97.8605 361.622 97.946 362.422 98.117C363.231 98.2802 363.985 98.5833 364.684 99.0263C365.391 99.4693 365.97 100.103 366.421 100.927C366.872 101.743 367.097 102.803 367.097 104.109V116H363.693V113.552H363.553C363.328 114.003 362.99 114.446 362.539 114.881C362.088 115.316 361.509 115.677 360.802 115.965C360.095 116.253 359.248 116.396 358.261 116.396ZM359.018 113.599C359.982 113.599 360.806 113.408 361.49 113.027C362.182 112.646 362.706 112.149 363.064 111.535C363.429 110.913 363.612 110.249 363.612 109.542V107.233C363.487 107.358 363.246 107.474 362.889 107.583C362.539 107.684 362.139 107.774 361.688 107.851C361.237 107.921 360.798 107.987 360.371 108.049C359.943 108.104 359.586 108.15 359.298 108.189C358.622 108.275 358.004 108.419 357.445 108.621C356.893 108.823 356.45 109.114 356.116 109.495C355.789 109.868 355.626 110.365 355.626 110.987C355.626 111.85 355.945 112.503 356.582 112.946C357.219 113.381 358.031 113.599 359.018 113.599ZM378.591 123.088C377.169 123.088 375.945 122.901 374.919 122.528C373.901 122.155 373.069 121.662 372.424 121.048C371.779 120.434 371.297 119.762 370.978 119.031L373.975 117.795C374.184 118.137 374.464 118.499 374.814 118.879C375.171 119.268 375.653 119.598 376.259 119.87C376.873 120.142 377.662 120.278 378.626 120.278C379.947 120.278 381.039 119.956 381.902 119.311C382.764 118.674 383.196 117.655 383.196 116.256V112.736H382.974C382.764 113.117 382.461 113.54 382.065 114.007C381.676 114.473 381.14 114.877 380.456 115.219C379.772 115.561 378.882 115.732 377.787 115.732C376.372 115.732 375.098 115.402 373.963 114.741C372.836 114.073 371.942 113.089 371.282 111.792C370.629 110.486 370.302 108.881 370.302 106.977C370.302 105.073 370.625 103.441 371.27 102.081C371.923 100.721 372.817 99.6791 373.951 98.9564C375.086 98.2258 376.372 97.8605 377.81 97.8605C378.921 97.8605 379.819 98.0471 380.503 98.4201C381.187 98.7854 381.719 99.2128 382.1 99.7025C382.489 100.192 382.788 100.623 382.998 100.996H383.254V98.0937H386.67V116.396C386.67 117.935 386.312 119.198 385.597 120.185C384.882 121.172 383.915 121.903 382.695 122.377C381.482 122.851 380.114 123.088 378.591 123.088ZM378.556 112.841C379.559 112.841 380.406 112.608 381.097 112.141C381.797 111.667 382.325 110.991 382.683 110.113C383.048 109.227 383.231 108.166 383.231 106.93C383.231 105.726 383.052 104.665 382.695 103.748C382.337 102.831 381.812 102.116 381.121 101.603C380.429 101.082 379.574 100.822 378.556 100.822C377.507 100.822 376.632 101.094 375.933 101.638C375.234 102.174 374.705 102.904 374.348 103.829C373.998 104.754 373.823 105.788 373.823 106.93C373.823 108.104 374.002 109.134 374.359 110.02C374.717 110.906 375.245 111.597 375.945 112.095C376.652 112.592 377.522 112.841 378.556 112.841ZM398.405 116.361C396.641 116.361 395.122 115.984 393.847 115.231C392.58 114.469 391.601 113.4 390.91 112.025C390.226 110.641 389.884 109.021 389.884 107.163C389.884 105.329 390.226 103.713 390.91 102.314C391.601 100.915 392.565 99.8229 393.801 99.038C395.044 98.253 396.497 97.8605 398.161 97.8605C399.171 97.8605 400.15 98.0276 401.098 98.3618C402.047 98.696 402.898 99.2206 403.651 99.9356C404.405 100.651 405 101.579 405.435 102.722C405.87 103.857 406.088 105.236 406.088 106.86V108.096H391.854V105.485H402.672C402.672 104.568 402.486 103.755 402.113 103.048C401.74 102.333 401.215 101.77 400.539 101.358C399.87 100.946 399.085 100.74 398.184 100.74C397.205 100.74 396.35 100.981 395.619 101.463C394.896 101.937 394.337 102.559 393.941 103.328C393.552 104.09 393.358 104.917 393.358 105.811V107.851C393.358 109.048 393.567 110.066 393.987 110.906C394.415 111.745 395.009 112.386 395.771 112.829C396.532 113.264 397.422 113.482 398.44 113.482C399.101 113.482 399.703 113.389 400.247 113.202C400.791 113.008 401.262 112.72 401.658 112.339C402.054 111.959 402.357 111.488 402.567 110.929L405.866 111.523C405.602 112.495 405.128 113.346 404.444 114.076C403.768 114.799 402.917 115.363 401.891 115.767C400.873 116.163 399.711 116.361 398.405 116.361Z" fill="url(#paint1_linear_1230_4667)"/>
<defs>
<radialGradient id="paint0_radial_1230_4667" cx="0" cy="0" r="1" gradientUnits="userSpaceOnUse" gradientTransform="translate(277 104) rotate(17.9995) scale(336.56 193.259)">
<stop offset="0.316162" stop-color="white"/>
<stop offset="1" stop-color="#EAF5FF"/>
</radialGradient>
<linearGradient id="paint1_linear_1230_4667" x1="277" y1="84" x2="277" y2="130.452" gradientUnits="userSpaceOnUse">
<stop stop-color="#7ABFFF"/>
<stop offset="1" stop-color="#00519C"/>
</linearGradient>
</defs>
</svg>
