<svg width="24" height="24" viewBox="0 0 24 24" fill="none" xmlns="http://www.w3.org/2000/svg">
<path d="M15.1715 6.99998L8.58553 13.586C8.39451 13.7705 8.24215 13.9912 8.13733 14.2352C8.03251 14.4792 7.97734 14.7416 7.97503 15.0072C7.97272 15.2727 8.02333 15.5361 8.12389 15.7819C8.22445 16.0277 8.37296 16.251 8.56074 16.4388C8.74853 16.6266 8.97183 16.7751 9.21762 16.8756C9.46342 16.9762 9.72678 17.0268 9.99233 17.0245C10.2579 17.0222 10.5203 16.967 10.7643 16.8622C11.0083 16.7574 11.229 16.605 11.4135 16.414L17.8275 9.82798C18.5562 9.07357 18.9593 8.06316 18.9502 7.01438C18.9411 5.96559 18.5204 4.96234 17.7788 4.22071C17.0372 3.47907 16.0339 3.0584 14.9851 3.04928C13.9363 3.04017 12.9259 3.44335 12.1715 4.17198L5.75653 10.757C4.63122 11.8823 3.99902 13.4085 3.99902 15C3.99902 16.5914 4.63122 18.1177 5.75653 19.243C6.88184 20.3683 8.4081 21.0005 9.99953 21.0005C11.591 21.0005 13.1172 20.3683 14.2425 19.243L20.4995 13" stroke="black" stroke-width="1.5" stroke-linecap="round" stroke-linejoin="round"/>
</svg>
