<svg width="22" height="22" viewBox="0 0 22 22" fill="none" xmlns="http://www.w3.org/2000/svg">
<g id="HeartOutline">
<path id="Vector" d="M3.9582 5.79145C3.57516 6.1745 3.27131 6.62924 3.064 7.12971C2.8567 7.63018 2.75 8.16658 2.75 8.70829C2.75 9.24999 2.8567 9.7864 3.064 10.2869C3.27131 10.7873 3.57516 11.2421 3.9582 11.6251L11 18.667L18.0419 11.6251C18.8155 10.8515 19.2501 9.80231 19.2501 8.70829C19.2501 7.61426 18.8155 6.56505 18.0419 5.79145C17.2683 5.01786 16.2191 4.58326 15.125 4.58326C14.031 4.58326 12.9818 5.01786 12.2082 5.79145L11 6.99962L9.79187 5.79145C9.40883 5.40841 8.95409 5.10456 8.45362 4.89725C7.95314 4.68995 7.41674 4.58325 6.87504 4.58325C6.33333 4.58325 5.79693 4.68995 5.29645 4.89725C4.79598 5.10456 4.34124 5.40841 3.9582 5.79145Z" stroke="black" stroke-linecap="round" stroke-linejoin="round"/>
</g>
</svg>
