<svg width="24" height="24" viewBox="0 0 24 24" fill="none" xmlns="http://www.w3.org/2000/svg">
<g id="Logo">
<circle id="Ellipse 1" cx="12" cy="12" r="12" fill="white"/>
<circle id="Ellipse 2" cx="12" cy="12" r="10.896" stroke="#283B4B" stroke-width="2.208"/>
<path id="Union" fill-rule="evenodd" clip-rule="evenodd" d="M17.9697 2.9601L17.9785 2.94493C16.2643 1.81179 14.2093 1.15198 12 1.15198C9.79067 1.15198 7.73561 1.81179 6.02147 2.94493L6.03024 2.9601C3.09109 4.89896 1.15198 8.22847 1.15198 12.0105C1.15198 17.9959 6.00879 22.848 12 22.848C17.9912 22.848 22.848 17.9959 22.848 12.0105C22.848 8.22847 20.9089 4.89896 17.9697 2.9601ZM7.00161 4.64094L10.5578 10.7946C11.1988 11.9037 12.8012 11.9037 13.4421 10.7946L16.9983 4.64094C19.2245 6.21053 20.6784 8.80034 20.6784 11.7294C20.6784 14.6042 19.2779 17.1522 17.1213 18.7296C16.7309 16.2488 14.5816 14.3514 11.9888 14.3514C9.40105 14.3514 7.25516 16.2413 6.85858 18.7148C4.7134 17.1363 3.32158 14.5952 3.32158 11.7294C3.32158 8.80034 4.77547 6.21053 7.00161 4.64094Z" fill="#283B4B"/>
</g>
</svg>
