<svg width="129" height="30" viewBox="0 0 129 30" fill="none" xmlns="http://www.w3.org/2000/svg">
<circle cx="12" cy="15" r="12" fill="#D4F3FF"/>
<circle cx="12" cy="15" r="10.896" stroke="#283B4B" stroke-width="2.208"/>
<path fill-rule="evenodd" clip-rule="evenodd" d="M17.9697 5.9601L17.9785 5.94493C16.2644 4.81179 14.2093 4.15198 12 4.15198C9.7907 4.15198 7.73564 4.81179 6.0215 5.94493L6.03027 5.9601C3.09113 7.89896 1.15201 11.2285 1.15201 15.0105C1.15201 20.9959 6.00882 25.848 12 25.848C17.9912 25.848 22.848 20.9959 22.848 15.0105C22.848 11.2285 20.9089 7.89896 17.9697 5.9601ZM7.00164 7.64094L10.5579 13.7946C11.1988 14.9037 12.8012 14.9037 13.4421 13.7946L16.9984 7.64094C19.2245 9.21053 20.6784 11.8003 20.6784 14.7294C20.6784 17.6042 19.2779 20.1522 17.1213 21.7296C16.7309 19.2488 14.5817 17.3514 11.9888 17.3514C9.40108 17.3514 7.25519 19.2413 6.85861 21.7148C4.71343 20.1363 3.32161 17.5952 3.32161 14.7294C3.32161 11.8003 4.7755 9.21053 7.00164 7.64094Z" fill="#283B4B"/>
<path d="M36.707 23H34.54V7.16H36.619L42.361 19.073L48.07 7.16H50.171V22.989H47.993V12.154L42.878 23H41.833L36.707 12.154V23ZM54.6169 17.709C54.7122 18.8163 55.0459 19.6707 55.6179 20.272C56.1899 20.866 56.9746 21.163 57.9719 21.163C58.6832 21.163 59.3029 21.0017 59.8309 20.679C60.3589 20.3563 60.7696 19.887 61.0629 19.271L63.3179 19.986C62.8632 21.0347 62.1666 21.856 61.2279 22.45C60.2892 23.0367 59.2406 23.33 58.0819 23.33C56.9086 23.33 55.8746 23.0733 54.9799 22.56C54.0852 22.0393 53.3886 21.3133 52.8899 20.382C52.3986 19.4433 52.1529 18.369 52.1529 17.159C52.1529 15.8757 52.3949 14.7537 52.8789 13.793C53.3629 12.8323 54.0449 12.0917 54.9249 11.571C55.8049 11.0503 56.8206 10.79 57.9719 10.79C59.1086 10.79 60.0912 11.043 60.9199 11.549C61.7486 12.055 62.3829 12.781 62.8229 13.727C63.2702 14.6657 63.4939 15.7767 63.4939 17.06C63.4939 17.1993 63.4866 17.4157 63.4719 17.709H54.6169ZM58.0599 12.825C57.0846 12.825 56.3109 13.089 55.7389 13.617C55.1742 14.1377 54.8186 14.904 54.6719 15.916H61.1179C60.9932 14.8673 60.6779 14.09 60.1719 13.584C59.6732 13.078 58.9692 12.825 58.0599 12.825ZM68.0188 23H65.7198V6.83H68.0188V23ZM76.0411 23.33C74.8751 23.33 73.8521 23.066 72.9721 22.538C72.0921 22.0027 71.4138 21.262 70.9371 20.316C70.4604 19.3627 70.2221 18.2737 70.2221 17.049C70.2221 15.817 70.4641 14.728 70.9481 13.782C71.4321 12.836 72.1141 12.1027 72.9941 11.582C73.8741 11.054 74.8898 10.79 76.0411 10.79C77.2071 10.79 78.2301 11.054 79.1101 11.582C79.9974 12.11 80.6794 12.8507 81.1561 13.804C81.6328 14.75 81.8711 15.8317 81.8711 17.049C81.8711 18.281 81.6291 19.3737 81.1451 20.327C80.6684 21.273 79.9901 22.01 79.1101 22.538C78.2301 23.066 77.2071 23.33 76.0411 23.33ZM76.0411 21.163C77.1411 21.163 77.9808 20.7927 78.5601 20.052C79.1394 19.304 79.4291 18.303 79.4291 17.049C79.4291 15.7803 79.1394 14.783 78.5601 14.057C77.9808 13.3237 77.1411 12.957 76.0411 12.957C74.9264 12.957 74.0831 13.3237 73.5111 14.057C72.9464 14.7903 72.6641 15.7877 72.6641 17.049C72.6641 18.325 72.9538 19.3297 73.5331 20.063C74.1124 20.7963 74.9484 21.163 76.0411 21.163ZM86.0154 23H83.8484V7.16H85.9274L91.6694 19.073L97.3784 7.16H99.4794V22.989H97.3014V12.154L92.1864 23H91.1414L86.0154 12.154V23ZM104.64 9.173H102.341V6.94H104.64V9.173ZM104.64 23H102.341V11.12H104.64V23ZM113.477 10.801C114.723 10.801 115.695 11.1163 116.392 11.747C117.096 12.3703 117.569 13.1 117.811 13.936C118.053 14.772 118.174 15.5933 118.174 16.4V23H115.842V17.159C115.842 15.993 115.625 15.0067 115.193 14.2C114.76 13.386 113.975 12.979 112.839 12.979C111.937 12.979 111.207 13.287 110.65 13.903C110.1 14.519 109.825 15.4907 109.825 16.818V23H107.493V11.12H109.55V12.539C109.997 11.9817 110.551 11.5527 111.211 11.252C111.871 10.9513 112.626 10.801 113.477 10.801ZM123.866 12.968V18.215V18.842C123.866 19.216 123.88 19.5203 123.91 19.755C123.939 19.9823 124.005 20.1803 124.108 20.349C124.284 20.6423 124.529 20.855 124.845 20.987C125.167 21.1117 125.56 21.174 126.022 21.174C126.418 21.174 126.876 21.1337 127.397 21.053V23C126.715 23.132 126.088 23.198 125.516 23.198C124.694 23.198 123.976 23.066 123.36 22.802C122.751 22.538 122.296 22.1237 121.996 21.559C121.812 21.2143 121.691 20.8623 121.633 20.503C121.581 20.1363 121.556 19.6927 121.556 19.172V18.325V12.968H119.279V11.12H121.556V7.82H123.866V11.12H127.397V12.968H123.866Z" fill="#283B4B"/>
</svg>
