<svg width="21" height="22" viewBox="0 0 21 22" fill="none" xmlns="http://www.w3.org/2000/svg">
<g clip-path="url(#clip0_605_5271)">
<path d="M10.5 21.5C16.299 21.5 21 16.799 21 11C21 5.20101 16.299 0.5 10.5 0.5C4.70101 0.5 0 5.20101 0 11C0 16.799 4.70101 21.5 10.5 21.5Z" fill="#00EF8B"/>
<path d="M15.099 9.362H12.138V12.323H15.099V9.362Z" fill="white"/>
<path d="M9.177 13.436C9.177 14.045 8.673 14.549 8.064 14.549C7.455 14.549 6.951 14.045 6.951 13.436C6.951 12.827 7.455 12.323 8.064 12.323H9.177V9.362H8.064C5.817 9.362 3.99 11.189 3.99 13.436C3.99 15.683 5.817 17.51 8.064 17.51C10.311 17.51 12.138 15.683 12.138 13.436V12.323H9.177V13.436Z" fill="white"/>
<path d="M13.251 7.871H16.59V4.91H13.251C11.004 4.91 9.177 6.737 9.177 8.984V9.362H12.138V8.984C12.138 8.375 12.642 7.871 13.251 7.871Z" fill="white"/>
<path d="M12.138 9.362H9.177V12.323H12.138V9.362Z" fill="#16FF99"/>
</g>
<defs>
<clipPath id="clip0_605_5271">
<rect width="21" height="21" fill="white" transform="translate(0 0.5)"/>
</clipPath>
</defs>
</svg>
