<svg width="32" height="32" viewBox="0 0 32 32" fill="none" xmlns="http://www.w3.org/2000/svg">
<g id="Play Button">
<rect width="32" height="32" rx="16" fill="white"/>
<g id="Play">
<path id="Play_2" fill-rule="evenodd" clip-rule="evenodd" d="M-0.00012207 16.0093C-0.00012207 7.178 7.18135 0 15.9999 0C24.8184 0 31.9999 7.178 31.9999 16.0093C31.9999 24.822 24.8184 32 15.9999 32C7.18135 32 -0.00012207 24.822 -0.00012207 16.0093ZM21.8687 17.6286C22.0386 17.4588 22.2548 17.1963 22.3011 17.1346C22.5482 16.8104 22.6718 16.4091 22.6718 16.0093C22.6718 15.5601 22.5328 15.1433 22.2702 14.8037C22.2487 14.7822 22.2066 14.7363 22.1517 14.6765C22.0489 14.5647 21.9015 14.4042 21.7606 14.2634C20.4942 12.905 17.1891 10.6821 15.4594 10.0029C15.1969 9.89638 14.5328 9.66329 14.1775 9.64786C13.8378 9.64786 13.5135 9.72504 13.2046 9.8794C12.8185 10.0955 12.5096 10.4351 12.3397 10.8365C12.2316 11.1143 12.0617 11.9479 12.0617 11.9633C11.8918 12.8741 11.7992 14.356 11.7992 15.9923C11.7992 17.5529 11.8918 18.9715 12.0308 19.8977C12.0347 19.9016 12.0479 19.9678 12.0686 20.0707C12.1313 20.3836 12.262 21.0353 12.4015 21.3025C12.7413 21.9508 13.4053 22.3521 14.1158 22.3521H14.1775C14.6409 22.3367 15.6138 21.9354 15.6138 21.9199C17.2509 21.2407 20.4787 19.1259 21.776 17.7212L21.8687 17.6286Z" fill="#313D58"/>
</g>
</g>
</svg>
