<svg xmlns="http://www.w3.org/2000/svg" width="22" height="22" viewBox="0 0 22 22" fill="none">
  <path d="M14.2413 7.75867C14.6671 8.18429 15.0048 8.6896 15.2352 9.24576C15.4656 9.80191 15.5842 10.398 15.5842 11C15.5842 11.602 15.4656 12.1981 15.2352 12.7542C15.0048 13.3104 14.6671 13.8157 14.2413 14.2413M16.8337 5.16633C17.5998 5.93242 18.2075 6.8419 18.6221 7.84284C19.0367 8.84378 19.2501 9.91659 19.2501 11C19.2501 12.0834 19.0367 13.1562 18.6221 14.1572C18.2075 15.1581 17.5998 16.0676 16.8337 16.8337M5.1205 13.75H3.66667C3.42355 13.75 3.19039 13.6534 3.01849 13.4815C2.84658 13.3096 2.75 13.0764 2.75 12.8333V9.16667C2.75 8.92355 2.84658 8.6904 3.01849 8.51849C3.19039 8.34658 3.42355 8.25 3.66667 8.25H5.1205L9.43525 3.93525C10.0128 3.35775 11 3.76658 11 4.58333V17.4167C11 18.2334 10.0128 18.6423 9.43525 18.0648L5.1205 13.75Z" stroke="black" stroke-linecap="round" stroke-linejoin="round"/>
</svg>