<svg width="385" height="384" viewBox="0 0 385 384" fill="none" xmlns="http://www.w3.org/2000/svg">
<rect x="0.5" width="384" height="384" rx="43" fill="#FFE287"/>
<path d="M296.397 227.121C290.388 220.852 275.819 226.255 271.562 218.782C267.109 210.97 279.556 199.207 283.716 194.969C300.12 178.252 309.24 144.805 285.363 129.872C267.708 118.805 246.239 122.002 227.185 124.664C204.596 127.854 181.943 131.284 159.888 138.022C128.98 147.52 93.7034 163.143 79.3364 199.025C77.2718 204.111 75.7445 209.4 74.7796 214.804C71.3034 235.297 79.3364 259.07 97.0689 265.879C104.939 268.9 113.415 268.705 121.448 266.706C127.652 265.163 135.021 261.095 141.446 262.149C142.414 262.296 143.309 262.751 143.998 263.446C144.688 264.141 145.135 265.04 145.273 266.01C145.34 267.052 145.187 268.096 144.824 269.076C139.46 286.177 115.01 298.024 117.718 318.139C120.185 336.328 156.978 325.105 167.296 322.8C185.523 318.719 203.75 312.072 220.929 304.957C236.859 298.363 326.283 258.315 296.397 227.121Z" fill="#DEF5FE"/>
<path d="M103.045 134.988C103.06 135.914 103.128 136.837 103.247 137.755C103.428 139.389 103.867 140.985 104.549 142.481C105.104 140.963 105.516 139.396 105.779 137.801C105.935 136.876 106.052 135.952 106.143 135.021C107.402 134.997 108.658 134.901 109.906 134.735C111.523 134.527 113.107 134.113 114.619 133.504C113.118 132.876 111.543 132.438 109.932 132.202C108.736 132.014 107.529 131.896 106.319 131.851C106.333 130.718 106.278 129.586 106.156 128.459C106.002 126.828 105.612 125.227 104.998 123.707C104.373 125.203 103.911 126.761 103.618 128.355C103.391 129.534 103.232 130.725 103.143 131.922C102.25 131.986 101.361 132.095 100.48 132.248C98.8627 132.514 97.2926 133.014 95.8191 133.732C97.3551 134.25 98.9413 134.606 100.552 134.793C101.398 134.871 102.218 134.943 103.045 134.988Z" fill="#DEF5FE"/>
<path d="M261.622 299.007C261.63 297.872 261.573 296.738 261.452 295.609C261.297 293.978 260.907 292.377 260.294 290.857C259.671 292.353 259.208 293.911 258.914 295.505C258.688 296.684 258.529 297.875 258.438 299.072C257.546 299.135 256.657 299.246 255.776 299.404C254.159 299.669 252.589 300.167 251.115 300.882C252.65 301.404 254.237 301.759 255.848 301.943C256.674 302.047 257.495 302.119 258.321 302.165C258.337 303.09 258.404 304.013 258.523 304.931C258.703 306.566 259.143 308.161 259.825 309.657C260.38 308.141 260.792 306.576 261.055 304.983C261.212 304.059 261.329 303.135 261.42 302.204C262.679 302.177 263.935 302.079 265.182 301.911C266.799 301.702 268.382 301.291 269.896 300.687C268.394 300.058 266.819 299.621 265.209 299.385C264.022 299.182 262.824 299.056 261.622 299.007Z" fill="#DEF5FE"/>
<path d="M80.8467 154.68C80.8851 155.237 80.9524 155.791 81.0485 156.34C81.2506 157.571 81.693 158.75 82.3504 159.81C82.9122 158.728 83.3281 157.577 83.5873 156.386C83.711 155.846 83.8151 155.305 83.8867 154.765C84.6889 154.719 85.4871 154.619 86.2758 154.466C87.4901 154.246 88.6601 153.828 89.739 153.229C88.6724 152.609 87.5112 152.169 86.3018 151.927C85.5636 151.769 84.8154 151.663 84.0625 151.608C84.0388 150.912 83.9736 150.219 83.8672 149.531C83.6866 148.301 83.2829 147.114 82.6759 146.029C82.068 147.092 81.6143 148.236 81.3284 149.427C81.1451 150.17 81.0125 150.925 80.9313 151.686C80.4016 151.748 79.8757 151.839 79.356 151.959C78.1436 152.219 76.9894 152.7 75.9514 153.378C77.0509 153.915 78.2214 154.292 79.4276 154.498C79.9093 154.557 80.378 154.609 80.8467 154.68Z" fill="#DEF5FE"/>
<path d="M79.2062 261.746C79.4513 261.938 79.7609 262.029 80.0711 262C80.3814 261.971 80.6687 261.825 80.8739 261.59C81.0792 261.356 81.1867 261.051 81.1744 260.74C81.162 260.429 81.0308 260.134 80.8076 259.916C62.4112 243.785 63.4267 213.763 73.9464 192.437C83.763 172.537 102.088 154.355 122.978 143.803C123.12 143.73 123.247 143.631 123.352 143.509C123.456 143.388 123.535 143.247 123.585 143.095C123.635 142.943 123.654 142.783 123.642 142.623C123.63 142.464 123.587 142.308 123.515 142.165C123.442 142.023 123.343 141.896 123.221 141.791C123.1 141.687 122.959 141.608 122.807 141.558C122.655 141.508 122.495 141.489 122.335 141.501C122.176 141.513 122.02 141.556 121.877 141.628C100.539 152.415 81.8036 171.007 71.7526 191.356C66.1608 202.69 63.3355 216.093 64.006 228.09C64.8002 242.08 70.0471 253.719 79.2062 261.746Z" fill="#DEF5FE"/>
<path d="M110.232 301.149C114.007 294.301 118.694 285.767 112.145 280.578C108.24 277.519 103.598 277.219 99.0738 276.933C97.1095 276.855 95.1525 276.648 93.2151 276.314C80.9963 273.893 67.5863 266.4 66.5838 252.652C66.5571 252.332 66.4055 252.036 66.1619 251.828C65.9184 251.62 65.6025 251.516 65.2829 251.539C64.9633 251.562 64.6656 251.71 64.4546 251.952C64.2436 252.193 64.1362 252.507 64.1557 252.827C65.2558 267.943 79.6423 276.106 92.7399 278.703C94.7737 279.057 96.8288 279.275 98.8916 279.354C103.227 279.634 107.354 279.895 110.609 282.486C115.556 286.391 111.579 293.604 108.077 299.971C106.632 302.575 105.265 305.068 104.679 307.131C103.058 312.762 103.168 320.457 108.357 325.176C108.58 325.382 108.873 325.496 109.177 325.495C109.347 325.495 109.515 325.459 109.671 325.391C109.826 325.323 109.966 325.223 110.082 325.098C110.297 324.858 110.408 324.543 110.392 324.222C110.377 323.9 110.235 323.597 109.997 323.38C105.629 319.402 105.662 312.508 107.016 307.808C107.556 305.986 108.858 303.623 110.232 301.149Z" fill="#DEF5FE"/>
<path d="M314.149 236.521C313.745 231.469 311.278 227.472 306.819 224.634C306.546 224.466 306.218 224.412 305.906 224.484C305.594 224.556 305.323 224.748 305.151 225.019C304.98 225.29 304.922 225.617 304.991 225.93C305.059 226.243 305.248 226.516 305.517 226.691C309.351 229.126 311.375 232.406 311.727 236.716C312.814 250.341 296.292 269.876 288.591 276.692C288.351 276.907 288.206 277.208 288.186 277.53C288.167 277.852 288.275 278.168 288.487 278.411C288.601 278.54 288.741 278.644 288.898 278.715C289.056 278.785 289.226 278.822 289.399 278.821C289.696 278.819 289.982 278.71 290.206 278.515C295.583 273.75 315.431 252.652 314.149 236.521Z" fill="#DEF5FE"/>
<path d="M262.657 239.802L261.537 241.045L246.154 258.055C239.834 248.941 234.079 237.875 228.578 226.007L226.69 315.842L177.998 319.096L166.352 227.628C164.399 239.444 162.544 251.35 160.324 262.208L139.961 259.793L137.95 259.546C139.35 231.931 143.685 203.451 149.557 196.336C149.729 196.106 149.919 195.888 150.123 195.685C153.118 192.814 156.665 192.32 160.962 192.482C161.762 236.514 228.455 236.801 228.585 193.283C231.026 193.178 233.45 193.727 235.609 194.871C235.889 195.034 236.169 195.203 236.448 195.392L236.852 195.679C245.334 201.824 253.758 220.78 262.657 239.802Z" fill="#FF9C59"/>
<mask id="mask0_631_436" style="mask-type:luminance" maskUnits="userSpaceOnUse" x="137" y="192" width="126" height="128">
<path d="M262.657 239.802L261.537 241.045L246.154 258.055C239.834 248.941 234.079 237.875 228.578 226.007L226.69 315.842L177.998 319.096L166.352 227.628C164.399 239.444 162.544 251.35 160.324 262.208L139.961 259.793L137.95 259.546C139.35 231.931 143.685 203.451 149.557 196.336C149.729 196.106 149.919 195.888 150.123 195.685C153.118 192.814 156.665 192.32 160.962 192.482C161.762 236.514 228.455 236.801 228.585 193.283C231.026 193.178 233.45 193.727 235.609 194.871C235.889 195.034 236.169 195.203 236.448 195.392L236.852 195.679C245.334 201.824 253.758 220.78 262.657 239.802Z" fill="white"/>
</mask>
<g mask="url(#mask0_631_436)">
<g style="mix-blend-mode:multiply" opacity="0.71">
<path d="M228.637 230.095L229.099 230.44L228.012 229.62C227.595 229.301 227.133 228.969 227.088 229.132C227.042 229.295 227.439 230.206 228.077 231.469C228.715 232.732 229.6 234.346 230.277 235.883C230.603 236.651 230.896 237.425 231.163 238.181L231.781 239.958C232.139 241.025 232.465 241.989 232.647 242.62C234.112 247.476 235.316 252.046 237.204 256.72C238.759 260.548 241.005 264.044 242.841 267.65C248.963 256.374 257.371 246.499 267.526 238.656C267.057 238.454 266.582 238.259 266.146 238.005C264.486 237.132 263.399 235.772 261.739 234.932C259.87 233.995 258.263 234.346 256.472 233.773C256.088 233.656 255.73 233.494 255.34 233.409C254.733 233.36 254.124 233.36 253.517 233.409C252.859 233.319 252.218 233.131 251.616 232.849C249.8 232.126 248.036 231.489 246.298 230.896L244.996 230.467L244.345 230.258L243.59 230.037C242.612 229.771 241.615 229.579 240.608 229.464C240.113 229.392 239.638 229.36 239.157 229.314L237.672 229.23C236.305 229.145 234.997 229.132 233.617 228.956C232.237 228.781 230.681 228.396 229.151 228.09C227.621 227.785 226.085 227.439 224.894 227.114V227.153C226.176 228.201 227.4 229.152 228.637 230.095Z" fill="#FF9C59"/>
</g>
<g style="mix-blend-mode:multiply" opacity="0.71">
<path d="M147.89 262.664C151.829 262.527 155.917 262.24 159.777 263.249C168.715 265.586 169.659 275.898 170.44 283.56C170.616 285.304 170.752 287.056 170.902 288.768C170.902 289.008 170.948 289.249 170.967 289.49C170.967 289.536 171.28 291.658 171.345 292.094C172.211 297.601 173.298 303.082 174.183 308.583C174.945 313.244 175.57 317.879 175.902 322.52C178.414 322.156 180.973 321.869 183.551 321.687C194.415 320.802 205.137 318.732 216.008 317.964C217.961 317.82 220.031 317.56 222.075 317.462C221.997 316.675 221.912 315.9 221.815 315.125C221.294 311.089 220.897 307.001 219.471 303.141C218.378 300.179 216.77 297.757 215.663 294.776C214.953 292.869 214.446 290.773 213.508 289.087C213 288.263 212.448 287.468 211.855 286.704C210.346 284.452 209.26 281.944 208.652 279.302C208.472 278.255 208.218 277.222 207.89 276.21C207.415 274.908 206.523 273.359 206.588 272.428C206.627 272.07 206.816 271.868 206.764 271.419C206.688 271.085 206.572 270.762 206.419 270.456C204.844 266.778 202.982 262.742 200.938 260.789C200.858 258.985 200.641 257.189 200.287 255.418C199.876 253.433 199.336 251.476 198.673 249.56C198.161 247.935 197.403 246.398 196.427 245.003C196.049 244.514 195.665 244.202 195.288 243.701C194.377 242.469 193.625 241.129 193.048 239.71C192.546 238.749 192.136 237.742 191.824 236.703C191.61 235.765 191.649 234.984 191.453 234.04C191.335 233.454 191.167 232.88 190.952 232.322C190.839 232.035 190.722 231.749 190.601 231.462C190.483 231.202 190.36 230.935 190.243 230.668C189.701 229.527 189.218 228.358 188.797 227.166C188.303 225.747 187.977 224.308 187.417 222.785C186.834 221.09 185.87 219.551 184.599 218.287C183.874 217.582 183.041 216.997 182.131 216.555C181.737 216.347 181.325 216.173 180.901 216.034L180.296 215.826C180.087 215.761 179.833 215.702 179.612 215.644C177.725 215.211 175.766 215.191 173.871 215.585C173.075 215.718 172.295 215.936 171.547 216.236C170.576 216.726 169.68 217.351 168.884 218.092C167.966 218.743 166.931 219.341 166.02 219.908C165.323 220.344 164.685 220.721 163.995 221.21C163.305 221.698 162.628 222.102 161.997 222.59C161.365 223.078 160.695 223.547 160.103 224.054C159.51 224.562 158.892 225.063 158.306 225.584C156.038 227.611 153.925 229.804 151.985 232.146C150.056 234.49 148.259 236.939 146.601 239.482C145.768 240.784 144.954 242.086 144.16 243.388C143.763 244.039 143.366 244.723 142.982 245.406L142.689 245.921L142.578 246.116C142.38 246.052 142.178 246.002 141.973 245.966C141.888 246.148 141.797 246.331 141.687 246.617C141.687 246.682 141.628 246.799 141.589 246.923C141.55 247.047 141.55 247.092 141.524 247.21C141.517 247.322 141.517 247.435 141.524 247.548V247.769C141.532 247.966 141.565 248.16 141.621 248.349C141.621 248.407 141.68 248.459 141.7 248.518C140.827 250.152 139.922 252.287 139.408 253.166C137.872 255.835 135.977 258.048 134.376 260.665C134.207 260.932 134.064 261.212 133.914 261.485C138.522 262.341 143.204 262.736 147.89 262.664ZM142.624 246.148L142.787 246.038C142.866 245.992 142.949 245.953 143.034 245.921L143.21 245.855C143.299 245.829 143.391 245.809 143.483 245.797C143.679 245.764 143.879 245.764 144.076 245.797C144.374 245.852 144.655 245.977 144.896 246.161L144.401 246.943L144.31 246.897C144.245 246.858 144.18 246.832 144.121 246.793H144.082L143.652 246.572C143.583 246.532 143.509 246.501 143.431 246.48C143.19 246.383 142.949 246.292 142.702 246.214H142.598L142.624 246.148Z" fill="#FF9C59"/>
</g>
</g>
<path d="M211.939 115.231C210.637 106.541 199.109 97.6552 188.4 105.467C164.685 91.0218 152.317 108.26 154.315 125.751C141.407 119.958 125.555 130.516 136.466 149.29C119.54 162.557 145.02 175.199 159.185 172.009C154.628 189.885 183.922 195.627 203.008 184.182C204.636 192.3 218.43 197.983 224.113 188.244C229.32 193.758 252.104 187.743 248.459 177.692C263.067 177.692 272.669 162.87 259.005 150.911C272.805 142.794 266.426 119.378 247.645 127.379C256.043 105.206 237.92 99.185 211.939 115.231Z" fill="#283B4B"/>
<mask id="mask1_631_436" style="mask-type:luminance" maskUnits="userSpaceOnUse" x="130" y="100" width="137" height="94">
<path d="M211.939 115.231C210.637 106.541 199.109 97.6552 188.4 105.467C164.685 91.0218 152.317 108.26 154.315 125.751C141.407 119.958 125.555 130.516 136.466 149.29C119.54 162.557 145.02 175.199 159.185 172.009C154.628 189.885 183.922 195.627 203.008 184.182C204.636 192.3 218.43 197.983 224.113 188.244C229.32 193.758 252.104 187.743 248.459 177.692C263.067 177.692 272.669 162.87 259.005 150.911C272.805 142.794 266.426 119.378 247.645 127.379C256.043 105.206 237.92 99.185 211.939 115.231Z" fill="white"/>
</mask>
<g mask="url(#mask1_631_436)">
<path style="mix-blend-mode:multiply" d="M120.667 169.431C131.798 171.117 143.633 166.691 154.101 161.796C162.719 157.759 172.562 157.486 181.389 153.938C203.522 145.033 222.954 132.814 241.5 117.829C250.164 110.831 259.779 101.509 260.378 89.6548C260.678 83.5747 260.782 77.2864 254.767 73.9013C249.26 70.8417 243.609 72.5603 238.063 74.1682C230.902 76.2448 224.113 79.7926 220.754 86.8361C216.848 95.0514 217.141 104.575 215.878 113.402C214.96 119.847 214.66 126.532 212.356 132.612C211.054 136.089 209.166 141.68 205.911 143.764C205.599 139.207 207.923 134.311 208.795 129.891C209.746 125.035 209.323 119.984 208.795 115.114C207.793 105.851 206.842 95.3899 209.062 86.2763C210.364 80.8602 213.241 76.9153 216.333 72.3455C222.55 63.1603 231.853 55.4528 242.913 53.1678C252.554 51.1759 260.925 55.8694 267.402 62.7241C271.855 67.4502 274.576 73.3089 276.321 79.4997C277.323 83.0409 276.321 85.7295 275.351 89.2642C273.788 94.9863 273.684 103.703 268.515 107.544C262.95 111.664 257.807 114.945 253.178 120.4C248.856 125.491 243.967 127.945 238.343 131.597C230.974 136.343 224.145 141.811 216.561 146.218C199.922 155.833 182.014 162.928 164.868 171.547C149.837 179.111 133.276 182.366 117.796 189.058C114.814 190.36 110.206 192.476 112.92 196.544C114.971 199.63 122.112 198.165 125.132 197.736C147.545 194.526 165.004 182.112 185.406 173.832C206.146 165.421 226.977 157.232 247.476 147.917C259.239 142.572 270.208 136.199 281.19 129.436C296.813 119.827 303.622 103.651 315.151 89.9543C318.061 94.1595 317.423 100.839 318.237 105.734C319.779 115.01 320.456 124.697 322.39 133.869C323.913 141.03 325.554 145.378 323.132 152.923C318.634 166.932 307.3 178.623 295.492 186.91C277.03 199.864 255.014 209.33 233.682 216.406C211.939 223.618 190.125 226.997 167.367 223.436C159.836 222.258 150.442 221.483 142.305 218.743C135.665 216.503 130.503 213.45 123.629 211.699C121.354 211.122 119.093 210.493 116.845 209.811C104.243 205.957 92.8962 203.581 94.0028 188.635C94.5236 181.585 97.479 157.909 109.834 165.487C113.141 167.52 116.826 168.862 120.667 169.431Z" fill="url(#paint0_linear_631_436)"/>
</g>
<path d="M322.312 185.836C321.661 188.908 317.325 190.438 314.194 192.346C316.798 195.21 315.073 197.924 312.345 198.159H312.254C312.051 198.175 311.846 198.175 311.642 198.159C313.856 200.242 313.296 201.772 310.015 202.755C312.404 205.847 311.44 207.311 307.58 207.35L305.738 207.871L297.034 210.332C292.152 237.764 286.97 263.568 275.201 279.921C274.823 280.448 274.433 280.962 274.042 281.47C263.347 278.359 254.279 269.785 246.174 258.068L261.556 241.058C263.874 246.018 266.309 250.92 268.906 255.503L290.004 204.916C286.938 189.045 303.023 179.528 307.99 176.52C308.453 176.234 308.824 176.019 309.071 175.869C310.627 177.074 309.767 178.766 307.808 180.856C307.157 181.507 306.441 182.236 305.627 182.991C303.082 185.354 299.853 188.108 297.301 191.148L306.5 189.696L310.152 189.117C310.529 188.895 310.92 188.674 311.291 188.466C314.923 186.552 318.217 185.862 319.102 183.427C324.278 168.507 325.358 171.931 322.312 185.836Z" fill="#9B5E35"/>
<path style="mix-blend-mode:multiply" d="M322.312 185.836C321.661 188.908 317.325 190.438 314.194 192.346C316.798 195.21 315.073 197.924 312.345 198.159H312.254C312.051 198.175 311.846 198.175 311.642 198.159C313.856 200.242 313.296 201.772 310.015 202.755C312.404 205.847 311.441 207.311 307.58 207.35L305.738 207.871L297.035 210.332C292.152 237.764 286.971 263.568 275.201 279.921C277.004 258.243 283.312 236.221 289.666 215.67C290.628 212.248 291.376 208.769 291.905 205.254C292.842 199.91 293.858 194.572 296.462 189.996C299.222 185.165 303.284 180.583 307.977 176.52C308.44 176.234 308.811 176.019 309.058 175.869C310.614 177.074 309.755 178.766 307.795 180.856C307.144 181.507 306.428 182.236 305.614 182.991C303.069 185.354 299.84 188.108 297.288 191.148L306.487 189.696L310.139 189.117C310.516 188.895 310.907 188.674 311.278 188.466C314.91 186.552 318.204 185.862 319.089 183.427C324.278 168.507 325.358 171.931 322.312 185.836Z" fill="url(#paint1_linear_631_436)"/>
<path d="M228.617 159.237C227.791 161.307 225.115 163.195 222.941 162.987C222.432 162.943 221.944 162.763 221.528 162.466C220.41 165.635 218.604 168.518 216.241 170.907C213.878 173.296 211.015 175.133 207.858 176.286C206.295 176.838 204.678 177.224 203.034 177.438C199.621 175.659 196.629 173.168 194.259 170.134C192.617 167.921 191.421 165.409 190.737 162.739C190.336 161.215 190.062 159.661 189.917 158.091C178.414 160.793 181.624 137.365 190.457 149.167C199.864 146.075 207.168 141.075 210.071 134.559C213.958 135.668 217.338 138.094 219.634 141.42C222.498 145.567 223.605 150.892 223.045 156.171C223.842 155.359 224.886 154.834 226.013 154.68C228.324 154.537 229.451 157.18 228.617 159.237Z" fill="#9B5E35"/>
<path d="M210.989 153.574C211.237 154.208 211.697 154.737 212.291 155.071C212.602 155.294 212.896 155.54 213.17 155.807C213.518 156.143 213.771 156.565 213.905 157.03C214.025 157.506 214.012 158.006 213.869 158.475C213.726 158.944 213.457 159.365 213.092 159.693C212.785 159.996 212.402 160.21 211.984 160.312C211.565 160.414 211.127 160.4 210.716 160.272C211.308 159.953 211.792 159.466 212.109 158.873C212.359 158.447 212.443 157.944 212.343 157.46C212.099 156.907 211.769 156.395 211.367 155.943C211.119 155.603 210.934 155.222 210.82 154.817C210.764 154.609 210.75 154.392 210.779 154.178C210.808 153.965 210.88 153.759 210.989 153.574Z" fill="#6B3109"/>
<path d="M221.528 155.286C221.182 155.862 220.666 156.317 220.051 156.588C219.406 156.87 218.7 156.98 218 156.907C217.324 156.829 216.675 156.595 216.106 156.223C215.598 155.904 215.227 155.637 214.895 155.657H214.823C214.733 155.661 214.644 155.636 214.569 155.584C214.495 155.533 214.44 155.458 214.413 155.372C214.385 155.286 214.387 155.193 214.418 155.108C214.448 155.023 214.506 154.95 214.582 154.902C214.944 154.71 215.363 154.657 215.761 154.752C216.079 154.822 216.39 154.92 216.692 155.045C217.143 155.247 217.629 155.362 218.124 155.383C218.594 155.399 219.063 155.332 219.51 155.188C219.979 155.058 220.441 154.856 220.988 154.661C221.095 154.623 221.213 154.629 221.315 154.678C221.417 154.727 221.496 154.814 221.535 154.921C221.562 154.978 221.575 155.041 221.574 155.104C221.573 155.167 221.557 155.23 221.528 155.286Z" fill="#283B4B"/>
<path d="M207.506 154.44C206.836 154.574 206.182 154.777 205.553 155.045C204.737 155.243 203.89 155.276 203.06 155.143C202.228 155.016 201.433 154.712 200.73 154.251C200.013 153.781 199.462 153.098 199.154 152.298C199.136 152.246 199.128 152.191 199.13 152.136C199.133 152.082 199.147 152.028 199.17 151.978C199.194 151.929 199.227 151.884 199.268 151.847C199.309 151.811 199.356 151.782 199.408 151.764C199.471 151.74 199.54 151.732 199.607 151.741C199.674 151.75 199.738 151.776 199.792 151.816C200.325 152.214 200.899 152.552 201.504 152.825C202.09 153.094 202.703 153.297 203.334 153.431C203.977 153.555 204.632 153.601 205.287 153.567C205.586 153.567 205.937 153.476 206.367 153.437C206.82 153.377 207.281 153.44 207.702 153.619C207.751 153.642 207.795 153.674 207.832 153.714C207.869 153.753 207.897 153.8 207.915 153.851C207.934 153.902 207.941 153.956 207.938 154.011C207.935 154.065 207.921 154.118 207.897 154.166C207.863 154.235 207.812 154.293 207.747 154.334C207.683 154.376 207.609 154.399 207.532 154.4L207.506 154.44Z" fill="#283B4B"/>
<path d="M200.97 157.226C200.431 156.404 199.609 155.809 198.66 155.553C197.566 155.227 195.938 155.143 195.118 156.113C194.174 157.245 195.496 158.45 196.459 158.964C197.456 159.55 198.643 159.723 199.766 159.445C200.671 159.14 201.511 158.144 200.984 157.252L200.97 157.226Z" fill="#9E2323"/>
<path d="M215.956 160.539V160.63C215.565 162.388 218.117 162.336 219.172 162.121C219.707 162.023 220.217 161.822 220.675 161.529C220.928 161.387 221.127 161.164 221.239 160.896C221.351 160.628 221.37 160.331 221.294 160.051C221.2 159.793 221.045 159.563 220.842 159.379C220.639 159.195 220.394 159.064 220.129 158.996C219.582 158.851 219.012 158.817 218.452 158.899C217.893 158.981 217.356 159.176 216.874 159.472C216.448 159.704 216.122 160.084 215.956 160.539Z" fill="#9E2323"/>
<path d="M201.251 145.567C201.839 144.9 202.531 144.333 203.301 143.887C204.075 143.424 204.91 143.071 205.781 142.839C206.697 142.58 207.658 142.515 208.6 142.65C209.106 142.723 209.589 142.912 210.01 143.202C210.432 143.492 210.78 143.876 211.028 144.323C211.054 144.376 211.068 144.433 211.072 144.491C211.075 144.55 211.067 144.608 211.047 144.663C211.028 144.718 210.998 144.769 210.959 144.812C210.92 144.855 210.873 144.891 210.82 144.916C210.736 144.952 210.643 144.964 210.553 144.948H210.507C209.802 144.834 209.087 144.786 208.372 144.805C207.661 144.805 206.951 144.864 206.25 144.981C205.494 145.111 204.746 145.285 204.011 145.502C203.256 145.716 202.5 145.977 201.719 146.237C201.614 146.273 201.499 146.265 201.399 146.216C201.299 146.168 201.222 146.082 201.185 145.977C201.161 145.909 201.155 145.835 201.166 145.764C201.177 145.692 201.206 145.624 201.251 145.567Z" fill="#283B4B"/>
<path d="M214.517 147.578C215.05 147.902 215.604 148.187 216.177 148.431C216.712 148.654 217.265 148.83 217.831 148.958C218.575 149.109 219.3 149.343 219.992 149.655C220.705 149.987 221.338 150.468 221.847 151.068C221.883 151.111 221.91 151.16 221.926 151.214C221.943 151.267 221.948 151.323 221.943 151.379C221.937 151.435 221.921 151.489 221.895 151.538C221.868 151.588 221.832 151.631 221.789 151.666C221.737 151.71 221.676 151.74 221.61 151.753C221.544 151.767 221.476 151.764 221.411 151.745C220.77 151.552 220.118 151.399 219.458 151.289C218.807 151.178 218.156 151.107 217.505 151.022C216.666 150.933 215.863 150.635 215.168 150.156C214.818 149.904 214.522 149.584 214.298 149.215C214.074 148.846 213.927 148.435 213.866 148.008C213.859 147.95 213.863 147.891 213.879 147.834C213.895 147.778 213.922 147.725 213.958 147.679C213.994 147.633 214.04 147.595 214.091 147.566C214.142 147.538 214.199 147.52 214.257 147.513C214.351 147.5 214.447 147.519 214.53 147.565L214.517 147.578Z" fill="#283B4B"/>
<path d="M213.02 165.747C211.067 167.7 209.453 168.631 208.034 168.631C207.815 168.633 207.596 168.609 207.383 168.559C206.857 168.439 206.37 168.186 205.97 167.824C205.509 167.379 205.126 166.859 204.837 166.287C204.599 165.854 204.395 165.404 204.225 164.94C203.659 163.853 202.448 162.668 203.223 162.115C204.115 161.464 205.033 163.709 206.419 163.052C207.552 162.492 207.897 162.238 208.593 162.473C208.837 162.546 209.06 162.675 209.244 162.85C209.367 162.951 209.474 163.07 209.563 163.202C210.104 162.818 210.214 162.505 210.696 162.739C210.979 162.912 211.241 163.118 211.477 163.351C211.873 163.711 212.382 163.921 212.916 163.944C213.482 163.911 214.114 163.397 214.368 164.048C214.42 164.445 214.107 165.174 213.02 165.747Z" fill="#9E2323"/>
<path d="M228.585 193.309C228.552 203.022 225.206 210.566 220.005 215.911C201.947 234.509 161.58 226.704 160.962 192.508C166.378 192.71 172.992 193.934 181.24 192.736C186.128 185.413 190.959 178.174 194.259 170.148C196.484 173.013 199.277 175.388 202.461 177.126L203.034 177.451C204.678 177.238 206.295 176.851 207.858 176.299L202.891 199.493C211.783 197.098 221.183 193.348 228.585 193.309Z" fill="#9B5E35"/>
<path d="M160.324 262.208C155.878 283.937 150.104 301.501 140.144 305.823C119.964 291.567 108.956 265.521 101.736 234.678L86.1782 242.659C82.5718 245.823 81.6214 245.133 81.3089 240.225C78.3079 241.474 77.1101 239.775 78.054 235.355C75.5608 235.238 74.2328 232.602 76.4266 228.846C72.5989 226.958 68.7061 226.007 66.7987 223.67C62.6521 218.599 60.8358 214.27 61.0116 212.604C61.0202 212.511 61.0376 212.42 61.0637 212.33C61.5194 210.833 64.3771 212.597 68.7712 218.56C70.4051 220.774 74.3891 220.839 77.8848 222.466L79.0826 222.408L84.3555 222.141L94.12 221.652C91.2492 220.35 88.1636 219.081 85.5077 217.747C84.3182 217.153 83.166 216.488 82.0575 215.755C79.5838 214.069 78.1517 212.22 78.6985 210.02C89.1141 212.845 101.059 215.162 104.132 220.298L139.031 280.897C139.297 274.192 139.597 267.012 139.955 259.767L160.324 262.208Z" fill="#9B5E35"/>
<path d="M309.995 202.742C303.961 202.247 296.52 200.886 295.121 199.129C297.653 196.74 305.087 197.911 311.623 198.146C313.836 200.248 313.276 201.759 309.995 202.742Z" fill="#9B5E35"/>
<path d="M307.561 207.337L305.718 207.858C300.901 206.283 295.179 205.326 295.023 202.878C297.314 201.733 304.267 203.243 309.995 202.742C312.384 205.834 311.421 207.292 307.561 207.337Z" fill="#9B5E35"/>
<path d="M312.345 198.139H311.603C306.584 191.877 302.542 179.697 308.036 179.912C308.309 185.458 308.85 185.999 314.175 192.281C316.811 195.19 315.073 197.905 312.345 198.139Z" fill="#9B5E35"/>
<path d="M257.996 142.012C257.946 142.019 257.896 142.019 257.846 142.012C257.746 141.972 257.666 141.894 257.623 141.796C257.579 141.698 257.575 141.586 257.612 141.485C258.627 138.842 258.263 136.356 256.655 134.474C254.656 132.163 251.069 131.115 247.736 131.87C243.831 132.756 239.925 136.622 238.408 138.25C238.331 138.325 238.229 138.366 238.122 138.366C238.014 138.366 237.912 138.325 237.835 138.25C237.797 138.212 237.767 138.168 237.747 138.119C237.726 138.069 237.716 138.017 237.716 137.963C237.716 137.91 237.726 137.857 237.747 137.808C237.767 137.759 237.797 137.715 237.835 137.677C239.788 135.594 243.603 131.961 247.6 131.057C251.226 130.236 255.125 131.389 257.319 133.914C259.154 136.037 259.545 138.816 258.419 141.726C258.39 141.814 258.333 141.89 258.256 141.942C258.18 141.994 258.088 142.018 257.996 142.012Z" fill="#90A5B6"/>
<path d="M250.204 171.899C248.435 171.88 246.693 171.464 245.106 170.681C239.957 168.188 235.908 162.284 238.551 156.256C238.573 156.207 238.603 156.163 238.642 156.126C238.68 156.089 238.725 156.06 238.775 156.041C238.825 156.022 238.877 156.012 238.931 156.013C238.984 156.014 239.036 156.026 239.085 156.047C239.134 156.069 239.178 156.1 239.215 156.138C239.251 156.176 239.28 156.222 239.3 156.271C239.319 156.321 239.328 156.374 239.327 156.427C239.326 156.48 239.315 156.532 239.293 156.581C236.852 162.147 240.647 167.648 245.458 169.946C247.565 171.032 249.985 171.347 252.3 170.838C253.878 170.468 255.273 169.551 256.239 168.249C257.204 166.948 257.677 165.346 257.573 163.729C257.571 163.621 257.611 163.517 257.686 163.439C257.76 163.361 257.862 163.316 257.97 163.312C258.077 163.311 258.181 163.351 258.259 163.425C258.337 163.5 258.383 163.602 258.386 163.709C258.496 165.51 257.965 167.29 256.886 168.736C255.808 170.181 254.252 171.198 252.495 171.606C251.746 171.796 250.976 171.894 250.204 171.899Z" fill="#90A5B6"/>
<path d="M158.579 138.159C158.521 138.158 158.463 138.145 158.411 138.121C158.358 138.096 158.311 138.06 158.273 138.016C154.843 134.012 150.462 130.119 144.108 131.61C142.561 131.997 141.131 132.75 139.937 133.808C138.744 134.865 137.823 136.195 137.253 137.684C137.209 137.774 137.133 137.846 137.04 137.884C136.946 137.923 136.842 137.925 136.747 137.891C136.652 137.857 136.572 137.789 136.524 137.701C136.476 137.612 136.462 137.508 136.485 137.41C137.103 135.793 138.102 134.35 139.398 133.201C140.693 132.053 142.247 131.235 143.926 130.816C150.761 129.221 155.513 133.543 158.898 137.488C158.934 137.528 158.961 137.575 158.979 137.626C158.996 137.677 159.002 137.731 158.998 137.784C158.994 137.838 158.979 137.89 158.954 137.938C158.929 137.985 158.894 138.027 158.853 138.061C158.777 138.128 158.68 138.163 158.579 138.159Z" fill="#90A5B6"/>
<path d="M235.583 123.818C234.563 123.815 233.558 123.567 232.653 123.095C232.558 123.048 232.485 122.964 232.451 122.863C232.416 122.761 232.424 122.651 232.471 122.555C232.52 122.459 232.605 122.386 232.707 122.352C232.809 122.317 232.921 122.325 233.018 122.373C234.225 122.968 235.601 123.129 236.914 122.829C238.226 122.529 239.395 121.786 240.224 120.726C241.041 119.787 241.491 118.585 241.491 117.341C241.491 116.096 241.041 114.894 240.224 113.956C238.271 111.547 234.02 111.072 230.694 111.677C225.551 112.602 219.712 117.093 217.395 121.897C217.348 121.994 217.265 122.068 217.164 122.104C217.062 122.139 216.951 122.133 216.854 122.086C216.758 122.04 216.683 121.956 216.648 121.855C216.613 121.754 216.619 121.643 216.666 121.546C219.081 116.533 225.18 111.846 230.551 110.876C233.851 110.278 238.525 110.597 240.856 113.441C241.79 114.528 242.305 115.914 242.305 117.347C242.305 118.781 241.79 120.166 240.856 121.253C240.219 122.041 239.416 122.679 238.505 123.123C237.594 123.566 236.596 123.803 235.583 123.818Z" fill="#90A5B6"/>
<mask id="mask2_631_436" style="mask-type:luminance" maskUnits="userSpaceOnUse" x="137" y="192" width="126" height="128">
<path d="M262.657 239.802L261.537 241.045L246.154 258.055C239.834 248.941 234.079 237.875 228.578 226.007L226.69 315.842L177.998 319.096L166.352 227.628C164.399 239.444 162.544 251.35 160.324 262.208L139.961 259.793L137.95 259.546C139.35 231.931 143.685 203.451 149.557 196.336C149.729 196.106 149.919 195.888 150.123 195.685C153.118 192.814 156.665 192.32 160.962 192.482C161.762 236.514 228.455 236.801 228.585 193.283C231.026 193.178 233.45 193.727 235.609 194.871C235.889 195.034 236.169 195.203 236.448 195.392L236.852 195.679C245.334 201.824 253.758 220.78 262.657 239.802Z" fill="white"/>
</mask>
<g mask="url(#mask2_631_436)">
<path d="M234.736 224.686C237.601 223.618 239.254 224.224 242.053 223.84C244.306 223.547 246.61 222.492 248.954 221.555C250.585 220.817 252.28 220.231 254.018 219.804C252.989 218.11 252.054 216.361 251.219 214.563C247.08 215.5 243.074 216.947 239.293 218.873C237.325 220.192 235.053 220.987 232.692 221.184C228.678 221.744 224.69 222.134 220.728 222.356C217.57 222.564 214.328 222.251 211.126 222.863C208.665 223.312 206.497 224.282 203.965 224.556C202.338 224.719 200.586 224.601 199.063 224.998C198.301 225.237 197.553 225.52 196.824 225.845C194.717 226.577 192.466 226.8 190.256 226.496C189.398 226.317 188.527 226.21 187.652 226.177C186.519 226.177 185.048 226.496 184.397 226.092C184.13 225.929 184.026 225.689 183.661 225.578C183.38 225.539 183.096 225.539 182.815 225.578C179.521 225.819 175.83 226.229 173.792 227.531C170.761 226.509 167.578 226.009 164.379 226.053C162.978 226 161.579 226.205 160.252 226.658C159.784 226.86 159.439 227.114 158.95 227.309C157.772 227.746 156.534 228.003 155.279 228.071C154.393 228.198 153.494 228.216 152.603 228.123C151.829 227.999 151.236 227.694 150.455 227.55C148.58 227.16 146.419 227.759 144.329 227.759C141.953 227.759 140 226.984 137.677 226.815C137.39 226.815 137.117 226.815 136.843 226.815C136.609 229.217 136.322 231.619 136.017 234.021C139.727 233.682 142.813 231.417 146.855 231.287C149.062 231.202 151.256 231.756 153.365 231.398C154.006 231.246 154.66 231.159 155.318 231.137C155.926 231.195 156.518 231.368 157.062 231.645C158.459 232.147 159.941 232.368 161.424 232.296C163.475 232.211 165.388 231.645 167.387 231.359C170.277 230.929 173.246 231.02 176.155 230.812C181.539 230.441 186.916 229.002 192.163 229.438C194.22 229.607 196.16 230.089 198.269 229.952C199.964 229.779 201.676 229.963 203.294 230.493C204.629 230.812 205.299 230.558 206.725 230.376C210.41 229.848 214.498 230.258 218.345 229.725C220.554 229.409 222.741 228.957 224.894 228.371C226.495 227.96 228.025 227.947 229.561 227.342C231.462 226.574 232.836 225.428 234.736 224.686Z" fill="#FFE287"/>
<path d="M228.8 263.666C228.728 262.189 229.144 260.73 229.984 259.513H229.691C225.213 260.073 220.343 263.289 215.761 263.243C215.343 263.222 214.935 263.113 214.563 262.924C211.732 261.981 208.657 262.087 205.898 263.224C205.286 263.49 204.753 263.809 204.121 264.063C203.348 264.342 202.553 264.56 201.745 264.714C195.034 266.133 187.287 266.094 180.81 268.171C179.892 268.464 179.013 268.822 178.108 269.16C175.206 270.153 172.166 270.682 169.099 270.729C169.744 271.899 170.245 273.143 170.59 274.433C170.824 274.433 171.052 274.394 171.286 274.388C172.425 274.342 173.369 274.603 174.541 274.537C175.843 274.479 177.06 274.199 178.317 274.225C178.822 274.251 179.328 274.251 179.833 274.225C180.499 274.168 181.155 274.028 181.786 273.808L186.499 272.383C187.606 272.031 188.739 271.68 189.884 271.406C191.03 271.133 192.059 270.964 193.139 270.755C195.834 270.3 198.538 269.892 201.25 269.531C203.542 269.239 206.315 268.705 208.411 268.946C214.771 269.668 222.596 268.47 228.988 265.984C228.93 265.242 228.839 264.441 228.8 263.666Z" fill="#FFE287"/>
<path d="M244.618 261.394C246.805 261.082 248.98 260.743 251.128 260.47L251.987 260.366C254.86 257.726 257.554 254.899 260.053 251.903L258.666 252.072C256.738 252.276 254.822 252.578 252.925 252.977C250.776 253.472 248.661 254.116 246.591 254.807C245.041 255.295 243.544 255.392 242.034 256.03C241.568 256.233 241.114 256.461 240.673 256.714C242.498 257.761 243.895 259.419 244.618 261.394Z" fill="#FFE287"/>
<path d="M228.8 263.666C228.766 263.056 228.823 262.444 228.969 261.85L226.176 262.123C222.921 262.423 219.562 262.312 216.294 263.139C213.795 263.79 211.653 264.922 209.062 265.424C207.415 265.736 205.625 265.795 204.115 266.335C203.362 266.648 202.628 267.002 201.914 267.396C199.848 268.331 197.593 268.777 195.327 268.698C194.44 268.605 193.547 268.588 192.658 268.646C191.518 268.77 190.086 269.225 189.338 268.893C189.051 268.763 188.921 268.529 188.543 268.457C188.257 268.446 187.97 268.472 187.691 268.535C184.384 269.102 180.719 269.837 178.766 271.296C175.632 270.498 172.392 270.195 169.164 270.397H168.904C169.882 272.083 170.567 273.924 170.928 275.839C171.455 275.709 171.983 275.585 172.523 275.475C175.446 274.882 178.46 274.778 181.435 274.316C186.897 273.483 192.195 271.491 197.546 271.38C199.649 271.341 201.661 271.608 203.776 271.269C205.469 270.931 207.214 270.951 208.899 271.328C210.266 271.523 210.917 271.224 212.343 270.911C216.014 270.085 220.155 270.195 223.969 269.499C225.766 269.173 227.55 268.744 229.307 268.275C229.054 266.749 228.885 265.211 228.8 263.666Z" fill="#FFE287"/>
<path d="M244.8 261.883C245.024 262.584 245.211 263.297 245.36 264.018C246.18 264.07 247.002 264.07 247.821 264.018C250.956 261.429 253.926 258.646 256.713 255.685C252.832 256.26 249.042 257.336 245.438 258.888C244.879 259.142 244.325 259.402 243.759 259.65C244.196 260.349 244.546 261.099 244.8 261.883Z" fill="#FFE287"/>
<path d="M228.995 293.435C227.289 293.572 225.577 293.722 223.924 294.014C221.717 294.405 219.536 294.945 217.414 295.531C215.813 295.954 214.283 295.98 212.74 296.547C210.787 297.256 209.401 298.35 207.409 299.014C204.46 299.997 202.813 299.281 199.968 299.509C195.411 299.873 190.288 302.907 185.647 302.718C185.223 302.681 184.811 302.56 184.436 302.36C182.294 301.416 178.414 301.286 175.602 302.445C174.951 302.705 174.417 303.011 173.766 303.252C173.406 303.382 173.039 303.49 172.666 303.577C172.79 305.114 172.92 306.754 173.031 308.44C174.68 308.183 176.354 308.121 178.017 308.258C185.614 309.286 195.372 307.809 202.474 304.625C203.837 303.924 205.268 303.363 206.745 302.952C207.604 302.777 208.474 302.658 209.349 302.594C213.489 302.178 217.635 301.787 221.717 301.429C224.152 301.214 226.645 301.221 229.119 300.902C228.869 298.421 228.828 295.923 228.995 293.435Z" fill="#FFE287"/>
<path d="M264.733 240.296C264.233 238.625 263.6 236.997 262.839 235.427C262.291 236.386 261.648 237.287 260.919 238.116C259.721 239.497 258.164 240.52 256.42 241.071C256.106 241.165 255.778 241.207 255.45 241.195C255.277 241.19 255.11 241.129 254.975 241.019C254.839 240.908 254.718 240.779 254.617 240.635C254.526 240.472 254.435 240.348 254.344 240.153L254.064 239.502C253.719 238.591 253.458 237.608 253.191 236.683C252.925 235.759 252.658 234.919 252.391 234.19C252.124 233.461 251.903 232.843 251.655 232.172C251.233 230.894 250.74 229.64 250.178 228.416C249.712 227.502 249.168 226.631 248.55 225.812C247.998 224.992 247.197 224.371 246.265 224.042C245.754 223.901 245.214 223.901 244.703 224.042C244.281 224.153 243.88 224.329 243.512 224.562C242.797 225.01 242.206 225.63 241.793 226.365C241.018 227.919 240.608 229.629 240.595 231.365C240.511 233.318 240.634 235.421 240.764 237.725C240.849 239.209 240.953 240.7 240.934 242.145L240.888 243.232V243.506C240.893 243.571 240.893 243.636 240.888 243.701L240.836 244.059C240.781 244.486 240.694 244.908 240.576 245.322C240.459 245.71 240.249 246.063 239.964 246.35C239.757 246.561 239.517 246.737 239.254 246.871C239.072 246.996 238.866 247.083 238.649 247.125C238.426 247.154 238.2 247.118 237.998 247.021C237.773 246.923 237.571 246.779 237.405 246.598C237.315 246.502 237.232 246.4 237.158 246.292L236.976 245.999C236.898 245.869 236.82 245.738 236.748 245.595C236.24 244.632 236.136 243.642 235.693 242.581L234.932 240.758C234.476 239.578 234.097 238.369 233.799 237.139C233.58 236.179 233.266 235.244 232.862 234.346C232.438 233.447 231.807 232.662 231.019 232.055C230.233 231.435 229.323 230.991 228.35 230.753C227.201 230.482 225.992 230.65 224.959 231.222C224.323 231.633 223.772 232.163 223.338 232.784L222.993 233.233L222.674 233.761C222.459 234.086 222.277 234.503 222.082 234.88C221.357 236.51 220.769 238.198 220.324 239.925C220.168 240.472 220.024 241.032 219.881 241.585L219.536 242.939L218.97 245.159L218.384 247.34C218.137 248.219 218.065 248.401 217.941 248.765C217.755 249.341 217.518 249.899 217.232 250.432C216.952 250.888 216.581 251.252 216.093 250.712C215.904 250.436 215.763 250.13 215.676 249.807C215.593 249.541 215.532 249.269 215.494 248.993C215.445 248.636 215.458 248.272 215.533 247.919C215.561 247.767 215.631 247.625 215.735 247.509L215.696 247.32L215.604 246.917L215.422 246.09L215.22 245.224L214.953 244.15L214.797 243.571L214.55 242.718L214.042 241.032L213.391 239.457L213.072 238.682L212.701 237.992C212.454 237.543 212.206 237.087 211.952 236.651L211.106 235.57C210.975 235.389 210.834 235.215 210.683 235.049L210.234 234.626C209.952 234.34 209.649 234.075 209.329 233.832C208.216 232.943 206.847 232.434 205.423 232.38C204.72 232.344 204.018 232.476 203.376 232.766C202.734 233.056 202.17 233.495 201.732 234.047C200.476 235.577 199.844 237.862 199.226 240.374C198.874 241.754 198.536 243.148 198.217 244.541L197.768 246.552L197.572 247.385L197.475 247.795L197.41 248.01C197.292 248.467 197.112 248.905 196.876 249.312C196.688 249.636 196.47 249.941 196.225 250.224C195.991 250.451 195.763 250.679 195.418 250.64C195.073 250.601 194.923 250.165 194.838 249.82C194.752 249.501 194.698 249.174 194.676 248.844C194.676 248.564 194.676 248.349 194.611 248.193C194.6 248.112 194.578 248.033 194.545 247.958L194.487 247.848C194.487 247.848 194.487 247.848 194.435 247.756L194.311 247.437C193.768 246.153 193.16 244.897 192.488 243.675L191.499 241.761L190.998 240.732L190.347 239.346C189.788 238.013 189.064 236.755 188.192 235.603C187.793 235.097 187.316 234.658 186.779 234.301C186.291 233.95 185.731 233.712 185.139 233.604C184.547 233.529 183.947 233.59 183.382 233.783C182.818 233.976 182.306 234.296 181.884 234.717C179.716 236.67 177.861 240.368 176.481 242.119C175.833 242.898 175.264 243.74 174.782 244.632C174.203 245.797 173.773 247.392 173.07 247.887C172.796 248.082 172.53 248.082 172.256 248.381C172.084 248.634 171.944 248.908 171.84 249.195L170.765 251.636C170.368 252.502 170.004 253.355 169.691 254.168C169.084 255.58 168.68 257.07 168.494 258.595L166.899 259.786C166.719 259.941 166.511 260.06 166.287 260.138C166.117 260.21 165.955 260.262 165.805 260.314C165.344 260.508 164.827 260.526 164.353 260.366C164.223 260.297 164.107 260.201 164.015 260.086C163.728 259.721 163.65 259.435 163.156 259.259C162.919 259.183 162.698 259.064 162.505 258.908C161.925 258.042 161.632 256.525 161.43 255.106C161.261 254.135 161.206 253.147 161.268 252.164C161.365 251.291 161.652 250.627 161.775 249.748C161.908 248.618 161.881 247.474 161.697 246.35C161.606 245.751 161.522 245.14 161.43 244.534C161.32 243.72 161.209 242.907 161.098 242.106C160.944 240.154 160.535 238.23 159.881 236.384C159.57 235.577 159.101 234.84 158.501 234.216C158.188 233.903 157.833 233.633 157.447 233.416C157.024 233.2 156.572 233.047 156.106 232.96C155.152 232.837 154.183 232.989 153.313 233.396C152.451 233.799 151.667 234.35 150.995 235.023C150.635 235.369 150.294 235.734 149.973 236.117C149.648 236.501 149.322 236.885 149.016 237.308C148.71 237.731 148.365 238.122 148.086 238.571C147.806 239.02 147.5 239.365 147.2 239.782L146.601 240.596C146.419 240.85 146.25 241.097 146.094 241.357C145.722 242.164 145.411 242.998 145.163 243.851C144.735 244.743 144.214 245.588 143.607 246.37C141.927 248.746 140.293 251.128 138.803 253.4C137.423 255.49 135.958 257.619 134.591 259.832L134.63 260.21L135.034 260.398C135.966 260.894 136.774 261.595 137.397 262.449C137.455 262.384 137.507 262.319 137.566 262.26C138.497 261.284 139.395 261.355 140.365 260.542C141.422 259.506 142.205 258.224 142.643 256.811C143.08 255.464 143.216 254.331 143.691 253.016C144.47 251.024 145.587 249.181 146.992 247.568C147.681 246.744 148.413 245.957 149.186 245.211C149.548 244.849 149.928 244.506 150.325 244.183L150.898 243.733L151.432 243.369L151.757 243.161C151.829 243.133 151.903 243.109 151.978 243.089L152.369 242.998C152.578 242.97 152.783 242.919 152.981 242.848C153.319 242.718 153.515 242.373 153.964 241.885C154.19 241.647 154.472 241.47 154.784 241.37C155.051 241.299 155.331 241.299 155.598 241.37C155.911 241.471 156.201 241.636 156.447 241.855C156.694 242.073 156.892 242.34 157.03 242.64C157.258 243.052 157.44 243.489 157.57 243.942C157.733 244.556 157.842 245.183 157.896 245.817C158.117 248.258 157.603 250.718 158.039 253.107C158.211 253.82 158.327 254.545 158.384 255.275C158.357 255.962 158.225 256.64 157.993 257.287C157.806 258.073 157.719 258.88 157.733 259.689C157.788 260.93 158.034 262.155 158.462 263.321C158.661 263.833 158.912 264.324 159.211 264.786C161.142 264.96 163.018 265.518 164.731 266.426C164.92 266.53 165.089 266.654 165.271 266.765C167.061 265.879 168.526 264.265 169.828 262.553L170.251 261.987L170.629 261.459C170.876 261.108 171.117 260.756 171.351 260.398C171.82 259.682 172.263 258.953 172.653 258.211C173.387 256.86 174.05 255.472 174.639 254.051C175.29 252.626 175.791 251.161 176.299 249.729C177.314 246.891 178.349 244.065 180.061 241.826L180.543 241.247L180.979 240.824C181.246 240.592 181.524 240.375 181.812 240.173C182.306 239.759 182.874 239.443 183.485 239.242C183.653 239.205 183.826 239.211 183.99 239.26C184.154 239.309 184.303 239.399 184.423 239.522C184.623 239.714 184.774 239.95 184.865 240.212C185.052 240.755 185.117 241.333 185.054 241.904C185.008 242.175 185.033 242.453 185.126 242.711C185.276 243.076 185.542 243.584 185.835 244.287C186.219 245.235 186.541 246.207 186.799 247.197C186.936 247.704 187.066 248.225 187.202 248.739L187.398 249.534C187.463 249.813 187.502 250.009 187.645 250.517C188.099 252.283 188.655 254.022 189.312 255.724C189.845 257.159 190.675 258.466 191.746 259.559C192.247 260.041 192.826 260.435 193.458 260.724C194.158 261.054 194.939 261.17 195.704 261.056C197.299 260.737 198.308 259.754 199.258 258.491C199.98 257.49 200.616 256.429 201.159 255.321C201.769 254.109 202.208 252.819 202.461 251.486C202.579 250.661 202.629 249.827 202.611 248.993C202.623 248.842 202.623 248.689 202.611 248.538L202.565 248.147L202.468 247.372L202.305 246.467C202.272 246.266 202.233 246.064 202.201 245.856C202.126 245.426 202.091 244.99 202.097 244.554C202.05 243.527 202.333 242.512 202.904 241.657C203.102 241.401 203.342 241.181 203.613 241.006C203.912 240.798 204.248 240.65 204.603 240.57C204.986 240.535 205.369 240.631 205.69 240.843C206 241.02 206.296 241.22 206.575 241.442C207.203 241.928 207.735 242.526 208.144 243.206C209.127 244.684 209.934 247.229 210.39 250.159C210.453 250.751 210.473 251.347 210.449 251.942C210.491 254.176 211.318 256.324 212.786 258.009C212.967 258.239 213.174 258.447 213.404 258.628L214.055 259.174C214.523 259.456 215.018 259.69 215.533 259.871C216.078 260.024 216.654 260.024 217.199 259.871C217.694 259.698 218.14 259.41 218.501 259.031C219.119 258.339 219.618 257.549 219.979 256.694C220.524 255.574 220.996 254.419 221.392 253.238C221.815 251.936 222.199 250.634 222.563 249.267C222.83 248.303 223.097 247.314 223.37 246.357C223.644 245.4 223.924 244.404 224.204 243.46L224.718 241.937C224.887 241.449 225.063 240.973 225.252 240.498C225.43 239.993 225.682 239.516 226 239.085C226.175 238.884 226.407 238.741 226.666 238.676C226.924 238.611 227.196 238.626 227.446 238.721C227.849 238.912 228.21 239.182 228.507 239.515C228.929 239.906 229.307 240.343 229.633 240.817C229.913 241.221 230.225 241.709 230.538 242.236C230.681 242.484 230.876 242.835 231.052 243.161L231.586 244.144C232.295 245.445 232.985 246.747 233.766 248.049C234.565 249.488 235.656 250.743 236.969 251.734C237.673 252.217 238.505 252.479 239.358 252.489C240.222 252.468 241.063 252.206 241.786 251.734C243.354 250.703 244.507 249.151 245.041 247.353C245.178 246.904 245.328 246.389 245.425 245.953C245.523 245.517 245.608 245.127 245.666 244.768L245.751 244.241C245.751 244.059 245.809 243.864 245.823 243.805C245.862 243.616 245.901 243.44 245.927 243.265C246.161 241.859 246.018 240.993 245.777 238.877C245.712 238.194 245.588 237.256 245.582 236.364C245.575 235.473 245.679 234.633 246.044 234.444C246.408 234.255 246.747 234.665 247.164 235.388C247.583 236.212 247.891 237.087 248.081 237.992C248.407 239.417 248.524 240.4 248.615 241.051C248.706 241.702 248.745 242.047 248.797 242.269C248.908 242.672 249.058 242.718 249.702 243.226C249.762 243.283 249.817 243.347 249.865 243.414L250.093 243.681C250.331 243.977 250.59 244.255 250.868 244.515C251.453 245.09 252.142 245.549 252.899 245.869C253.673 246.196 254.506 246.362 255.346 246.357C255.717 246.355 256.087 246.324 256.453 246.266C256.789 246.219 257.121 246.151 257.449 246.064C258.453 245.808 259.433 245.466 260.378 245.042C261.263 244.665 262.122 244.23 262.95 243.74C263.682 243.274 264.386 242.765 265.059 242.217C265.026 241.566 264.917 240.921 264.733 240.296Z" fill="#FFD8E0"/>
<path d="M168.76 206.758C168.513 207.09 168.253 207.409 167.986 207.709C167.345 208.336 166.757 209.015 166.228 209.74C165.577 210.71 164.998 212.064 164.275 212.402C163.989 212.526 163.715 212.493 163.481 212.617C163.327 212.746 163.2 212.906 163.11 213.086L162.661 213.808L162.4 214.251C162.238 214.57 162.036 214.902 161.834 215.312C161.305 216.454 160.636 217.525 159.842 218.502C159.505 217.878 159.347 217.172 159.386 216.464C159.403 215.847 159.477 215.232 159.608 214.628C159.836 213.6 160.063 213.007 160.174 212.565V212.422V211.953C160.174 211.621 160.174 211.263 160.174 210.911C160.161 210.251 160.065 209.595 159.888 208.958C159.738 208.47 159.53 208.099 159.386 207.598C159.086 206.352 158.985 205.067 159.087 203.79C159.087 203.321 159.12 202.839 159.152 202.358C159.174 201.919 159.237 201.483 159.341 201.056C159.556 200.301 159.94 199.754 160.174 198.94C160.33 198.432 160.426 197.908 160.461 197.378C160.461 197.091 160.461 196.818 160.5 196.499C160.539 196.18 160.5 195.679 160.454 195.236C160.371 193.576 159.886 191.961 159.041 190.529C158.937 190.367 158.827 190.21 158.716 190.061C157.508 190.194 156.308 190.396 155.123 190.666C152.631 191.148 150.239 192.046 148.047 193.322C147.936 193.387 147.5 193.687 147.226 193.875C146.881 194.169 146.557 194.486 146.256 194.826C146.256 195.262 146.725 194.338 146.256 194.826C146.145 195.881 145.865 196.912 145.43 197.879C145.742 197.729 146.081 197.579 146.354 197.456C147.323 197.122 148.272 196.735 149.199 196.297C150.029 195.865 150.812 195.348 151.536 194.754C151.725 194.565 151.978 194.299 152.187 194.103C152.411 193.835 152.664 193.593 152.942 193.381C153.267 193.09 153.658 192.884 154.082 192.782C154.506 192.68 154.948 192.684 155.37 192.795C156.203 193.107 156.672 194.032 156.724 195.086C156.754 195.578 156.732 196.071 156.659 196.557C156.594 197.098 156.49 197.645 156.392 198.185C156.145 199.274 156.031 200.389 156.053 201.505C156.133 202.153 156.133 202.809 156.053 203.458C155.916 204.068 155.669 204.648 155.324 205.17C154.652 206.554 154.264 208.059 154.185 209.596C154.156 210.128 154.156 210.66 154.185 211.191C154.185 211.452 154.185 211.732 154.237 211.998L154.315 212.923C154.436 214.282 154.627 215.633 154.888 216.972C155.121 218.692 155.683 220.352 156.542 221.861C156.755 222.234 157.049 222.555 157.403 222.8C157.757 223.044 158.161 223.206 158.586 223.273C159.419 223.316 160.243 223.088 160.936 222.622C161.272 222.435 161.59 222.217 161.886 221.971C162.222 221.711 162.527 221.414 162.798 221.086L163.676 220.116L164.106 219.628L164.503 219.055C165.004 218.3 165.571 217.525 165.974 216.835L167.146 214.804C168.154 212.857 169.271 210.968 170.492 209.147C169.926 208.327 169.333 207.559 168.76 206.758Z" fill="#FFD8E0"/>
<path d="M240.087 194.78C239.338 194.361 238.567 193.983 237.776 193.648C237.372 195.672 236.79 197.656 236.038 199.578C235.693 200.424 235.316 201.192 234.912 202.019C234.496 202.95 234.157 203.803 233.838 204.623L232.972 206.882C232.955 206.934 232.929 206.982 232.894 207.025L232.842 207.11C232.806 207.162 232.774 207.216 232.744 207.273C232.681 207.379 232.631 207.493 232.595 207.611C232.474 208.148 232.324 208.679 232.146 209.199C232.102 209.353 232.021 209.494 231.91 209.609C231.798 209.723 231.66 209.808 231.507 209.856C231.354 209.903 231.192 209.911 231.035 209.879C230.878 209.848 230.732 209.777 230.609 209.675C230.253 209.414 229.985 209.051 229.841 208.633C229.753 208.424 229.687 208.206 229.646 207.982L229.49 207.214C229.34 206.485 229.197 205.749 229.053 205.014C228.91 204.278 228.741 203.393 228.539 202.566C227.999 200.405 227.153 198.198 226.521 195.887C225.703 197.943 224.744 199.94 223.65 201.863C223.748 202.612 223.846 203.367 223.95 204.128C224.139 205.476 224.347 206.843 224.679 208.223C224.738 208.548 224.881 208.965 224.998 209.356L225.18 209.955L225.278 210.254L225.421 210.586L226.013 211.927C226.235 212.363 226.502 212.754 226.756 213.17C227.005 213.576 227.297 213.954 227.628 214.297L228.103 214.83L228.637 215.26C229.315 215.853 230.118 216.285 230.987 216.523C231.412 216.63 231.851 216.672 232.289 216.647C232.741 216.609 233.183 216.488 233.591 216.289C234.385 215.872 235.071 215.277 235.596 214.55C236.329 213.564 236.897 212.465 237.275 211.296C237.458 210.71 237.62 210.124 237.757 209.531L237.978 208.653L238.095 208.21L238.2 207.845C238.618 206.679 239.208 205.582 239.951 204.591L240.647 203.503C240.9 203.047 241.128 202.578 241.331 202.097C241.78 201.039 242.158 199.951 242.463 198.842C242.743 197.853 242.978 196.824 243.18 195.789C242.093 195.659 241.042 195.316 240.087 194.78Z" fill="#FFD8E0"/>
<path d="M229.158 291.886C229.158 291.814 229.158 291.743 229.158 291.671C229.075 291.712 228.988 291.74 228.897 291.756C228.675 291.782 228.449 291.746 228.246 291.651C228.023 291.551 227.821 291.407 227.654 291.228C227.564 291.133 227.481 291.031 227.406 290.922L227.224 290.629C227.146 290.499 227.068 290.369 226.996 290.226C226.489 289.262 226.384 288.273 225.942 287.212L225.18 285.383C224.723 284.205 224.345 282.998 224.047 281.77C223.83 280.81 223.516 279.874 223.11 278.977C222.688 278.077 222.057 277.291 221.268 276.686C220.482 276.066 219.571 275.622 218.599 275.384C217.449 275.116 216.241 275.283 215.207 275.852C214.574 276.267 214.024 276.797 213.586 277.415L213.241 277.87L212.922 278.391C212.708 278.723 212.525 279.133 212.33 279.517C211.606 281.148 211.018 282.835 210.572 284.562C210.416 285.109 210.273 285.663 210.13 286.222L209.785 287.576L209.218 289.796L208.632 291.977C208.385 292.856 208.313 293.038 208.19 293.396C208.005 293.974 207.767 294.534 207.48 295.069C207.2 295.525 206.829 295.883 206.341 295.342C206.152 295.069 206.011 294.765 205.924 294.444C205.842 294.178 205.781 293.906 205.742 293.63C205.693 293.273 205.706 292.909 205.781 292.556C205.808 292.403 205.878 292.261 205.983 292.146L205.944 291.951L205.853 291.554L205.671 290.727L205.469 289.855L205.202 288.781L205.046 288.208L204.798 287.355L204.29 285.663L203.639 284.094L203.321 283.313L202.949 282.629C202.702 282.18 202.455 281.718 202.201 281.288L201.355 280.201C201.211 280.032 201.081 279.83 200.931 279.687L200.482 279.263C200.2 278.977 199.898 278.712 199.577 278.469C198.466 277.577 197.096 277.068 195.672 277.018C194.968 276.981 194.266 277.113 193.624 277.403C192.982 277.693 192.418 278.132 191.981 278.684C190.724 280.214 190.093 282.499 189.474 285.012C189.123 286.392 188.784 287.785 188.465 289.178L188.016 291.189L187.821 292.023L187.723 292.433L187.658 292.647C187.54 293.104 187.361 293.542 187.124 293.949C186.938 294.272 186.72 294.575 186.473 294.854C186.381 294.983 186.26 295.088 186.12 295.161C185.98 295.235 185.824 295.275 185.666 295.277C185.367 295.238 185.171 294.802 185.087 294.457C185.001 294.138 184.947 293.811 184.924 293.481C184.924 293.201 184.891 292.986 184.859 292.83C184.848 292.751 184.826 292.674 184.794 292.602L184.735 292.491C184.735 292.459 184.735 292.491 184.683 292.394L184.559 292.081C184.015 290.795 183.407 289.537 182.737 288.312L181.747 286.405L181.246 285.376L180.595 283.983C180.035 282.651 179.311 281.393 178.44 280.24C178.039 279.736 177.563 279.297 177.028 278.938C176.538 278.592 175.978 278.356 175.387 278.248C174.796 278.173 174.195 278.234 173.631 278.427C173.067 278.62 172.554 278.939 172.132 279.361C171.918 279.556 171.709 279.778 171.481 280.012C171.605 281.496 171.677 282.974 171.729 284.38C171.729 284.595 171.729 284.81 171.729 285.031C171.826 284.953 171.918 284.875 172.015 284.81C172.507 284.394 173.075 284.078 173.688 283.879C173.855 283.84 174.03 283.846 174.194 283.895C174.358 283.944 174.507 284.035 174.626 284.159C174.825 284.348 174.977 284.583 175.068 284.842C175.255 285.388 175.319 285.968 175.257 286.541C175.211 286.81 175.236 287.086 175.329 287.342C175.478 287.707 175.745 288.221 176.038 288.924C176.422 289.87 176.743 290.84 177.002 291.827C177.138 292.341 177.269 292.856 177.405 293.377L177.601 294.171C177.666 294.451 177.705 294.646 177.848 295.147C178.3 296.915 178.856 298.654 179.514 300.355C180.045 301.791 180.874 303.099 181.949 304.189C182.45 304.674 183.028 305.07 183.661 305.361C184.361 305.689 185.143 305.803 185.907 305.686C187.502 305.374 188.511 304.384 189.461 303.122C190.183 302.123 190.819 301.064 191.362 299.958C191.971 298.746 192.409 297.456 192.664 296.124C192.782 295.296 192.832 294.46 192.814 293.624C192.826 293.474 192.826 293.324 192.814 293.175L192.768 292.778L192.671 292.003L192.573 291.235C192.54 291.033 192.501 290.825 192.469 290.623C192.394 290.193 192.36 289.757 192.365 289.321C192.318 288.294 192.601 287.279 193.172 286.424C193.368 286.167 193.609 285.947 193.881 285.773C194.179 285.563 194.515 285.412 194.871 285.331C195.253 285.302 195.635 285.398 195.958 285.604C196.267 285.785 196.562 285.988 196.843 286.209C197.471 286.695 198.003 287.293 198.412 287.973C199.395 289.445 200.202 291.99 200.658 294.919C200.721 295.514 200.741 296.112 200.717 296.709C200.76 298.943 201.587 301.091 203.054 302.777C203.235 303.004 203.442 303.21 203.672 303.388L204.323 303.942C204.791 304.222 205.286 304.453 205.801 304.632C206.345 304.788 206.923 304.788 207.467 304.632C207.961 304.461 208.407 304.175 208.769 303.799C209.387 303.106 209.886 302.317 210.247 301.462C210.791 300.341 211.263 299.186 211.659 298.005C212.083 296.703 212.467 295.401 212.831 294.034L213.638 291.118L214.472 288.221L214.986 286.704C215.155 286.216 215.331 285.741 215.52 285.265C215.696 284.759 215.949 284.283 216.268 283.853C216.442 283.65 216.674 283.506 216.933 283.44C217.191 283.373 217.464 283.388 217.713 283.482C218.116 283.677 218.476 283.949 218.775 284.282C219.197 284.673 219.575 285.11 219.901 285.584C220.181 285.995 220.493 286.476 220.806 287.01C220.949 287.251 221.144 287.609 221.32 287.934L221.854 288.911C222.563 290.213 223.253 291.515 224.034 292.817C224.829 294.258 225.921 295.514 227.237 296.501C227.73 296.821 228.281 297.042 228.858 297.152C228.823 295.392 228.923 293.631 229.158 291.886Z" fill="#FFD8E0"/>
</g>
<path style="mix-blend-mode:multiply" d="M140.04 305.869C119.859 291.586 108.917 265.508 101.743 234.665L86.1716 242.62C82.5587 245.777 81.6148 245.087 81.3089 240.179C78.3014 241.422 77.1036 239.723 78.054 235.303C75.5673 235.186 74.2393 232.55 76.4461 228.794C72.6184 226.899 68.7256 225.942 66.8182 223.586C62.678 218.508 60.8749 214.179 61.0506 212.519C61.058 212.426 61.0777 212.334 61.1092 212.246C62.333 214.075 63.6675 215.878 65.1517 217.721C70.2358 224.041 77.0775 225.272 84.9152 225.968C92.2387 226.619 97.5767 225.708 103.338 231.345C115.661 243.382 123.231 260.789 129.552 276.51C133.445 286.177 136.772 296.006 140.04 305.869Z" fill="url(#paint2_linear_631_436)"/>
<path d="M85.5141 217.766C85.271 219.266 84.8874 220.739 84.3684 222.167C82.8712 226.515 80.2868 231.43 78.0345 235.336C75.5413 235.225 74.2068 232.589 76.407 228.826C77.2859 226.841 78.1972 224.588 79.0956 222.414C80.1176 219.94 81.1331 217.564 82.064 215.761C82.9949 213.958 83.8216 212.793 84.5247 212.597C85.6118 213.711 85.8396 215.54 85.5141 217.766Z" fill="#9B5E35"/>
<path d="M81.2763 240.205C78.2753 241.455 77.0775 239.762 78.0214 235.336C85.3253 229.659 91.4315 224.855 95.0639 225.571C95.4805 227.667 87.773 233.715 81.2763 240.205Z" fill="#9B5E35"/>
<path d="M96.6979 230.467C96.6979 233.142 91.0475 237.66 86.1456 242.64C82.5393 245.81 81.5888 245.12 81.2764 240.205C86.9528 235.954 93.5277 231.248 96.6979 230.467Z" fill="#9B5E35"/>
<path style="mix-blend-mode:multiply" d="M228.585 193.309C228.552 203.022 225.206 210.566 220.005 215.911C211.119 214.453 202.344 210.339 198.809 203.119C195.652 196.694 197.039 190.1 199.63 183.74C200.437 181.748 201.381 179.489 202.435 177.126L203.008 177.451C204.652 177.237 206.269 176.851 207.832 176.299L202.891 199.493C211.783 197.098 221.183 193.348 228.585 193.309Z" fill="url(#paint3_linear_631_436)"/>
<path style="mix-blend-mode:multiply" d="M219.608 141.433C212.506 143.386 205.723 147.292 200.333 151.699C196.493 154.786 193.235 158.534 190.711 162.765C190.31 161.241 190.036 159.687 189.891 158.118C178.388 160.819 181.598 137.391 190.431 149.193C199.838 146.101 207.142 141.101 210.045 134.585C213.93 135.691 217.31 138.112 219.608 141.433Z" fill="url(#paint4_linear_631_436)"/>
<g style="mix-blend-mode:screen">
<path d="M211.451 156.666C211.275 156.472 211.076 156.299 210.859 156.152C210.143 155.67 209.908 156.327 209.889 156.959C209.889 157.312 209.915 157.664 209.967 158.013C210.026 158.541 210.195 158.749 210.787 158.775C210.946 158.781 211.105 158.754 211.253 158.693C211.4 158.633 211.533 158.542 211.642 158.426C211.752 158.31 211.835 158.172 211.886 158.021C211.937 157.87 211.955 157.71 211.939 157.551C211.862 157.216 211.693 156.91 211.451 156.666Z" fill="#9B5E35"/>
</g>
<path d="M152.428 166.932C149.544 166.932 146.732 166.281 144.525 164.471C143.503 163.665 142.661 162.655 142.052 161.505C141.444 160.355 141.082 159.09 140.99 157.792C140.942 156.861 141.1 155.93 141.454 155.067C141.807 154.204 142.347 153.43 143.034 152.799C143.112 152.724 143.216 152.682 143.324 152.682C143.432 152.682 143.536 152.724 143.613 152.799C143.651 152.837 143.681 152.881 143.702 152.93C143.722 152.98 143.733 153.032 143.733 153.086C143.733 153.139 143.722 153.192 143.702 153.241C143.681 153.29 143.651 153.334 143.613 153.372C143.013 153.924 142.541 154.602 142.232 155.357C141.922 156.111 141.783 156.925 141.823 157.74C141.914 158.924 142.251 160.076 142.811 161.122C143.372 162.169 144.144 163.088 145.078 163.82C149.511 167.387 156.672 166.209 161.463 164.12C167.537 161.464 171.735 156.666 172.992 150.963C173.015 150.859 173.079 150.767 173.169 150.709C173.259 150.65 173.368 150.63 173.474 150.651C173.579 150.676 173.67 150.741 173.729 150.832C173.787 150.923 173.807 151.033 173.786 151.139C172.484 157.096 168.103 162.102 161.789 164.862C158.838 166.172 155.655 166.876 152.428 166.932Z" fill="#90A5B6"/>
<path d="M203.164 129.768C203.08 129.767 202.998 129.739 202.93 129.69C202.886 129.659 202.848 129.62 202.82 129.575C202.791 129.529 202.772 129.479 202.764 129.426C202.755 129.373 202.757 129.319 202.77 129.267C202.783 129.215 202.807 129.166 202.839 129.123C205.892 124.866 206.009 116.911 203.093 112.439C201.823 110.486 199.415 108.364 195.131 109.262C195.027 109.283 194.918 109.262 194.829 109.204C194.74 109.145 194.678 109.054 194.656 108.95C194.645 108.897 194.644 108.843 194.653 108.791C194.663 108.738 194.683 108.688 194.712 108.643C194.741 108.599 194.779 108.56 194.823 108.53C194.867 108.5 194.916 108.479 194.969 108.468C199.695 107.478 202.364 109.835 203.77 111.996C206.849 116.709 206.719 125.1 203.496 129.572C203.462 129.63 203.413 129.678 203.355 129.712C203.297 129.746 203.232 129.765 203.164 129.768Z" fill="#90A5B6"/>
<path d="M184.013 135.08C181.549 135.066 179.101 134.7 176.741 133.992C171.345 132.391 166.905 128.57 164.874 123.772C163.331 120.146 162.68 114.659 165.916 111.117C167.738 109.125 170.01 108.364 172.308 108.969C173.561 109.326 174.696 110.01 175.598 110.95C176.499 111.89 177.134 113.053 177.438 114.32C177.705 115.456 177.642 116.646 177.256 117.747C176.869 118.849 176.176 119.817 175.257 120.537C175.176 120.608 175.07 120.643 174.963 120.636C174.855 120.629 174.755 120.579 174.684 120.498C174.613 120.417 174.578 120.311 174.585 120.203C174.592 120.096 174.642 119.996 174.723 119.925C175.534 119.303 176.148 118.461 176.495 117.5C176.841 116.539 176.904 115.498 176.676 114.502C176.399 113.381 175.832 112.353 175.033 111.52C174.233 110.687 173.228 110.079 172.119 109.757C170.127 109.23 168.142 109.907 166.534 111.664C163.559 114.919 164.197 120.049 165.642 123.46C167.595 128.017 171.827 131.682 176.989 133.224C182.952 134.995 191.239 135.047 194.962 129.319C194.986 129.263 195.021 129.214 195.066 129.175C195.11 129.135 195.164 129.106 195.221 129.089C195.279 129.072 195.339 129.069 195.398 129.078C195.457 129.088 195.513 129.11 195.563 129.144C195.612 129.178 195.653 129.223 195.683 129.275C195.713 129.327 195.731 129.384 195.736 129.444C195.74 129.504 195.732 129.564 195.711 129.62C195.69 129.676 195.656 129.726 195.613 129.768C193.042 133.693 188.57 135.08 184.013 135.08Z" fill="#90A5B6"/>
<path d="M188.12 150.286C188.927 151.588 188.29 153.541 186.2 153.769L185.152 156.503L183.479 156.451C184.013 151.38 186.2 148.503 188.12 150.286Z" fill="#DD4545"/>
<path d="M224.464 157.812C222.947 158.274 222.147 160.149 223.611 161.717L222.596 164.445L223.93 165.506C226.938 161.346 227.159 157.733 224.464 157.812Z" fill="#DD4545"/>
<path d="M208.951 166.593C208.182 166.593 207.421 166.431 206.719 166.118C206.669 166.097 206.624 166.066 206.587 166.027C206.549 165.988 206.52 165.942 206.501 165.891C206.483 165.841 206.474 165.787 206.477 165.733C206.479 165.679 206.493 165.626 206.517 165.578C206.561 165.48 206.642 165.404 206.742 165.366C206.842 165.328 206.953 165.332 207.051 165.376C207.85 165.734 208.735 165.858 209.602 165.734C209.655 165.726 209.709 165.729 209.76 165.742C209.812 165.755 209.86 165.778 209.903 165.81C209.945 165.841 209.981 165.881 210.008 165.927C210.036 165.972 210.054 166.023 210.061 166.076C210.069 166.128 210.066 166.182 210.053 166.233C210.04 166.285 210.017 166.333 209.985 166.376C209.954 166.418 209.914 166.454 209.868 166.482C209.823 166.509 209.772 166.527 209.72 166.535C209.465 166.573 209.209 166.593 208.951 166.593Z" fill="#F76666"/>
<path d="M230.473 76.2968C230.127 76.0315 229.758 75.7963 229.372 75.5937C228.986 75.4382 228.591 75.3078 228.188 75.2032C227.417 75.042 226.625 75.009 225.844 75.1055C224.352 75.2554 222.95 75.8912 221.854 76.9152C221.088 77.6337 220.573 78.578 220.382 79.6102C220.263 79.8287 220.184 80.0668 220.148 80.3133C220.091 80.7135 220.188 81.1205 220.418 81.4525C220.649 81.7846 220.997 82.0171 221.391 82.1035C222.941 82.3183 224.334 80.4239 224.06 78.9788C223.846 77.794 222.804 77.7745 221.925 78.1521C222.082 77.9442 222.266 77.7581 222.472 77.5987C223.438 76.8355 224.656 76.4658 225.883 76.5637C226.428 76.5887 226.961 76.7391 227.438 77.0033C227.916 77.2675 228.326 77.6383 228.637 78.087C229.091 78.9288 229.268 79.8922 229.145 80.8406C228.988 82.7935 227.843 85.0589 226.384 87.2201C224.817 89.3991 222.922 91.3227 220.767 92.9226C220.68 92.9917 220.625 93.0922 220.613 93.2021C220.6 93.3119 220.632 93.4222 220.701 93.5085C220.77 93.5948 220.871 93.6502 220.981 93.6624C221.091 93.6746 221.201 93.6426 221.287 93.5736C223.364 91.855 225.688 90.4359 227.908 88.6718C229.075 87.7789 230.108 86.7221 230.974 85.5341C231.917 84.1966 232.449 82.6128 232.504 80.9773C232.535 80.0951 232.369 79.217 232.018 78.4072C231.666 77.5974 231.138 76.8763 230.473 76.2968Z" fill="#283B4B"/>
<path d="M236.162 78.0285C235.977 77.8842 235.745 77.8145 235.511 77.8332C234.828 77.8787 234.125 78.5362 234.418 79.2458C235.088 80.8667 237.477 79.083 236.162 78.0285Z" fill="#283B4B"/>
<path d="M235.147 85.1827C234.962 85.0385 234.729 84.9688 234.496 84.9874C233.812 85.0265 233.116 85.6904 233.402 86.4C234.072 88.0144 236.462 86.2373 235.147 85.1827Z" fill="#283B4B"/>
<path d="M285.493 71.6034L284.191 75.4571H284.262L280.357 87.0184C280.221 86.8022 280.024 86.632 279.79 86.5302C279.313 86.365 278.807 86.2967 278.303 86.3291C277.799 86.3615 277.307 86.494 276.854 86.719C276.614 86.8276 276.398 86.9839 276.22 87.1782C276.042 87.3726 275.904 87.6011 275.817 87.8499C275.729 88.0987 275.693 88.3627 275.71 88.6259C275.727 88.8891 275.798 89.1462 275.917 89.3814C276.672 90.6834 278.553 89.9087 279.497 89.3228L279.725 89.1796C279.744 89.2373 279.777 89.2896 279.82 89.3326C279.863 89.3755 279.915 89.4078 279.973 89.427C280.015 89.4361 280.06 89.4361 280.103 89.427C280.188 89.426 280.271 89.3985 280.339 89.3484C280.408 89.2982 280.46 89.2278 280.487 89.1471L285.096 75.4767L292.79 75.6459L289.073 86.7125C288.93 86.4527 288.699 86.2521 288.422 86.1461C287.483 85.8293 286.456 85.8947 285.564 86.3284C285.325 86.4377 285.109 86.5943 284.932 86.789C284.754 86.9836 284.618 87.2122 284.531 87.4609C284.444 87.7097 284.408 87.9735 284.426 88.2364C284.443 88.4993 284.514 88.756 284.634 88.9909C285.382 90.2928 287.27 89.5181 288.214 88.9258L288.435 88.7891C288.418 88.8395 288.411 88.8928 288.414 88.9461C288.417 88.9993 288.431 89.0513 288.455 89.0991C288.479 89.1469 288.511 89.1896 288.552 89.2247C288.592 89.2597 288.638 89.2864 288.689 89.3033C288.732 89.3101 288.776 89.3101 288.819 89.3033C288.905 89.3033 288.988 89.2762 289.057 89.2259C289.126 89.1756 289.177 89.1047 289.203 89.0234L293.702 75.6394L295.004 71.7857L285.493 71.6034Z" fill="#283B4B"/>
<path d="M272.636 59.9705C272.371 59.5991 272.14 59.2048 271.946 58.7922C271.559 57.9541 271.396 57.0302 271.471 56.1102C271.477 56.0344 271.462 55.9583 271.428 55.8905C271.393 55.8226 271.34 55.7657 271.276 55.7262C271.181 55.6684 271.068 55.6503 270.961 55.6759C270.853 55.7016 270.761 55.7688 270.703 55.8629C270.378 56.4102 270.184 57.025 270.136 57.6595L266.602 67.3395C266.524 67.2087 266.43 67.0884 266.322 66.9815C266.128 66.8113 265.892 66.6966 265.638 66.6495C263.431 66.1482 259.48 68.7521 261.205 71.2649C262.357 72.9313 264.33 72.1827 265.606 70.8092L266.126 70.998L270.338 59.4692C270.489 60.0111 270.708 60.5317 270.989 61.0186C271.308 61.5328 271.64 61.9429 271.829 62.3205C272.012 62.5945 272.111 62.9156 272.115 63.2449C272.095 63.6242 271.988 63.9939 271.803 64.3255C271.399 65.1327 270.709 65.9594 270.208 66.9815C270.175 67.0514 270.162 67.129 270.17 67.2059C270.178 67.2828 270.207 67.356 270.253 67.4176C270.288 67.4604 270.33 67.496 270.378 67.5224C270.426 67.5488 270.479 67.5655 270.533 67.5716C270.587 67.5776 270.642 67.5729 270.695 67.5576C270.748 67.5424 270.797 67.5169 270.839 67.4827C271.74 66.8533 272.55 66.1044 273.248 65.2564C273.669 64.7215 273.936 64.0826 274.023 63.4076C274.082 62.6801 273.914 61.952 273.541 61.3245C273.241 60.7451 272.883 60.3415 272.636 59.9705Z" fill="#283B4B"/>
<path d="M260.639 178.936L260.43 178.154C271.809 175.179 281.632 165.571 286.059 153.079C292.966 133.595 285.46 110.115 268.216 97.2125C266.38 95.839 264.492 94.6087 262.67 93.4825C258.568 90.8786 254.695 88.4179 251.518 84.2322L252.169 83.7374C255.255 87.8125 259.07 90.2471 263.106 92.799C264.948 93.9642 266.849 95.1685 268.704 96.5616C286.215 109.659 293.845 133.543 286.821 153.378C282.309 166.092 272.271 175.896 260.639 178.936Z" fill="#90A5B6"/>
<path d="M258.035 185.087C254.725 185.074 251.436 184.576 248.27 183.61C240.374 181.227 231.267 175.049 228.741 166.606L229.516 166.378C231.97 174.529 240.823 180.511 248.511 182.828C259.193 186.051 269.765 183.85 279.107 176.475C292.673 165.74 301.754 145.287 300.699 127.834L301.513 127.782C302.581 145.482 293.369 166.229 279.608 177.113C272.89 182.399 265.573 185.087 258.035 185.087Z" fill="#90A5B6"/>
<path d="M278.26 182.431L277.792 181.78C297.842 167.303 313.159 139.402 303.622 114.079L304.377 113.793C314.057 139.493 298.584 167.771 278.26 182.431Z" fill="#90A5B6"/>
<defs>
<linearGradient id="paint0_linear_631_436" x1="164.132" y1="138.784" x2="296.689" y2="138.784" gradientUnits="userSpaceOnUse">
<stop offset="0.35" stop-color="#FF9C59"/>
<stop offset="0.8" stop-color="#B49B4E"/>
</linearGradient>
<linearGradient id="paint1_linear_631_436" x1="275.181" y1="226.808" x2="323.998" y2="226.808" gradientUnits="userSpaceOnUse">
<stop offset="0.35" stop-color="#FDC097"/>
<stop offset="0.8" stop-color="#9B5E35"/>
</linearGradient>
<linearGradient id="paint2_linear_631_436" x1="139.109" y1="275.071" x2="66.33" y2="243.981" gradientUnits="userSpaceOnUse">
<stop offset="0.35" stop-color="#FDC097"/>
<stop offset="0.8" stop-color="#9B5E35"/>
</linearGradient>
<linearGradient id="paint3_linear_631_436" x1="198.223" y1="204.083" x2="225.532" y2="188.186" gradientUnits="userSpaceOnUse">
<stop offset="0.35" stop-color="#FDC097"/>
<stop offset="0.8" stop-color="#9B5E35"/>
</linearGradient>
<linearGradient id="paint4_linear_631_436" x1="205.579" y1="146.979" x2="170.251" y2="158.423" gradientUnits="userSpaceOnUse">
<stop offset="0.35" stop-color="#FDC097"/>
<stop offset="0.8" stop-color="#9B5E35"/>
</linearGradient>
</defs>
</svg>
