<svg width="341" height="341" viewBox="0 0 341 341" fill="none" xmlns="http://www.w3.org/2000/svg">
<g clip-path="url(#clip0_631_344)">
<path d="M306.37 206.54C305.597 206.158 304.814 205.805 304.002 205.471C285.966 197.995 258.908 200.954 249.828 180.274C242.743 164.147 264.436 152.938 258.583 136.793C256.674 131.427 252.663 127.035 248.31 123.349C213.651 94.0944 156.163 91.8411 113.388 94.2854C84.4964 95.9467 59.8056 109.572 58.8508 141.08C58.3925 157.025 73.8505 163.66 85.203 171.05C101.835 181.887 108.061 199.159 93.4523 215.84C86.9502 223.268 78.1089 228.252 69.2389 232.558C56.4925 238.812 42.0847 244.846 32.0976 255.205C18.3773 269.432 16.3436 290.237 23.2276 308.168C29.3287 324.027 41.5023 336.639 56.6452 344.154C76.3044 353.902 99.754 352.384 121.036 350.961C162.274 348.202 203.463 338.654 240.786 320.656C273.354 304.95 317.121 280.154 321.761 240.339C323.327 226.772 319.317 212.937 306.37 206.54Z" fill="#DEF5FE"/>
<path d="M297.796 147.047C299.629 147.929 301.577 148.55 303.582 148.89C304.375 149.033 305.167 149.129 305.96 149.205C306.019 150.137 306.131 151.064 306.294 151.983C306.634 154.034 307.37 156 308.461 157.769C309.382 155.954 310.069 154.029 310.505 152.041C310.715 151.134 310.877 150.227 311.001 149.31C312.344 149.237 313.68 149.074 315.002 148.823C317.009 148.456 318.944 147.766 320.73 146.78C318.951 145.75 317.016 145.018 315.002 144.612C313.764 144.353 312.51 144.178 311.249 144.087C311.216 142.92 311.108 141.756 310.925 140.602C310.646 138.561 309.999 136.588 309.015 134.778C308.014 136.551 307.262 138.453 306.781 140.43C306.483 141.688 306.266 142.964 306.132 144.25C305.243 144.355 304.36 144.508 303.487 144.708C301.464 145.137 299.536 145.93 297.796 147.047Z" fill="#DEF5FE"/>
<path d="M16.9452 204.096C17.0079 205.028 17.1227 205.955 17.2889 206.874C17.624 208.925 18.3571 210.891 19.4467 212.66C20.3728 210.847 21.0597 208.921 21.49 206.931C21.7 206.024 21.8624 205.117 21.9865 204.21C23.3294 204.138 24.6659 203.975 25.9871 203.723C27.9927 203.35 29.9263 202.66 31.7158 201.68C29.9365 200.651 28.0016 199.919 25.9871 199.513C24.7506 199.248 23.4965 199.072 22.2348 198.988C22.2004 197.821 22.0952 196.657 21.9197 195.503C21.6169 193.456 20.9508 191.481 19.9528 189.669C18.9507 191.443 18.2019 193.349 17.7281 195.331C17.4221 196.587 17.2019 197.863 17.0693 199.15C16.1796 199.252 15.2965 199.405 14.4245 199.608C12.3877 200.035 10.4461 200.831 8.69579 201.957C10.5314 202.841 12.4825 203.461 14.4914 203.8C15.3698 203.895 16.1527 203.981 16.9452 204.096Z" fill="#DEF5FE"/>
<path d="M289.461 110.44C289.526 111.025 289.625 111.605 289.757 112.178C290.123 113.841 290.857 115.401 291.905 116.742C292.825 115.368 293.521 113.856 293.968 112.264C294.12 111.72 294.226 111.176 294.331 110.631C295.245 110.548 296.151 110.395 297.042 110.173C298.674 109.783 300.216 109.087 301.587 108.12C300.241 107.118 298.714 106.385 297.09 105.962C296.291 105.747 295.477 105.59 294.655 105.495C294.588 104.751 294.48 104.011 294.331 103.279C293.996 101.622 293.316 100.054 292.335 98.6774C291.357 100.019 290.614 101.517 290.139 103.108C289.888 103.94 289.697 104.788 289.566 105.647C289.032 105.74 288.503 105.861 287.981 106.01C286.35 106.457 284.831 107.241 283.522 108.311C284.926 109.198 286.469 109.843 288.086 110.221C288.545 110.307 289.003 110.364 289.461 110.44Z" fill="#DEF5FE"/>
<path d="M321.79 200.811C312.825 193.593 300.03 188.704 289.165 188.323C288.639 188.307 288.127 188.498 287.74 188.855C287.352 189.212 287.12 189.706 287.093 190.232C287.072 190.76 287.262 191.274 287.62 191.663C287.978 192.051 288.475 192.282 289.003 192.304C299.057 192.657 310.963 197.212 319.26 203.914C323.876 207.537 327.638 212.132 330.279 217.373C332.919 222.614 334.373 228.372 334.537 234.238C335.138 248.952 328.626 264.247 317.131 275.141C316.837 275.417 316.634 275.775 316.547 276.168C316.459 276.562 316.493 276.972 316.642 277.346C316.792 277.72 317.05 278.04 317.384 278.265C317.718 278.49 318.112 278.61 318.515 278.607C319.026 278.609 319.518 278.414 319.89 278.063C332.236 266.405 339.215 249.925 338.604 234.105C338.421 227.66 336.819 221.336 333.913 215.581C331.007 209.827 326.868 204.784 321.79 200.811Z" fill="#DEF5FE"/>
<path d="M339.645 196.648C331.262 182.823 316.854 173.8 297.987 170.544C287.962 168.816 278.834 166.534 277.335 157.645C276.782 154.342 277.536 150.962 278.29 147.353C278.828 145.152 279.227 142.92 279.484 140.669C281.097 123.559 264.503 108.263 247.976 104.712C247.718 104.656 247.452 104.651 247.192 104.698C246.933 104.745 246.685 104.843 246.464 104.986C246.242 105.129 246.051 105.314 245.901 105.53C245.75 105.747 245.644 105.991 245.589 106.249C245.533 106.507 245.528 106.773 245.575 107.032C245.622 107.291 245.72 107.539 245.863 107.761C246.006 107.982 246.191 108.174 246.407 108.324C246.624 108.474 246.868 108.58 247.126 108.636C261.954 111.825 276.867 125.306 275.454 140.297C275.215 142.368 274.845 144.421 274.347 146.445C273.497 150.265 272.628 154.208 273.306 158.285C275.407 170.697 288.583 172.979 297.233 174.516C309.578 176.636 326.345 182.565 336.15 198.739C336.331 199.032 336.584 199.273 336.885 199.441C337.186 199.608 337.525 199.695 337.869 199.694C338.235 199.693 338.594 199.594 338.91 199.408C339.14 199.276 339.343 199.1 339.505 198.89C339.667 198.679 339.786 198.438 339.854 198.182C339.923 197.925 339.939 197.657 339.904 197.394C339.868 197.131 339.78 196.877 339.645 196.648Z" fill="#DEF5FE"/>
<path d="M50.2579 164.243C50.6134 164.239 50.962 164.144 51.27 163.966C51.7295 163.699 52.064 163.26 52.2001 162.746C52.3361 162.232 52.2626 161.685 51.9956 161.226C43.2593 146.14 45.4362 126.576 57.543 111.395C69.0864 96.9111 90.0058 91.0678 108.863 87.2582C109.385 87.1531 109.843 86.8451 110.138 86.4019C110.432 85.9588 110.539 85.4167 110.434 84.8951C110.328 84.3734 110.02 83.9149 109.577 83.6204C109.134 83.3258 108.592 83.2194 108.07 83.3245C88.459 87.2773 66.7567 93.407 54.4017 108.894C41.2638 125.383 38.9532 146.713 48.5202 163.24C48.697 163.545 48.9505 163.797 49.2554 163.973C49.5603 164.149 49.9059 164.242 50.2579 164.243Z" fill="#DEF5FE"/>
<path d="M30.6081 239.518C31.0186 239.214 31.2979 238.764 31.3894 238.261C31.4809 237.759 31.3778 237.24 31.101 236.81C30.8243 236.38 30.3944 236.072 29.8987 235.947C29.403 235.822 28.8784 235.891 28.4313 236.138C6.0701 250.527 -4.36574 279.333 3.60674 304.635C3.73458 305.041 3.98862 305.397 4.33199 305.649C4.67535 305.901 5.09019 306.038 5.51632 306.038C5.72064 306.039 5.92374 306.007 6.11784 305.943C6.62383 305.783 7.04562 305.428 7.29082 304.958C7.53601 304.487 7.58461 303.938 7.4259 303.432C-0.00235838 279.82 9.73646 252.943 30.6081 239.518Z" fill="#DEF5FE"/>
<path d="M207.96 45.6007C207.898 45.5372 207.824 45.4868 207.742 45.4523C207.66 45.4179 207.572 45.4001 207.483 45.4001C207.394 45.4001 207.306 45.4179 207.224 45.4523C207.142 45.4868 207.068 45.5372 207.005 45.6007C194.593 57.3637 174.543 56.7431 156.869 56.1894C151.723 56.027 146.863 55.8743 142.338 56.0175C116.921 56.8195 97.7967 62.0709 83.8759 72.0675C73.2682 79.7058 62.4791 93.2638 64.064 108.483C64.9233 116.799 69.0767 123.76 76.419 129.04C86.7116 136.506 102.112 139.695 115.833 139.695C121.04 139.73 126.238 139.218 131.338 138.168C131.424 138.149 131.506 138.114 131.578 138.065C131.651 138.015 131.712 137.952 131.76 137.878C131.808 137.804 131.841 137.722 131.857 137.636C131.873 137.55 131.872 137.461 131.854 137.375C131.836 137.289 131.801 137.208 131.751 137.135C131.702 137.063 131.638 137.001 131.565 136.953C131.491 136.905 131.409 136.872 131.322 136.856C131.236 136.84 131.147 136.841 131.062 136.859C115.537 140.22 91.39 138.234 77.2019 127.951C70.1842 122.872 66.2122 116.265 65.3911 108.34C63.873 93.6935 74.3471 80.5651 84.6588 73.156C98.3505 63.3121 117.236 58.1467 142.385 57.3542C146.863 57.2205 151.704 57.3542 156.831 57.5261C174.791 58.0894 195.157 58.7195 207.932 46.5651C207.998 46.5047 208.052 46.4313 208.09 46.3495C208.128 46.2677 208.149 46.1791 208.152 46.089C208.154 45.9989 208.139 45.9092 208.106 45.8253C208.073 45.7414 208.023 45.665 207.96 45.6007Z" fill="#90A5B6"/>
<path d="M90.8077 149.339C76.4859 152.661 58.7268 156.805 44.8824 150.093C38.775 147.141 33.3761 142.906 29.0541 137.678C24.7321 132.45 21.5887 126.351 19.8383 119.797C12.9447 92.7768 32.2506 72.3252 54.1534 54.2606C54.2726 54.1414 54.3431 53.982 54.3511 53.8136C54.3591 53.6452 54.304 53.4798 54.1967 53.3498C54.0893 53.2198 53.9374 53.1344 53.7705 53.1104C53.6036 53.0864 53.4337 53.1254 53.2941 53.2199C31.0666 71.5805 11.4648 92.3663 18.5398 120.132C20.343 126.874 23.5795 133.149 28.0284 138.527C32.4772 143.905 38.0338 148.261 44.3191 151.296C50.0298 153.906 56.2594 155.183 62.5364 155.029C72.2848 155.029 82.3579 152.68 91.1324 150.647V149.969L90.8077 149.339Z" fill="#90A5B6"/>
<path d="M39.7552 86.5516C39.6851 86.4962 39.6047 86.4552 39.5187 86.4309C39.4327 86.4067 39.3427 86.3997 39.254 86.4103C39.1652 86.421 39.0795 86.4491 39.0016 86.493C38.9238 86.5369 38.8554 86.5957 38.8004 86.6662C31.7541 95.7176 29.0807 110.288 32.3078 122.098C36.8049 138.549 51.5755 144.307 65.229 144.307C66.6325 144.307 68.017 144.24 69.3823 144.125C69.558 144.111 69.7208 144.027 69.8353 143.893C69.9497 143.759 70.0065 143.585 69.9933 143.409C69.9764 143.233 69.8909 143.07 69.7552 142.956C69.6196 142.841 69.4445 142.785 69.2677 142.798C55.1273 143.992 38.3421 139.094 33.5968 121.745C30.4746 110.288 33.043 96.2332 39.8602 87.4873C39.9697 87.349 40.0201 87.1731 40.0005 86.9978C39.9808 86.8226 39.8926 86.6622 39.7552 86.5516Z" fill="#90A5B6"/>
<path d="M171.735 6.68352H171.936L165.52 25.7793C165.293 25.4186 164.959 25.138 164.565 24.9773C163.779 24.7022 162.945 24.5875 162.114 24.64C161.282 24.6925 160.47 24.9111 159.724 25.2828C158.158 26.1421 157.204 27.9849 158.187 29.6748C159.428 31.7849 162.531 30.5437 164.097 29.5698L164.469 29.3407C164.501 29.4349 164.553 29.5208 164.623 29.5919C164.692 29.663 164.777 29.7175 164.87 29.7512C164.943 29.7603 165.017 29.7603 165.09 29.7512C165.23 29.7489 165.365 29.7037 165.478 29.6217C165.59 29.5396 165.675 29.4248 165.72 29.2929L173.359 6.69307L186.067 6.91268L179.794 25.5502C179.587 25.3001 179.326 25.1009 179.03 24.9677C178.244 24.6921 177.41 24.5772 176.579 24.6296C175.747 24.6821 174.935 24.901 174.189 25.2733C172.614 26.1326 171.659 27.9753 172.652 29.6653C173.884 31.7754 176.996 30.5341 178.553 29.5603L178.896 29.3407C178.971 29.4202 179.062 29.4822 179.164 29.5221C179.233 29.5314 179.304 29.5314 179.374 29.5221C179.514 29.5238 179.651 29.4815 179.766 29.4009C179.881 29.3204 179.967 29.2058 180.013 29.0733L187.451 6.93177L199.52 7.14182L193.285 25.722C193.053 25.2939 192.683 24.9573 192.235 24.7672C191.45 24.4945 190.618 24.3811 189.788 24.4336C188.959 24.486 188.148 24.7033 187.404 25.0728C185.828 25.9416 184.873 27.7748 185.857 29.4648C187.098 31.5749 190.211 30.3336 191.767 29.3693L192.13 29.1402C192.075 29.3086 192.088 29.4919 192.167 29.6507C192.245 29.8095 192.383 29.9313 192.55 29.9899C192.622 30.0036 192.697 30.0036 192.769 29.9899C192.909 29.9876 193.044 29.9424 193.157 29.8604C193.27 29.7783 193.354 29.6635 193.4 29.5316L200.933 7.12272H201.181L203.024 0.668357L173.922 0L171.735 6.68352Z" fill="#283B4B"/>
<path d="M81.2025 36.1197H81.3934L74.9868 55.2154C74.758 54.8568 74.4248 54.5769 74.0321 54.4134C73.2458 54.1378 72.4122 54.0228 71.5807 54.0753C70.7492 54.1278 69.9366 54.3467 69.1913 54.719C67.6159 55.5783 66.661 57.421 67.654 59.111C68.8857 61.2211 71.9984 59.9798 73.5547 59.0059L73.927 58.7768C73.9589 58.8724 74.0126 58.9593 74.0839 59.0305C74.1551 59.1018 74.2419 59.1555 74.3375 59.1874C74.4069 59.201 74.4783 59.201 74.5476 59.1874C74.6874 59.1865 74.8233 59.1418 74.9364 59.0595C75.0494 58.9773 75.1338 58.8618 75.1778 58.7291L82.8161 36.1388L95.5052 36.4061L89.4041 54.6617C89.178 54.2292 88.8059 53.8908 88.3539 53.7069C87.5692 53.4315 86.7372 53.3167 85.9072 53.3692C85.0773 53.4217 84.2664 53.6404 83.5227 54.0124C81.9473 54.8717 80.9924 56.7145 81.9758 58.4044C83.2171 60.5145 86.3297 59.2733 87.886 58.2994L88.2488 58.0703C88.1939 58.2387 88.2071 58.422 88.2856 58.5808C88.3642 58.7396 88.5017 58.8614 88.6689 58.92C88.7418 58.9293 88.8157 58.9293 88.8886 58.92C89.0272 58.9198 89.1623 58.8765 89.2752 58.7961C89.3881 58.7157 89.4732 58.6022 89.5187 58.4713L96.9374 36.3966L99.1143 30.0472L83.3985 29.713L81.2025 36.1197Z" fill="#283B4B"/>
<path d="M139.788 52.0646C139.354 51.4625 138.974 50.8235 138.652 50.1551C138.018 48.7725 137.748 47.2506 137.869 45.7344C137.875 45.6101 137.849 45.4863 137.792 45.3756C137.734 45.265 137.649 45.1714 137.544 45.1042C137.468 45.0539 137.382 45.0197 137.292 45.0035C137.202 44.9873 137.109 44.9895 137.02 45.0101C136.931 45.0306 136.847 45.069 136.773 45.1229C136.699 45.1768 136.636 45.2452 136.59 45.3238C136.043 46.2216 135.716 47.2357 135.635 48.2837L129.801 64.2477C129.673 64.0296 129.516 63.8303 129.333 63.6558C129.017 63.3695 128.627 63.1776 128.207 63.102C124.588 62.3191 118.067 66.6443 120.902 70.7403C122.812 73.4806 126.049 72.2393 128.159 69.986L129.009 70.3011L135.959 51.2913C136.219 52.1815 136.584 53.0374 137.048 53.8405C137.583 54.6903 138.108 55.3682 138.442 55.9506C138.741 56.4079 138.904 56.9413 138.91 57.4878C138.88 58.1121 138.703 58.7204 138.394 59.2637C137.735 60.6004 136.59 61.9562 135.769 63.6367C135.702 63.7762 135.684 63.9342 135.718 64.085C135.753 64.2358 135.837 64.3707 135.957 64.4679C136.077 64.565 136.227 64.6187 136.382 64.6204C136.536 64.622 136.687 64.5715 136.809 64.4769C138.294 63.4378 139.63 62.2011 140.781 60.8009C141.474 59.9192 141.916 58.867 142.061 57.7552C142.156 56.5582 141.879 55.361 141.268 54.3275C140.781 53.344 140.189 52.6757 139.788 52.0646Z" fill="#283B4B"/>
<path d="M279.283 64.0663C279.21 62.1327 278.576 60.262 277.459 58.682C276.342 57.1021 274.79 55.8811 272.991 55.1677C271.741 54.7053 270.4 54.545 269.076 54.6999L268.675 54.7667C268.895 51.7782 269.134 48.7993 269.487 45.849C269.582 45.0088 269.706 44.1781 269.821 43.3379C270.403 42.7364 270.986 42.1444 271.616 41.562C273.25 40.0672 274.716 38.3992 275.989 36.5875C276.625 35.6288 277.135 34.5923 277.507 33.5035C277.714 32.9131 277.833 32.2954 277.86 31.6704C277.874 31.2905 277.816 30.9114 277.688 30.5532C277.535 30.1159 277.239 29.7428 276.848 29.4934C276.181 29.1196 275.398 29.0073 274.652 29.1784C273.968 29.3141 273.337 29.6458 272.838 30.1331C271.966 30.9386 271.268 31.9132 270.785 32.9975C270.313 34.0073 269.927 35.0548 269.63 36.1292C269.334 37.2272 269.153 38.2584 268.943 39.3278C268.818 40.0152 268.723 40.7122 268.618 41.3996L267.74 42.1348C266.899 42.87 266.097 43.4715 265.248 44.1303C263.577 45.4098 261.82 46.6319 260.12 47.9495C258.38 49.2995 256.761 50.7978 255.28 52.4275C253.701 54.1145 252.376 56.0216 251.346 58.0894C250.336 60.1933 249.691 62.4532 249.436 64.7729C249.133 67.1109 249.379 69.4873 250.152 71.7142C250.572 72.8226 251.144 73.867 251.852 74.8173C252.57 75.7392 253.423 76.5471 254.382 77.2138C254.838 77.5635 255.331 77.8613 255.852 78.1017L256.616 78.5028C256.874 78.6078 257.151 78.6937 257.409 78.7892C258.462 79.2345 259.575 79.5239 260.712 79.6485C261.896 79.7773 263.09 79.7773 264.274 79.6485C263.978 80.9757 263.663 82.3028 263.319 83.6204C262.841 85.6541 262.096 87.6157 261.104 89.4542C260.173 91.2424 258.616 92.6256 256.731 93.3402C255.831 93.6427 254.862 93.6758 253.943 93.4356C253.512 93.288 253.116 93.0567 252.775 92.7552C252.434 92.4538 252.156 92.088 251.957 91.6788C251.602 91.0248 251.446 90.2815 251.508 89.5401C252.692 92.605 258.325 91.5738 257.39 87.7165C256.817 85.3581 254.287 85.2054 252.673 86.2461C252.118 86.4329 251.618 86.7537 251.216 87.1801C250.815 87.6064 250.525 88.1252 250.372 88.6903C250.077 89.8942 250.254 91.1655 250.868 92.2422C251.432 93.3477 252.41 94.1852 253.59 94.5718C254.744 94.8811 255.964 94.8379 257.094 94.4477C258.186 94.072 259.186 93.4664 260.025 92.6718C260.828 91.8847 261.516 90.9878 262.068 90.0079C263.092 88.0807 263.866 86.0304 264.369 83.9068C264.789 82.4556 265.143 80.9852 265.467 79.5053C266.126 79.4098 266.785 79.2952 267.434 79.152C269.665 78.674 271.791 77.794 273.707 76.555C274.708 75.8997 275.614 75.1093 276.399 74.2062C277.183 73.2537 277.805 72.1798 278.242 71.0268C279.11 68.8149 279.466 66.4353 279.283 64.0663ZM270.47 39.5855C270.69 38.5639 270.9 37.4946 271.177 36.5398C271.467 35.5548 271.84 34.5965 272.294 33.6754C272.688 32.8106 273.253 32.0345 273.955 31.3935C274.232 31.1316 274.582 30.9587 274.958 30.897C275.277 30.8159 275.613 30.8462 275.913 30.9829C275.998 31.0306 276.084 31.193 276.075 31.6035C276.037 32.0439 275.94 32.4773 275.788 32.8925C275.446 33.8171 274.991 34.6958 274.433 35.5086C273.286 37.0953 271.953 38.5379 270.461 39.8052C270.442 39.7479 270.451 39.6619 270.47 39.5855ZM264.646 77.7771C263.388 78.0184 262.102 78.0763 260.827 77.949C258.849 77.7196 256.967 76.9683 255.375 75.7721C253.825 74.5934 252.745 72.9009 252.329 70.9981C251.932 69.1033 251.981 67.1419 252.472 65.2694C252.947 63.3751 253.717 61.5675 254.754 59.913C255.241 59.0786 255.797 58.2865 256.416 57.5451C257.007 56.7535 257.644 55.9979 258.325 55.2823C261.19 52.4179 264.178 49.4103 267.109 46.2022L268.064 45.1711L268.007 45.6771C267.682 48.8088 267.52 51.9405 267.339 55.0627C265.506 55.6622 263.861 56.7283 262.565 58.1562C260.856 59.9257 259.839 62.2501 259.7 64.706C259.647 65.9679 260.003 67.2132 260.715 68.256C261.428 69.2988 262.458 70.0832 263.653 70.4921L264.235 69.289C263.435 68.8856 262.783 68.2406 262.37 67.4455C261.957 66.6503 261.804 65.7453 261.934 64.8588C262.285 63.0417 263.225 61.3908 264.608 60.1613C265.345 59.47 266.194 58.9083 267.119 58.4999C266.861 62.7487 266.365 66.9307 265.715 71.1509C265.435 73.366 265.079 75.562 264.646 77.7389V77.7771ZM275.149 70.0147C274.915 70.892 274.538 71.7245 274.032 72.478C273.493 73.2385 272.85 73.9199 272.122 74.5022C270.548 75.7336 268.762 76.6656 266.852 77.252C266.527 77.357 266.193 77.4334 265.897 77.5193C266.307 75.4761 266.661 73.4137 266.966 71.3705C267.644 67.1599 268.169 62.8728 268.446 58.6145C268.446 58.4522 268.446 58.2899 268.446 58.1276C268.76 58.0472 269.079 57.9898 269.401 57.9557C270.225 57.922 271.046 58.0647 271.81 58.3743C272.574 58.6839 273.263 59.1532 273.831 59.7507C276.199 62.0995 276.323 66.3196 275.177 69.9765L275.149 70.0147Z" fill="#283B4B"/>
<path d="M216.582 85.3581C216.472 85.2188 216.311 85.129 216.134 85.1084C215.958 85.0878 215.781 85.1381 215.642 85.2483C215.502 85.3585 215.412 85.5194 215.392 85.6958C215.371 85.8722 215.422 86.0495 215.532 86.1888C216.091 87.0708 216.308 88.127 216.143 89.1582C215.963 90.1854 215.492 91.1396 214.787 91.908C214.075 92.7187 213.2 93.3695 212.219 93.8175C211.261 94.3136 210.224 94.6368 209.154 94.7723C206.989 94.8982 204.843 94.3113 203.043 93.1014C201.034 91.8109 199.119 90.3783 197.314 88.8144C196.36 88.0315 195.405 87.2295 194.354 86.4752C193.283 85.687 192.127 85.0208 190.908 84.4892C188.464 83.3653 185.76 82.9313 183.087 83.2342C180.414 83.5372 177.876 84.5655 175.746 86.2079C174.603 87.0929 173.568 88.1087 172.662 89.2345C163.792 86.3702 156.535 86.5325 150.453 88.7476C134.776 91.612 125.266 105.313 117.332 119.864C115.794 122.729 114.286 125.593 112.825 128.457C107.211 139.342 101.368 150.589 92.3926 159.192C86.6639 164.634 79.8085 168.816 73.1631 172.855C65.1429 177.724 56.8649 182.756 50.4773 190.041C37.9983 204.363 35.2676 227.278 43.7938 245.82C43.8481 245.936 43.9344 246.035 44.0426 246.104C44.1508 246.174 44.2764 246.211 44.4049 246.211C44.5014 246.213 44.5967 246.19 44.6818 246.145C44.7622 246.108 44.8348 246.057 44.8952 245.993C44.9556 245.928 45.0027 245.853 45.0338 245.77C45.0648 245.688 45.0792 245.6 45.0762 245.512C45.0731 245.423 45.0527 245.337 45.016 245.257C36.652 227.173 39.2872 204.831 51.4417 190.92C57.686 183.768 65.8781 178.784 73.8028 173.972C80.4864 169.895 87.4563 165.675 93.2614 160.128C102.437 151.372 108.299 140.02 113.971 129.04C115.422 126.175 116.931 123.311 118.468 120.447C125.056 108.359 132.79 96.8251 144.152 91.9461C125.323 104.912 119.174 140.373 105.378 159.192C81.1165 192.294 33.1193 185.63 58.2112 249.505C33.1002 294.237 58.3162 320.866 91.3901 317.572C87.1712 319.538 82.6531 320.784 78.023 321.258C67.7304 322.27 58.2398 318.985 51.289 312.035C44.6914 305.418 40.9772 295.669 41.0918 285.3C41.0944 285.212 41.0792 285.125 41.0472 285.043C41.0153 284.96 40.9672 284.885 40.9057 284.822C40.8443 284.759 40.7708 284.709 40.6896 284.674C40.6084 284.64 40.5212 284.623 40.433 284.623C40.3442 284.617 40.2553 284.63 40.1719 284.661C40.0885 284.692 40.0124 284.74 39.9486 284.802C39.8848 284.864 39.8347 284.939 39.8014 285.021C39.768 285.104 39.7523 285.192 39.7551 285.281C39.631 296.004 43.4883 306.096 50.3342 312.97C53.4854 316.124 57.2358 318.616 61.3648 320.298C65.4937 321.981 69.9175 322.82 74.3757 322.766C75.6074 322.766 76.8677 322.7 78.1281 322.575C84.1805 321.956 90.0355 320.072 95.3143 317.047L97.0424 316.732C94.9037 361.531 166.933 338.291 168.652 305.361L180.701 197.651L166.312 132.085L185.045 104.989C194.593 91.5356 187.709 82.7229 177.693 87.3727C179.398 86.371 181.308 85.7703 183.279 85.6159C185.52 85.5063 187.753 85.9627 189.772 86.9431C191.852 88.0244 193.779 89.3795 195.5 90.9723C197.39 92.6769 199.432 94.2046 201.601 95.5362C203.952 97.044 206.751 97.6949 209.526 97.3789C210.897 97.1445 212.214 96.6624 213.412 95.9563C214.641 95.2952 215.71 94.3729 216.544 93.2542C217.407 92.1034 217.902 90.7192 217.966 89.2823C218.005 88.5693 217.902 87.8557 217.665 87.1824C217.427 86.5091 217.059 85.8891 216.582 85.3581Z" fill="#FF9C59"/>
<mask id="mask0_631_344" style="mask-type:luminance" maskUnits="userSpaceOnUse" x="48" y="86" width="142" height="256">
<path d="M185.064 105.027C195.768 89.9794 185.857 80.7084 174.027 89.6452C129.076 74.0535 124.731 132.907 105.454 159.221C81.193 192.323 33.1957 185.659 58.2876 249.534C31.7635 296.768 61.3811 323.826 97.0902 316.77C94.9515 361.569 166.981 338.33 168.699 305.399L180.749 197.689L166.36 132.124L185.064 105.027Z" fill="white"/>
</mask>
<g mask="url(#mask0_631_344)">
<path style="mix-blend-mode:multiply" d="M137.984 306.993C132.439 308.397 126.675 308.721 121.008 307.948C102.38 305.361 83.7709 289.807 84.3438 269.757C84.8021 254.413 91.6957 245.304 80.6583 232.453C70.9481 221.139 70.8144 207.781 82.3387 196.887C100.27 179.92 131.233 183.386 145.021 162.295C156.402 144.861 177.77 116.866 163.391 95.3262C176.376 89.8457 193.066 84.919 203.864 96.2237C218.377 111.414 222.187 126.252 222.874 147.133C223.16 156.137 221.041 164.892 220.115 173.791C219.16 182.995 221.155 189.793 222.912 198.615C225.71 212.651 223.476 227.622 225.357 241.924C229.176 270.788 224.001 299.164 217.537 327.397C215.112 337.967 212.085 348.107 205.917 357.177C193.868 374.898 176.643 393.096 156.268 400.305C124.932 411.371 87.6091 412.364 60.9514 390.098C40.834 373.303 29.9876 345.729 31.8113 319.797C32.6992 307.108 39.4496 289.855 54.9745 297.331C65.4103 302.363 72.3803 313.887 79.2261 322.652C95.7058 343.734 113.77 350.904 140.113 346.216C162.751 342.177 201.382 331.235 209.545 306.039C214.434 290.962 204.628 278.35 189.132 283.286C171.363 288.91 155.943 302.611 137.984 306.993Z" fill="url(#paint0_linear_631_344)"/>
</g>
<path d="M226.206 343.972L154.397 351.133L145.393 311.987C153.031 317.085 162.579 313.295 174.361 299.069C186.392 321.287 199.09 320.723 212.496 296.061C214.291 297.169 216.028 298.162 217.69 299.021L226.206 343.972Z" fill="#FFE287"/>
<mask id="mask1_631_344" style="mask-type:luminance" maskUnits="userSpaceOnUse" x="135" y="259" width="92" height="93">
<path d="M226.206 343.982L210.156 259.235L135.224 267.713L154.406 351.114L226.206 343.982Z" fill="white"/>
</mask>
<g mask="url(#mask1_631_344)">
<g style="mix-blend-mode:multiply" opacity="0.57">
<path d="M191.805 266.386C172.413 271.561 153.108 277.089 134.117 283.572L134.375 285.119C138.442 304.73 145.106 323.702 150.74 342.932C151.952 340.468 152.869 337.909 154.492 335.522C157.29 331.379 161.519 328.657 164.746 324.619C167.191 321.487 168.871 317.601 171.105 314.288C172.06 312.875 173.254 311.968 174.161 310.469C175.068 308.97 175.832 307.06 176.882 305.523C177.343 304.917 177.761 304.278 178.133 303.613C178.58 302.733 178.902 301.795 179.087 300.825C179.66 298.505 180.195 296.156 180.711 293.808C181.064 292.175 181.427 290.495 181.904 288.871C182.381 287.248 182.926 285.854 183.508 284.393C184.931 280.756 186.487 277.204 188.206 273.776C188.922 272.401 189.81 270.53 190.602 268.897C191.042 268 191.53 267.126 192.063 266.281L191.805 266.386Z" fill="#FF9C59"/>
</g>
<g style="mix-blend-mode:multiply" opacity="0.57">
<path d="M227.39 327.092C227.438 325.835 227.601 324.585 227.877 323.358C225.013 313.725 222.024 304.32 219.886 294.466C217.565 283.773 214.157 272.602 212.19 261.402L210.92 261.593C210.271 263.722 209.536 265.851 208.695 267.952C207.053 272.058 204.504 275.886 203.225 280.364C202.27 283.763 202.184 287.22 200.818 290.638C199.93 292.805 198.546 294.906 198.059 297.121C197.867 298.264 197.749 299.419 197.706 300.577C197.291 303.768 196.006 306.784 193.992 309.294C193.12 310.21 192.343 311.211 191.672 312.283C190.87 313.705 190.278 315.758 189.199 316.312C188.779 316.522 188.349 316.465 187.929 316.837C187.668 317.154 187.461 317.512 187.318 317.897C186.812 318.985 186.306 320.112 185.828 321.286C185.314 322.526 184.893 323.803 184.568 325.106C184.058 327.149 183.993 329.279 184.377 331.35C181.066 334.725 178.514 338.768 176.891 343.208C176.078 345.152 175.703 347.252 175.793 349.357C175.793 349.615 175.889 349.844 175.946 350.083C186.697 349.711 197.496 348.737 208.199 347.868C214.882 347.324 221.948 346.741 228.813 347.285C227.68 340.617 227.203 333.853 227.39 327.092Z" fill="#FF9C59"/>
</g>
</g>
<path d="M169.492 211.161C164.804 207.562 159.572 203.36 153.824 198.749L148.362 194.309C158.951 184.962 164.126 168.807 160.985 151.907C160.689 151.792 162.226 151.344 164.804 150.761C167.382 150.179 171.487 149.3 175.593 148.47C178.31 149.772 181.206 150.66 184.186 151.105C187.785 151.667 191.444 151.731 195.061 151.296C186.668 177.973 187.136 193.106 194.383 195.378C205.039 233.102 195.834 231.422 169.492 211.161Z" fill="#FDC097"/>
<path style="mix-blend-mode:multiply" d="M184.224 151.057C179.875 163.831 173.421 175.787 165.128 186.432C161.732 190.846 157.952 194.952 153.833 198.701L148.372 194.261C158.96 184.914 164.135 168.759 160.994 151.859C160.698 151.745 162.235 151.296 164.813 150.713C167.391 150.131 171.497 149.253 175.602 148.422C178.328 149.727 181.235 150.615 184.224 151.057Z" fill="url(#paint1_linear_631_344)"/>
<path d="M284.639 216.422C269.745 238.621 226.56 248.169 184.253 243.156L182.343 242.917C172.26 241.654 162.307 239.504 152.602 236.492L151.265 221.769L205.516 219.086L213.87 218.666L259.194 216.422L230.742 194.987L227.046 192.199L201.983 173.323L186.945 161.999L180.262 137.919L199.434 149.959C204.323 152.126 209.068 154.408 213.651 156.757C221.647 160.839 229.405 165.368 236.89 170.325C237.845 170.993 238.895 171.661 239.869 172.349C259.137 185.554 274.28 200.553 284.639 216.422Z" fill="#FDC097"/>
<path style="mix-blend-mode:multiply" d="M213.66 156.757C210.165 160.806 206.992 165.122 204.17 169.666C203.435 170.879 202.709 172.091 202.002 173.323L186.964 161.999L180.281 137.919L199.453 149.959C204.332 152.126 209.077 154.447 213.66 156.757Z" fill="url(#paint2_linear_631_344)"/>
<path style="mix-blend-mode:multiply" d="M284.639 216.422C269.745 238.621 226.56 248.169 184.253 243.156L182.343 242.917C190.039 234.926 197.945 227.163 205.516 219.048L213.87 218.628L259.194 216.384L230.742 194.949L227.047 192.161C231.189 185.29 234.491 177.946 236.881 170.287C237.836 170.955 238.886 171.623 239.86 172.311C259.137 185.554 274.28 200.553 284.639 216.422Z" fill="url(#paint3_linear_631_344)"/>
<path d="M221.528 136.649C221.365 136.888 221.194 137.127 221.012 137.375C215.283 145.29 205.21 150.083 195.099 151.248C188.196 152.05 181.264 151.162 175.621 148.384C171.994 146.704 168.897 144.062 166.666 140.745C170.476 133.797 172.629 126.063 172.958 118.146C173.106 111.668 171.873 105.233 169.339 99.2694C179.555 91.4497 192.855 110.536 203.224 104.244C205.478 102.869 207.655 101.379 208.399 101.742C211.827 103.365 211.331 109.142 209.736 112.445C210.156 113.4 211.798 113.601 212.295 113.4C213.622 113.763 213.126 116.179 212.295 117.506C212.776 117.593 213.227 117.8 213.607 118.107C213.988 118.414 214.285 118.811 214.472 119.263C212.715 121.678 213.517 123.702 215.312 124.686C218.024 126.261 225.309 131.073 221.528 136.649Z" fill="#FDC097"/>
<path style="mix-blend-mode:multiply" d="M221.012 137.375C215.283 145.29 205.21 150.083 195.099 151.248C188.196 152.05 181.264 151.162 175.621 148.384C171.994 146.704 168.897 144.062 166.666 140.745C170.476 133.797 172.629 126.063 172.958 118.146C176.835 122.368 181.344 125.962 186.325 128.801C195.959 134.291 208.753 136.764 221.012 137.375Z" fill="url(#paint4_linear_631_344)"/>
<path d="M247.613 280.985C245.598 303.04 235.076 307.967 217.69 298.992C216.028 298.133 214.29 297.14 212.495 296.032C199.128 320.694 186.392 321.258 174.361 299.04C162.608 313.266 153.06 317.057 145.393 311.958C141.096 309.094 137.392 303.499 134.222 295.364C100.155 325.029 99.9163 290.141 126.86 203.38C125.858 203.714 145.593 191.998 145.593 191.998L148.362 194.261C190.469 228.5 207.559 241.896 194.421 195.331C194.221 194.567 193.992 193.793 193.763 193.001L202.461 190.328L247.613 280.985Z" fill="#FFE287"/>
<path d="M213.221 113.649C213.478 114.412 213.561 115.223 213.464 116.023C213.366 116.823 213.091 117.59 212.658 118.27C211.824 119.563 210.723 120.663 209.431 121.497C208.219 122.295 206.901 122.919 205.516 123.349C204.166 123.787 202.762 124.034 201.343 124.084C201.254 124.087 201.166 124.072 201.083 124.04C200.999 124.008 200.923 123.961 200.858 123.899C200.794 123.838 200.742 123.765 200.705 123.684C200.669 123.602 200.649 123.515 200.646 123.426C200.644 123.289 200.681 123.155 200.754 123.039C200.827 122.924 200.933 122.832 201.057 122.776C203.43 121.836 205.675 120.601 207.741 119.1C208.661 118.404 209.47 117.57 210.137 116.628C210.816 115.686 211.411 114.686 211.913 113.639C211.976 113.515 212.074 113.413 212.194 113.343C212.314 113.273 212.451 113.239 212.59 113.245C212.729 113.251 212.863 113.297 212.976 113.377C213.09 113.457 213.178 113.568 213.231 113.696L213.221 113.649Z" fill="#F76666"/>
<path d="M190.373 112.188C190.829 112.577 191.193 113.062 191.439 113.608C191.685 114.155 191.807 114.749 191.796 115.348C191.776 116.521 191.421 117.664 190.774 118.642C189.609 120.454 187.851 121.804 185.8 122.461C185.627 122.516 185.441 122.5 185.28 122.418C185.119 122.336 184.997 122.193 184.94 122.022C184.898 121.894 184.895 121.756 184.933 121.627C184.97 121.497 185.046 121.382 185.15 121.296C186.516 120.21 187.68 118.891 188.588 117.401C188.952 116.739 189.197 116.018 189.313 115.272C189.432 114.51 189.409 113.733 189.246 112.98V112.923C189.21 112.739 189.248 112.549 189.351 112.393C189.455 112.237 189.617 112.129 189.8 112.092C189.897 112.066 189.998 112.061 190.097 112.077C190.196 112.094 190.29 112.132 190.373 112.188Z" fill="#9B5E35"/>
<path d="M190.068 123.511C186.621 124.609 183.384 130.5 185.685 133.594C186.955 135.274 189.027 134.912 190.459 133.594C192.875 131.322 193.228 127.283 191.958 124.409C191.842 124.106 191.648 123.839 191.395 123.636C191.209 123.527 191.003 123.458 190.789 123.435C190.575 123.412 190.358 123.435 190.154 123.502L190.068 123.511Z" fill="#F76666"/>
<path d="M179.154 103.652C178.783 104.484 178.464 105.339 178.199 106.211C177.853 107.186 177.592 108.189 177.417 109.209C177.054 111.271 177.101 113.524 176.872 115.892C176.861 116.051 176.795 116.201 176.685 116.316C176.574 116.431 176.427 116.503 176.269 116.52C176.11 116.537 175.951 116.498 175.819 116.409C175.687 116.321 175.59 116.188 175.545 116.035C174.74 113.735 174.393 111.299 174.524 108.865C174.622 107.585 174.898 106.326 175.345 105.122C175.609 104.464 176.006 103.866 176.509 103.365C176.783 103.073 177.112 102.838 177.478 102.674C177.844 102.51 178.238 102.42 178.639 102.411C178.749 102.418 178.855 102.452 178.95 102.508C179.044 102.564 179.125 102.642 179.184 102.735C179.243 102.827 179.28 102.933 179.292 103.042C179.303 103.152 179.289 103.262 179.25 103.365L179.154 103.652Z" fill="#9B5E35"/>
<g style="mix-blend-mode:screen">
<path d="M74.9199 244.922C69.2771 237.399 63.6439 228.118 64.6368 216.279C66.2982 196.419 84.3437 185.726 94.9514 181.181C120.167 170.277 150.234 153.759 158.922 122.576C160.402 117.248 162.99 103.9 154.998 94.9633L155.953 94.0658C164.384 103.499 161.682 117.401 160.173 122.939C151.351 154.666 120.96 171.385 95.4574 182.412C85.1266 186.881 67.5585 197.231 65.9544 216.393C64.9997 227.851 70.4801 236.826 75.9702 244.149L74.9199 244.922Z" fill="#FF9C59"/>
</g>
<g style="mix-blend-mode:screen">
<path d="M76.992 301.904C73.2678 301.91 69.5991 301.002 66.3079 299.26C59.2138 295.44 55.1368 288.365 55.1273 279.753H56.464C56.464 287.85 60.2832 294.533 66.9667 298.076C70.5479 299.927 74.5653 300.769 78.5885 300.512C82.6117 300.254 86.4891 298.907 89.8052 296.615C102.743 287.945 99.8496 267.57 98.6657 261.526C97.8828 257.602 96.9089 253.64 95.8777 249.448C90.655 228.204 85.2509 206.244 106.848 191.827C111.975 188.399 117.857 186.289 123.538 184.246C125.61 183.501 127.749 182.728 129.811 181.906C147.054 175.061 157.414 158.037 156.841 137.499H158.187C158.77 158.629 148.086 176.13 130.307 183.186C128.216 184.016 126.068 184.79 123.987 185.535C118.382 187.559 112.529 189.64 107.593 192.972C86.7786 206.874 92.0681 228.376 97.1762 249.162C98.131 253.191 99.1908 257.354 99.9738 261.307C101.205 267.551 104.175 288.642 90.55 297.77C86.5412 300.463 81.8215 301.902 76.992 301.904Z" fill="#FF9C59"/>
</g>
<mask id="mask2_631_344" style="mask-type:luminance" maskUnits="userSpaceOnUse" x="107" y="190" width="141" height="162">
<path d="M202.461 190.328L193.763 193.001C193.992 193.794 194.221 194.567 194.421 195.331C207.521 241.896 190.469 228.5 148.362 194.261L145.593 191.998C145.593 191.998 125.858 203.714 126.86 203.38C99.9163 290.141 100.126 325.029 134.222 295.364C137.392 303.499 141.096 309.122 145.393 311.958L154.397 351.105L226.206 343.953L217.69 298.973C235.076 307.948 245.598 303.021 247.613 280.966L202.461 190.328Z" fill="white"/>
</mask>
<g mask="url(#mask2_631_344)">
<path d="M254.831 274.75C240.948 276.096 227.027 277.614 213.25 279.323C171.678 284.575 134.298 289.692 98.5223 295.679L98.1213 298.457C134.117 292.423 171.716 287.267 213.584 281.978C227.447 280.221 241.464 278.731 255.432 277.376C255.232 276.488 255.031 275.609 254.831 274.75Z" fill="white"/>
<path d="M179.431 298.438C155.943 301.417 132.436 305.122 109.14 309.103H109.283C111.673 309.395 114.033 309.89 116.339 310.583C137.344 307.051 158.598 303.776 179.765 301.035C205.863 297.713 231.674 294.944 257.199 292.729C257.266 291.86 257.304 290.962 257.285 290.036C231.658 292.321 205.707 295.122 179.431 298.438Z" fill="white"/>
<path d="M104.07 258.366C154.559 253.649 204.389 249.945 247.87 246.908C247.603 246.03 247.317 245.161 247.021 244.292C203.883 247.329 154.54 250.976 104.518 255.673C104.366 256.552 104.213 257.459 104.07 258.366Z" fill="white"/>
<path d="M250.763 257.468C218.959 260.056 187.251 262.863 156.134 265.622L135.014 267.532C124.149 268.487 113.054 269.804 102.084 271.227C101.95 272.182 101.816 273.06 101.673 273.977C112.901 272.516 124.178 271.179 135.253 270.205L156.363 268.296C187.623 265.527 219.456 262.701 251.394 260.113C251.203 259.225 251.002 258.347 250.763 257.468Z" fill="white"/>
<path d="M225.061 204.754C224.315 204.132 223.671 203.398 223.151 202.578L218.463 203.17C201.009 205.394 182.964 207.686 165.51 209.337L158.273 210.015C143.331 211.428 128.235 212.88 113.064 214.417C112.863 215.372 112.663 216.25 112.453 217.167C127.911 215.582 143.302 214.121 158.531 212.679L165.768 212.001C183.26 210.34 201.324 208.049 218.797 205.833L225.347 205.003L225.061 204.754Z" fill="white"/>
<path d="M237.549 222.351L226.665 223.306C190.144 226.533 151.933 230.534 108.185 235.718C107.994 236.673 107.803 237.561 107.622 238.478C151.704 233.217 190.163 229.188 226.903 225.951L238.781 224.92C238.38 224.067 237.969 223.211 237.549 222.351Z" fill="white"/>
<path d="M150.835 347.591C177.989 342.072 205.252 337.056 232.622 332.543C231.838 331.842 231.163 331.028 230.617 330.128C203.756 334.583 176.984 339.517 150.301 344.927C150.511 345.844 150.663 346.712 150.835 347.591Z" fill="white"/>
<path d="M145.593 327.368C145.87 328.228 146.128 329.078 146.395 329.937C173.655 324.609 201.496 320.971 229.309 318.069C229.555 317.271 229.875 316.497 230.264 315.758C230.369 315.577 230.484 315.424 230.589 315.243C202.126 318.183 173.559 321.898 145.593 327.368Z" fill="white"/>
</g>
<g style="mix-blend-mode:screen">
<path d="M205.888 104.215C204.733 104.75 200.16 107.433 202.68 108.55C204.59 109.381 207.683 108.264 208.247 106.211C208.562 105.036 208.352 103.614 206.815 103.881C206.495 103.958 206.184 104.07 205.888 104.215Z" fill="#FDC097"/>
</g>
<path d="M149.059 358.571L147.78 358.17C154.626 336.21 178.62 327.416 197.534 323.903C206.184 322.289 215.054 321.115 223.619 319.969C234.943 318.46 246.648 316.894 257.991 314.336C274.414 310.621 287.657 301.389 293.404 289.616C295.406 285.325 296.449 280.649 296.462 275.914C296.476 271.179 295.458 266.497 293.481 262.195C288.85 251.892 278.997 246.345 270.127 241.963C260.111 237.007 249.121 233.627 239.573 230.858C233.262 229.016 227.161 226.753 221.318 224.566C218.453 223.487 215.494 222.399 212.524 221.358C192.808 214.398 168.824 197.04 166.131 171.003L167.468 170.869C170.084 196.285 193.619 213.271 212.973 220.088C215.942 221.139 218.874 222.227 221.786 223.316C227.629 225.492 233.682 227.746 239.927 229.569C249.475 232.367 260.55 235.756 270.661 240.76C279.741 245.247 289.834 250.938 294.646 261.65C296.702 266.132 297.759 271.008 297.743 275.94C297.726 280.871 296.637 285.74 294.55 290.208C288.621 302.334 275.044 311.844 258.268 315.644C246.887 318.212 235.153 319.778 223.8 321.296C215.207 322.432 206.404 323.616 197.782 325.22C179.221 328.667 155.705 337.251 149.059 358.571Z" fill="#283B4B"/>
<path d="M171.02 172.139C181.159 166.83 186.516 154.351 185.341 143.218C184.692 137.06 181.952 130.873 176.911 127.292C172.137 123.874 165.778 123.196 159.935 124.037C151.341 125.278 143.063 129.832 138.423 137.146C125.619 157.311 150.1 183.09 171.02 172.139Z" fill="#90A5B6"/>
<path d="M157.108 133.336C153.258 134.512 149.705 136.501 146.691 139.17C144.358 141.29 142.732 144.074 142.032 147.148C141.332 150.221 141.592 153.435 142.777 156.356C148.343 171.442 169.205 169.169 176.28 156.624C184.081 142.798 173.569 128.228 157.977 133.126L157.108 133.336Z" fill="#283B4B"/>
<path d="M153.05 127.713L142.548 136.84C131.634 123.951 128.951 108.12 134.117 89.4733C137.936 85.7496 142.28 84.5657 147.36 86.1888C143.827 100.854 146.233 114.622 153.05 127.713Z" fill="#283B4B"/>
<path d="M160.479 172.826C158.294 172.83 156.122 172.489 154.043 171.814C146.94 169.485 141.431 163.326 139.311 155.354C136.561 144.994 145.307 134.282 154.989 130.31C159.531 128.207 164.719 127.985 169.424 129.691C174.13 131.397 177.97 134.894 180.109 139.418C182.056 142.834 183.067 146.703 183.041 150.635C183.014 154.566 181.952 158.421 179.96 161.811C177.968 165.2 175.117 168.004 171.695 169.94C168.273 171.876 164.4 172.875 160.469 172.836L160.479 172.826ZM155.361 131.236C146.08 135.055 137.669 145.262 140.285 155.106C142.309 162.744 147.579 168.644 154.358 170.869C164.384 174.154 176.319 168.473 180.5 158.457C181.66 155.459 182.148 152.242 181.928 149.035C181.709 145.828 180.788 142.708 179.231 139.896C177.965 137.357 176.143 135.137 173.899 133.401C171.656 131.665 169.049 130.458 166.274 129.87C162.58 129.254 158.786 129.731 155.361 131.245V131.236Z" fill="#DEF5FE"/>
<path d="M240.595 280.985C237.472 282.061 234.175 282.537 230.875 282.388C223.17 282.197 213.565 279.782 203.272 275.791C164.89 260.925 116.969 224.423 122.516 202.062C124.75 193.058 130.431 191.082 138.356 193.688C155.924 199.475 184.472 227.86 210.49 252.246L208.753 247.882L177.082 170.544L149.269 160.891C152.821 157.263 161.395 159.65 168.002 159.221C162.827 156.127 158.598 151.582 154.96 146.178L152.621 121.65L152.287 118.079C157.06 119.549 158.464 130.749 160.288 140.688L155.628 113.391C159.572 116.408 161.892 127.388 164.326 137.814L161.653 114.727C165.358 116.914 167.219 128.39 169.339 138.483L167.897 116.962C172.872 119.177 172.958 130.281 176.032 141.328C186.821 147.448 193.887 154.829 193.094 164.911C218.577 199.465 238.504 234.897 240.442 273.127C240.576 275.705 240.633 278.34 240.595 280.985Z" fill="#FDC097"/>
<path style="mix-blend-mode:multiply" d="M208.753 247.882L177.082 170.544L149.269 160.891C152.821 157.263 161.395 159.65 168.002 159.221C162.827 156.127 158.598 151.582 154.96 146.178L152.621 121.65C153.269 124.466 154.127 127.23 155.189 129.918C156.51 133.675 158.219 137.285 160.288 140.688C161.18 142.055 162.199 143.334 163.333 144.507C167.286 148.565 172.165 151.802 176.357 155.755C188.158 166.888 196.092 181.257 201.334 196.505C206.843 212.402 211.942 230.963 208.753 247.882Z" fill="url(#paint5_linear_631_344)"/>
<path style="mix-blend-mode:multiply" d="M203.272 275.762C164.89 260.896 116.969 224.394 122.516 202.033C124.75 193.03 130.431 191.053 138.356 193.66C139.473 195.99 140.629 198.329 141.793 200.687C156.325 230.152 178.772 254.088 203.272 275.762Z" fill="url(#paint6_linear_631_344)"/>
<path d="M185.838 199.322L185.723 195.312C195.223 195.016 203.979 188.571 209.001 182.642L212.066 185.229C206.442 191.865 196.617 199.026 185.838 199.322Z" fill="#9B5E35"/>
<path d="M184.482 192.132L183.661 189.583C191.939 186.909 199.09 182.241 205.716 177.686L207.235 179.892C200.446 184.561 193.104 189.344 184.482 192.132Z" fill="#90A5B6"/>
<path d="M165.663 174.115L169.339 172.712L170.122 179.128L167.334 180.188L165.663 174.115Z" fill="#283B4B"/>
</g>
<defs>
<linearGradient id="paint0_linear_631_344" x1="43.8225" y1="199.56" x2="183.861" y2="269.098" gradientUnits="userSpaceOnUse">
<stop offset="0.35" stop-color="#FF9C59"/>
<stop offset="0.8" stop-color="#B49B4E"/>
</linearGradient>
<linearGradient id="paint1_linear_631_344" x1="148.362" y1="173.561" x2="184.224" y2="173.561" gradientUnits="userSpaceOnUse">
<stop stop-color="#FDC097"/>
<stop offset="1" stop-color="#FDC097"/>
</linearGradient>
<linearGradient id="paint2_linear_631_344" x1="180.271" y1="155.621" x2="213.66" y2="155.621" gradientUnits="userSpaceOnUse">
<stop stop-color="#FDC097"/>
<stop offset="1" stop-color="#FDC097"/>
</linearGradient>
<linearGradient id="paint3_linear_631_344" x1="182.362" y1="207.39" x2="284.639" y2="207.39" gradientUnits="userSpaceOnUse">
<stop stop-color="#FDC097"/>
<stop offset="1" stop-color="#FDC097"/>
</linearGradient>
<linearGradient id="paint4_linear_631_344" x1="166.666" y1="134.873" x2="221.012" y2="134.873" gradientUnits="userSpaceOnUse">
<stop stop-color="#FDC097"/>
<stop offset="1" stop-color="#FDC097"/>
</linearGradient>
<linearGradient id="paint5_linear_631_344" x1="149.269" y1="184.761" x2="209.717" y2="184.761" gradientUnits="userSpaceOnUse">
<stop stop-color="#FDC097"/>
<stop offset="1" stop-color="#FDC097"/>
</linearGradient>
<linearGradient id="paint6_linear_631_344" x1="122.077" y1="234.181" x2="203.272" y2="234.181" gradientUnits="userSpaceOnUse">
<stop stop-color="#FDC097"/>
<stop offset="1" stop-color="#FDC097"/>
</linearGradient>
<clipPath id="clip0_631_344">
<rect width="339.106" height="341" fill="white" transform="translate(0.947235)"/>
</clipPath>
</defs>
</svg>
