<svg width="22" height="22" viewBox="0 0 22 22" fill="none" xmlns="http://www.w3.org/2000/svg">
<g id="6395e6749db8fe00a41cc279_flow-flow-logo 1" clip-path="url(#clip0_660_423)">
<g id="Layer_2_1_">
<g id="Layer_1-2">
<g id="g43">
<path id="circle20" d="M11 21.5C16.799 21.5 21.5 16.799 21.5 11C21.5 5.20101 16.799 0.5 11 0.5C5.20101 0.5 0.5 5.20101 0.5 11C0.5 16.799 5.20101 21.5 11 21.5Z" fill="#00EF8B"/>
<path id="rect22" d="M15.5989 9.362H12.6379V12.323H15.5989V9.362Z" fill="white"/>
<path id="path24" d="M9.67699 13.436C9.67699 14.045 9.17299 14.549 8.56399 14.549C7.95499 14.549 7.45099 14.045 7.45099 13.436C7.45099 12.827 7.95499 12.323 8.56399 12.323H9.67699V9.362H8.56399C6.31699 9.362 4.48999 11.189 4.48999 13.436C4.48999 15.683 6.31699 17.51 8.56399 17.51C10.811 17.51 12.638 15.683 12.638 13.436V12.323H9.67699V13.436Z" fill="white"/>
<path id="path26" d="M13.751 7.871H17.09V4.91H13.751C11.504 4.91 9.677 6.737 9.677 8.984V9.362H12.638V8.984C12.638 8.375 13.142 7.871 13.751 7.871Z" fill="white"/>
<path id="polygon28" d="M12.638 9.362H9.677V12.323H12.638V9.362Z" fill="#16FF99"/>
</g>
</g>
</g>
</g>
<defs>
<clipPath id="clip0_660_423">
<rect width="21" height="21" fill="white" transform="translate(0.5 0.5)"/>
</clipPath>
</defs>
</svg>
