<svg width="19" height="18" viewBox="0 0 19 18" fill="none" xmlns="http://www.w3.org/2000/svg">
<g clip-path="url(#clip0_660_433)">
<path d="M18.4905 9.16839C18.4905 8.43094 18.4293 7.89279 18.2968 7.33472H9.67932V10.6632H14.7376C14.6356 11.4904 14.0849 12.7361 12.8611 13.5732L12.844 13.6846L15.5687 15.7473L15.7574 15.7657C17.4911 14.201 18.4905 11.899 18.4905 9.16839Z" fill="#4285F4"/>
<path d="M9.67933 17.9382C12.1574 17.9382 14.2379 17.1409 15.7574 15.7657L12.8611 13.5732C12.0861 14.1014 11.0459 14.4701 9.67933 14.4701C7.25218 14.4701 5.19217 12.9055 4.45783 10.743L4.35019 10.7519L1.51703 12.8945L1.47998 12.9952C2.98929 15.9251 6.08954 17.9382 9.67933 17.9382Z" fill="#34A853"/>
<path d="M4.4577 10.743C4.26394 10.1849 4.15181 9.58692 4.15181 8.96908C4.15181 8.35118 4.26394 7.75326 4.44751 7.19519L4.44238 7.07634L1.57371 4.8993L1.47986 4.94292C0.857794 6.15875 0.500854 7.52407 0.500854 8.96908C0.500854 10.4141 0.857794 11.7793 1.47986 12.9952L4.4577 10.743Z" fill="#FBBC05"/>
<path d="M9.67933 3.46802C11.4028 3.46802 12.5654 4.19551 13.2283 4.80346L15.8186 2.33196C14.2277 0.886947 12.1574 0 9.67933 0C6.08954 0 2.98929 2.01305 1.47998 4.94292L4.44763 7.19519C5.19217 5.03265 7.25218 3.46802 9.67933 3.46802Z" fill="#EB4335"/>
</g>
<defs>
<clipPath id="clip0_660_433">
<rect width="18" height="18" fill="white" transform="translate(0.5)"/>
</clipPath>
</defs>
</svg>
