<svg width="225" height="225" viewBox="0 0 225 225" fill="none" xmlns="http://www.w3.org/2000/svg">
<rect width="225" height="225" fill="white"/>
<rect width="225" height="225" fill="url(#paint0_radial_1235_4663)"/>
<path d="M104.898 83H101.553L99.904 77.9901H90.7937L89.1751 83H85.8301L93.0443 60.8024H97.6842L104.898 83ZM95.3257 64.0241L91.7803 74.9688H98.9174L95.3257 64.0241ZM118.254 60.8024H121.491V83H118.624V81.4739C118.007 82.1111 117.283 82.6043 116.451 82.9538C115.618 83.2929 114.688 83.4625 113.66 83.4625C112.15 83.4625 110.824 83.0822 109.683 82.3217C108.543 81.551 107.664 80.4976 107.047 79.1617C106.431 77.8257 106.122 76.3253 106.122 74.6605C106.122 72.9854 106.431 71.485 107.047 70.1593C107.674 68.8233 108.558 67.7803 109.699 67.0301C110.85 66.2696 112.191 65.8893 113.722 65.8893C115.531 65.8893 117.041 66.4237 118.254 67.4925V60.8024ZM114.107 80.549C115.628 80.549 116.759 80.0249 117.499 78.9767C118.249 77.9182 118.624 76.4795 118.624 74.6605C118.624 72.8621 118.254 71.4387 117.514 70.3905C116.785 69.332 115.685 68.8028 114.215 68.8028C113.177 68.8028 112.309 69.0597 111.61 69.5735C110.911 70.0771 110.392 70.7708 110.053 71.6546C109.714 72.5384 109.545 73.5403 109.545 74.6605C109.545 75.7909 109.714 76.798 110.053 77.6818C110.392 78.5656 110.901 79.2644 111.579 79.7783C112.268 80.2921 113.111 80.549 114.107 80.549ZM136.394 60.8024H139.632V83H136.764V81.4739C136.148 82.1111 135.423 82.6043 134.591 82.9538C133.758 83.2929 132.828 83.4625 131.801 83.4625C130.29 83.4625 128.964 83.0822 127.824 82.3217C126.683 81.551 125.804 80.4976 125.188 79.1617C124.571 77.8257 124.263 76.3253 124.263 74.6605C124.263 72.9854 124.571 71.485 125.188 70.1593C125.815 68.8233 126.698 67.7803 127.839 67.0301C128.99 66.2696 130.331 65.8893 131.862 65.8893C133.671 65.8893 135.182 66.4237 136.394 67.4925V60.8024ZM132.248 80.549C133.769 80.549 134.899 80.0249 135.639 78.9767C136.389 77.9182 136.764 76.4795 136.764 74.6605C136.764 72.8621 136.394 71.4387 135.654 70.3905C134.925 69.332 133.825 68.8028 132.356 68.8028C131.318 68.8028 130.449 69.0597 129.751 69.5735C129.052 70.0771 128.533 70.7708 128.194 71.6546C127.854 72.5384 127.685 73.5403 127.685 74.6605C127.685 75.7909 127.854 76.798 128.194 77.6818C128.533 78.5656 129.041 79.2644 129.72 79.7783C130.408 80.2921 131.251 80.549 132.248 80.549ZM66.25 125V102.802H75.2215C75.8381 102.802 76.4085 102.844 76.9326 102.926C78.1453 103.111 79.1678 103.527 80.0002 104.174C80.8326 104.811 81.4543 105.623 81.8654 106.61C82.2868 107.596 82.4974 108.696 82.4974 109.909C82.4974 111.132 82.2868 112.236 81.8654 113.223C81.4441 114.199 80.8172 115.011 79.9848 115.659C79.1524 116.296 78.135 116.712 76.9326 116.907C76.4085 116.989 75.8381 117.03 75.2215 117.03H69.4718V125H66.25ZM75.0982 113.978C75.6326 113.978 76.1002 113.932 76.501 113.84C77.4156 113.613 78.0939 113.13 78.5358 112.391C78.9879 111.651 79.214 110.823 79.214 109.909C79.214 108.994 78.9879 108.167 78.5358 107.427C78.0939 106.687 77.4156 106.209 76.501 105.993C76.1208 105.891 75.6532 105.839 75.0982 105.839H69.4718V113.978H75.0982ZM89.3711 109.292C89.8335 108.943 90.3679 108.681 90.9742 108.506C91.5806 108.331 92.1972 108.244 92.824 108.244C93.1632 108.244 93.5383 108.28 93.9493 108.352V111.373C93.5999 111.27 93.194 111.219 92.7315 111.219C92.2999 111.219 91.8734 111.276 91.4521 111.389C91.041 111.491 90.6608 111.656 90.3114 111.882C88.9138 112.776 88.2149 114.348 88.2149 116.599V125H84.9624V108.352H87.8296V111.003C88.2406 110.274 88.7545 109.703 89.3711 109.292ZM103.197 125.462C101.563 125.462 100.129 125.092 98.8961 124.353C97.6629 123.602 96.7123 122.564 96.0443 121.239C95.3763 119.903 95.0423 118.377 95.0423 116.66C95.0423 114.934 95.3815 113.408 96.0597 112.082C96.738 110.757 97.6937 109.729 98.9269 108.999C100.16 108.259 101.583 107.889 103.197 107.889C104.831 107.889 106.264 108.259 107.498 108.999C108.741 109.739 109.697 110.777 110.365 112.113C111.033 113.439 111.367 114.955 111.367 116.66C111.367 118.387 111.028 119.918 110.349 121.254C109.681 122.58 108.731 123.613 107.498 124.353C106.264 125.092 104.831 125.462 103.197 125.462ZM103.197 122.426C104.738 122.426 105.915 121.907 106.727 120.869C107.539 119.821 107.945 118.418 107.945 116.66C107.945 114.883 107.539 113.485 106.727 112.468C105.915 111.44 104.738 110.926 103.197 110.926C101.635 110.926 100.453 111.44 99.6514 112.468C98.8601 113.495 98.4645 114.893 98.4645 116.66C98.4645 118.449 98.8704 119.857 99.6823 120.884C100.494 121.912 101.666 122.426 103.197 122.426ZM121.152 104.991C120.391 104.991 119.821 105.176 119.44 105.546C119.07 105.916 118.885 106.451 118.885 107.149V108.352H123.094V110.942H118.885V125H115.664V110.942H112.904V108.352H115.664V107.766C115.664 107.17 115.679 106.661 115.71 106.24C115.751 105.819 115.849 105.382 116.003 104.93C116.157 104.477 116.399 104.072 116.727 103.712C117.118 103.28 117.555 102.967 118.038 102.772C118.531 102.566 118.993 102.443 119.425 102.402C119.857 102.361 120.381 102.34 120.997 102.34H123.094V104.991H121.152ZM129.553 105.623H126.331V102.494H129.553V105.623ZM129.553 125H126.331V108.352H129.553V125ZM137.103 125H133.881V102.34H137.103V125ZM143.643 117.585C143.777 119.137 144.244 120.334 145.046 121.177C145.848 122.009 146.947 122.426 148.345 122.426C149.342 122.426 150.21 122.2 150.95 121.747C151.69 121.295 152.265 120.638 152.676 119.774L155.836 120.776C155.199 122.246 154.223 123.397 152.908 124.229C151.592 125.051 150.123 125.462 148.499 125.462C146.855 125.462 145.406 125.103 144.152 124.383C142.898 123.654 141.922 122.636 141.223 121.331C140.534 120.016 140.19 118.51 140.19 116.815C140.19 115.016 140.529 113.444 141.208 112.098C141.886 110.751 142.842 109.713 144.075 108.984C145.308 108.254 146.731 107.889 148.345 107.889C149.938 107.889 151.315 108.244 152.476 108.953C153.637 109.662 154.526 110.679 155.143 112.005C155.77 113.321 156.083 114.877 156.083 116.676C156.083 116.871 156.073 117.174 156.052 117.585H143.643ZM148.468 110.741C147.101 110.741 146.017 111.111 145.216 111.851C144.424 112.581 143.926 113.655 143.72 115.073H152.753C152.579 113.603 152.137 112.514 151.428 111.805C150.729 111.096 149.742 110.741 148.468 110.741ZM75.3957 167H72.174V144.802H75.3957V167ZM96.935 149.936C98.1066 149.936 99.1188 150.182 99.9718 150.676C100.825 151.159 101.472 151.847 101.914 152.741C102.366 153.625 102.592 154.663 102.592 155.855L102.577 167H99.3552L99.3706 156.626C99.3706 155.845 99.2319 155.166 98.9544 154.591C98.6769 154.015 98.2813 153.574 97.7674 153.265C97.2639 152.957 96.6781 152.803 96.0101 152.803C95.3832 152.803 94.8129 152.947 94.2991 153.234C93.7852 153.522 93.3742 153.954 93.0659 154.529C92.7678 155.094 92.6188 155.783 92.6188 156.595L92.6034 167H89.3817L89.3971 156.687C89.3971 155.896 89.2583 155.208 88.9809 154.622C88.7034 154.036 88.3078 153.589 87.7939 153.281C87.2904 152.962 86.6995 152.803 86.0212 152.803C85.3532 152.803 84.7623 152.962 84.2485 153.281C83.7346 153.599 83.3338 154.046 83.0461 154.622C82.7686 155.187 82.6299 155.845 82.6299 156.595V167H79.3927V150.352H82.2599V152.14C82.8046 151.451 83.488 150.912 84.3101 150.521C85.1425 150.131 86.052 149.936 87.0386 149.936C88.169 149.936 89.1453 150.172 89.9674 150.645C90.7896 151.117 91.4267 151.78 91.8789 152.633C92.3927 151.791 93.0915 151.133 93.9753 150.66C94.8694 150.177 95.856 149.936 96.935 149.936ZM118.943 153.065C119.179 153.568 119.333 154.108 119.405 154.683C119.487 155.249 119.528 155.937 119.528 156.749V167H116.677V164.58C115.988 165.556 115.15 166.281 114.164 166.753C113.188 167.226 112.026 167.462 110.68 167.462C109.488 167.462 108.471 167.242 107.628 166.8C106.785 166.347 106.143 165.746 105.701 164.996C105.269 164.236 105.054 163.393 105.054 162.468C105.054 160.012 106.364 158.368 108.984 157.535C109.776 157.299 110.67 157.098 111.667 156.934C112.674 156.759 114.066 156.549 115.844 156.302L116.353 156.24C116.301 155.069 115.983 154.216 115.397 153.681C114.811 153.137 113.876 152.864 112.592 152.864C111.656 152.864 110.834 153.08 110.125 153.512C109.416 153.943 108.928 154.601 108.661 155.485L105.655 154.56C106.066 153.091 106.857 151.945 108.029 151.123C109.211 150.3 110.742 149.889 112.622 149.889C114.154 149.889 115.464 150.151 116.553 150.676C117.643 151.2 118.439 151.996 118.943 153.065ZM111.25 164.826C112.124 164.826 112.895 164.672 113.563 164.364C114.231 164.045 114.765 163.634 115.166 163.131C115.577 162.627 115.849 162.093 115.983 161.528C116.188 160.932 116.301 160.063 116.322 158.923L115.921 158.984C114.421 159.2 113.296 159.375 112.545 159.508C111.805 159.642 111.137 159.796 110.541 159.971C109.822 160.217 109.257 160.536 108.846 160.926C108.445 161.317 108.245 161.821 108.245 162.437C108.245 163.126 108.496 163.696 109 164.148C109.514 164.6 110.264 164.826 111.25 164.826ZM134.491 150.352H137.343V167.447C137.343 168.423 137.271 169.245 137.127 169.913C136.788 171.558 135.976 172.791 134.692 173.613C133.407 174.445 131.768 174.862 129.774 174.862C128.397 174.862 127.118 174.543 125.936 173.906C124.764 173.279 123.845 172.385 123.177 171.224L126.152 169.713C126.501 170.391 127 170.9 127.647 171.239C128.305 171.589 129.024 171.763 129.805 171.763C131.192 171.763 132.261 171.393 133.011 170.653C133.762 169.913 134.126 168.834 134.106 167.416V165.844C132.883 166.923 131.357 167.462 129.528 167.462C128.017 167.462 126.691 167.082 125.551 166.322C124.41 165.551 123.531 164.498 122.915 163.162C122.298 161.826 121.99 160.325 121.99 158.66C121.99 156.985 122.298 155.485 122.915 154.159C123.541 152.823 124.425 151.78 125.566 151.03C126.717 150.27 128.058 149.889 129.589 149.889C130.607 149.889 131.526 150.059 132.349 150.398C133.171 150.737 133.885 151.22 134.491 151.847V150.352ZM129.975 164.549C131.496 164.549 132.626 164.025 133.366 162.977C134.116 161.918 134.491 160.479 134.491 158.66C134.491 156.862 134.121 155.439 133.381 154.391C132.652 153.332 131.552 152.803 130.083 152.803C129.045 152.803 128.176 153.06 127.477 153.574C126.779 154.077 126.26 154.771 125.921 155.655C125.581 156.538 125.412 157.54 125.412 158.66C125.412 159.791 125.581 160.798 125.921 161.682C126.26 162.566 126.768 163.264 127.447 163.778C128.135 164.292 128.978 164.549 129.975 164.549ZM143.583 159.585C143.717 161.137 144.184 162.334 144.986 163.177C145.787 164.009 146.887 164.426 148.285 164.426C149.281 164.426 150.15 164.2 150.89 163.747C151.63 163.295 152.205 162.638 152.616 161.774L155.776 162.776C155.139 164.246 154.163 165.397 152.847 166.229C151.532 167.051 150.062 167.462 148.439 167.462C146.794 167.462 145.345 167.103 144.092 166.383C142.838 165.654 141.862 164.636 141.163 163.331C140.474 162.016 140.13 160.51 140.13 158.815C140.13 157.016 140.469 155.444 141.147 154.098C141.826 152.751 142.781 151.713 144.015 150.984C145.248 150.254 146.671 149.889 148.285 149.889C149.877 149.889 151.255 150.244 152.416 150.953C153.577 151.662 154.466 152.679 155.083 154.005C155.709 155.321 156.023 156.877 156.023 158.676C156.023 158.871 156.013 159.174 155.992 159.585H143.583ZM148.408 152.741C147.041 152.741 145.957 153.111 145.155 153.851C144.364 154.581 143.866 155.655 143.66 157.073H152.693C152.519 155.603 152.077 154.514 151.368 153.805C150.669 153.096 149.682 152.741 148.408 152.741Z" fill="url(#paint1_linear_1235_4663)"/>
<defs>
<radialGradient id="paint0_radial_1235_4663" cx="0" cy="0" r="1" gradientUnits="userSpaceOnUse" gradientTransform="translate(112.5 112.5) rotate(40.8724) scale(171.919 166.215)">
<stop offset="0.316162" stop-color="white"/>
<stop offset="1" stop-color="#EAF5FF"/>
</radialGradient>
<linearGradient id="paint1_linear_1235_4663" x1="113.5" y1="50" x2="113.5" y2="196.323" gradientUnits="userSpaceOnUse">
<stop stop-color="#7ABFFF"/>
<stop offset="1" stop-color="#00519C"/>
</linearGradient>
</defs>
</svg>
